<?xml version="1.0" encoding="utf-8"?>
<!-- Generator: Adobe Illustrator 24.1.1, SVG Export Plug-In . SVG Version: 6.00 Build 0)  -->
<svg version="1.1" xmlns="http://www.w3.org/2000/svg" xmlns:xlink="http://www.w3.org/1999/xlink" x="0px" y="0px"
	 viewBox="0 0 480.1 400" style="enable-background:new 0 0 480.1 400;" xml:space="preserve">
<style type="text/css">
	.st0{clip-path:url(#SVGID_2_);}
	.st1{clip-path:url(#SVGID_6_);}
	.st2{clip-path:url(#SVGID_10_);}
	.st3{fill:#EBEBF3;}
	.st4{clip-path:url(#SVGID_14_);}
	.st5{fill:#DBDCE9;}
	.st6{clip-path:url(#SVGID_18_);}
	.st7{clip-path:url(#SVGID_22_);}
	.st8{clip-path:url(#SVGID_26_);}
	.st9{clip-path:url(#SVGID_30_);}
	.st10{clip-path:url(#SVGID_34_);}
	.st11{clip-path:url(#SVGID_38_);}
	.st12{clip-path:url(#SVGID_42_);}
	.st13{clip-path:url(#SVGID_46_);}
	.st14{clip-path:url(#SVGID_50_);}
	.st15{clip-path:url(#SVGID_54_);}
	.st16{clip-path:url(#SVGID_58_);}
	.st17{clip-path:url(#SVGID_62_);}
	.st18{clip-path:url(#SVGID_66_);}
	.st19{clip-path:url(#SVGID_70_);}
	.st20{clip-path:url(#SVGID_74_);}
	.st21{clip-path:url(#SVGID_78_);}
	.st22{clip-path:url(#SVGID_82_);}
	.st23{fill:#FFFFFF;}
	.st24{fill:#F9B79D;}
	.st25{fill:#E3E4F0;}
	.st26{clip-path:url(#SVGID_86_);}
	.st27{clip-path:url(#SVGID_90_);}
	.st28{clip-path:url(#SVGID_94_);}
	.st29{clip-path:url(#SVGID_98_);}
	.st30{fill:#D3D6E6;}
	.st31{clip-path:url(#SVGID_102_);}
	.st32{clip-path:url(#SVGID_106_);}
	.st33{clip-path:url(#SVGID_110_);}
	.st34{clip-path:url(#SVGID_114_);}
	.st35{clip-path:url(#SVGID_118_);}
	.st36{clip-path:url(#SVGID_122_);}
	.st37{clip-path:url(#SVGID_126_);}
	.st38{fill:#325797;}
	.st39{fill:#CFCED1;}
	.st40{fill:#CE9888;}
	.st41{fill:#2C4F86;}
	.st42{clip-path:url(#SVGID_130_);}
	.st43{clip-path:url(#SVGID_134_);}
	.st44{fill:#C1C1CA;}
	.st45{clip-path:url(#SVGID_138_);}
	.st46{clip-path:url(#SVGID_142_);}
	.st47{clip-path:url(#SVGID_146_);}
	.st48{clip-path:url(#SVGID_150_);}
	.st49{clip-path:url(#SVGID_154_);}
	.st50{clip-path:url(#SVGID_158_);}
	.st51{clip-path:url(#SVGID_162_);}
	.st52{clip-path:url(#SVGID_166_);}
	.st53{fill:#AE827A;}
	.st54{fill:#6B341F;}
	.st55{clip-path:url(#SVGID_170_);}
	.st56{clip-path:url(#SVGID_174_);}
	.st57{clip-path:url(#SVGID_178_);}
	.st58{clip-path:url(#SVGID_182_);}
	.st59{clip-path:url(#SVGID_186_);}
	.st60{clip-path:url(#SVGID_190_);}
	.st61{clip-path:url(#SVGID_194_);}
	.st62{clip-path:url(#SVGID_198_);}
	.st63{clip-path:url(#SVGID_202_);}
	.st64{clip-path:url(#SVGID_206_);}
	.st65{clip-path:url(#SVGID_210_);}
	.st66{fill:#EB5E37;}
	.st67{fill:#4B2D4F;}
	.st68{fill:#BDBCC7;}
	.st69{fill:#C65437;}
	.st70{fill:#243068;}
	.st71{fill:#202D5E;}
	.st72{fill:#422948;}
	.st73{clip-path:url(#SVGID_214_);}
	.st74{clip-path:url(#SVGID_218_);}
	.st75{clip-path:url(#SVGID_222_);}
	.st76{fill:#C3C2CB;}
	.st77{fill:#B8B8C7;}
	.st78{clip-path:url(#SVGID_226_);}
	.st79{fill:#2E5695;}
	.st80{fill:#2C4F87;}
	.st81{clip-path:url(#SVGID_230_);}
	.st82{fill:#C7CADF;}
	.st83{clip-path:url(#SVGID_234_);}
	.st84{fill:#E7AC9C;}
	.st85{fill:#E05F41;}
	.st86{fill:#B2B3C3;}
	.st87{fill:#C4938A;}
	.st88{fill:#C05641;}
	.st89{fill:#22336B;}
	.st90{fill:#1F3162;}
	.st91{fill:#393F4B;}
	.st92{fill:#F6F4F4;}
	.st93{fill:#CAC9CB;}
	.st94{fill:#FAB150;}
	.st95{opacity:0.1;fill:#F6D2D1;}
	.st96{opacity:0.1;enable-background:new    ;}
	.st97{fill:url(#SVGID_237_);}
	.st98{fill:#324E90;}
	.st99{fill:#BCD1E6;}
	.st100{fill:#B9616E;}
	.st101{fill:#F6D2D1;}
	.st102{fill:#3F424D;}
	.st103{fill:#F7BEA5;}
	.st104{fill:#72351C;}
	.st105{fill:#E7552C;}
	.st106{fill:#512D4D;}
	.st107{fill:#FFD762;}
	.st108{opacity:0.1;}
	.st109{fill:#61C2EF;}
	.st110{opacity:0.3;clip-path:url(#SVGID_239_);fill:#324E91;enable-background:new    ;}
	.st111{opacity:0.1;fill:#324E91;enable-background:new    ;}
	.st112{opacity:0.3;fill:#324E91;enable-background:new    ;}
	.st113{fill:#5B539E;}
	.st114{fill:url(#SVGID_240_);}
	.st115{fill:#324E91;}
	.st116{fill:#5781C1;}
	.st117{fill:#F9B547;}
	.st118{opacity:0.1;fill:#FFFFFF;enable-background:new    ;}
	.st119{opacity:0.1;fill:#324E90;}
	.st120{opacity:0.2;fill:#324E90;enable-background:new    ;}
	.st121{opacity:0.7;}
	.st122{opacity:0.6;fill:#324E90;enable-background:new    ;}
	.st123{opacity:0.25;enable-background:new    ;}
	.st124{fill:url(#SVGID_241_);}
	.st125{fill:url(#SVGID_242_);}
	.st126{fill:url(#SVGID_243_);}
	.st127{fill:url(#SVGID_244_);}
	.st128{fill:url(#SVGID_245_);}
	.st129{fill:url(#SVGID_246_);}
	.st130{fill:url(#SVGID_247_);}
	.st131{opacity:0.1;fill:url(#SVGID_248_);enable-background:new    ;}
	.st132{opacity:0.1;fill:url(#SVGID_249_);enable-background:new    ;}
	.st133{opacity:0.1;fill:url(#SVGID_250_);enable-background:new    ;}
	.st134{fill:url(#SVGID_251_);}
	.st135{fill:url(#SVGID_252_);}
	.st136{fill:url(#SVGID_253_);}
	.st137{fill:url(#SVGID_254_);}
	.st138{fill:#262D62;}
	.st139{clip-path:url(#SVGID_256_);fill:url(#SVGID_257_);}
	.st140{clip-path:url(#SVGID_256_);fill:#3F424D;}
	.st141{clip-path:url(#SVGID_256_);}
	.st142{fill:url(#SVGID_258_);}
	.st143{opacity:5.000000e-02;enable-background:new    ;}
	.st144{opacity:0.1;fill:#E7552C;}
	.st145{opacity:0.13;clip-path:url(#SVGID_260_);fill:#FFFFFF;}
	.st146{opacity:0.13;fill:#FFFFFF;}
	.st147{opacity:0.98;fill:#FFFFFF;}
	.st148{clip-path:url(#SVGID_262_);}
	.st149{fill:#315798;}
	.st150{fill:#5381C1;}
	.st151{fill:#AFCAE0;}
	.st152{clip-path:url(#SVGID_266_);}
	.st153{fill:#2A4778;}
	.st154{fill:#B2626E;}
	.st155{fill:#95726B;}
	.st156{fill:#9B5864;}
	.st157{fill:#595BA7;}
	.st158{fill:#FABFA6;}
	.st159{fill:#6867AE;}
	.st160{fill:#F3C8C7;}
</style>
<g id="Layer_1">
</g>
<g id="Layer_2">
</g>
<g id="Layer_3">
	<g>
		<g>
			<defs>
				<path id="SVGID_238_" d="M396.4,284.6c-10,2.9-19.7,6.6-28.8,11.8c-0.7,0.4-1.4,0.8-2.2,1.3c-0.7,0.4-1.4,0.9-2.1,1.3
					s-1.4,0.9-2.1,1.4l-1.1,0.7c-0.3,0.2-0.7,0.5-1,0.7c-1,0.7-2,1.4-3,2.1l0,0c-0.7,0.5-1.3,1-2,1.4c-3.7,2.8-7.4,5.7-11,8.6
					l-2.3,1.8c-1.2,0.9-2.4,1.9-3.6,2.8c-0.7,0.6-1.4,1.1-2.1,1.6c-0.5,0.4-1,0.8-1.5,1.2c-2.6,2-5.2,4-7.9,5.8
					c-0.6,0.4-1.3,0.9-1.9,1.3c-5.4,3.7-11.1,6.8-17,9.4l-0.1,0c-2.9,1.3-6,2.3-9.1,3.1c-1.8,0.5-3.5,0.9-5.3,1.2
					c-4.8,0.8-9.7,0.9-14.5,0.2c-9.4-1.3-18.3-5.8-27.7-7.2c-19.4-3-38.3,6.7-56.6,14.3c-4.5,1.9-9,3.6-13.6,5.3
					c-3,1.1-6.1,2.1-9.1,3.1c-18.6,6-37.8,10.1-57.3,12.3c-7.9,0.9-16.2,1.3-24.3,0.7c-3.1-0.2-6.1-0.6-9.1-1.2
					c-10.2-1.9-19.8-6-27.5-13.4c-6.4-6.1-10.9-14-14.4-22.3c-1.4-3.3-2.6-6.7-3.7-10.2c-1.7-5.5-2.9-11-3.7-16.7
					c-0.2-1.3-0.4-2.6-0.5-3.8c-0.2-2.2-0.4-4.4-0.6-6.6c-0.7-11.8,0.5-23.6,3.4-35c3.3-12.7,8.7-24.8,11.1-37.5
					c0.1-0.5,0.2-1.1,0.3-1.6c0.3-1.9,0.6-3.9,0.7-5.9c1.2-15.6-3.5-30.9-7.2-46.2c-0.1-0.5-0.3-1.1-0.4-1.6
					c-0.4-1.7-0.8-3.4-1.1-5.1c-3.4-16.2-4.4-33.5-1.3-49.7c0.1-0.5,0.2-1.1,0.3-1.6c2-10,5.7-19.5,11.2-28
					C52.6,75.8,60,68.6,68,62.2c3.9-3.1,7.9-6,12-8.7c3-1.9,6-3.8,9.1-5.5c25-13.9,53.5-20.7,81.6-19.2c1.5,0.1,3,0.2,4.5,0.3
					c1.6,0.1,3.1,0.3,4.7,0.5c18.1,2.1,35.8,7.3,53.3,13c5.9,1.9,11.7,3.8,17.6,5.8c2.6,0.9,5.2,1.7,7.8,2.5
					c12.8,4,25.8,7.7,38.9,10.4c3,0.6,6.1,1.2,9.1,1.7c10.5,1.9,21.2,3,31.9,3.3c4.2,0.1,8.3,0.1,12.5-0.1c2.1-0.1,4.2-0.2,6.3-0.4
					c21.7-1.9,50.1,2.4,72.9,27.8C470.3,138.3,446.5,267,396.4,284.6z"/>
			</defs>
			<clipPath id="SVGID_2_">
				<use xlink:href="#SVGID_238_"  style="overflow:visible;"/>
			</clipPath>
			<path style="opacity:0.3;clip-path:url(#SVGID_2_);fill:#324E91;enable-background:new    ;" d="M363.1,222.7h-1.6v0.7v0.9h1.9
				L363.1,222.7z M344.6,222.7C344.6,222.7,344.6,222.7,344.6,222.7l-0.1,1.4v0.1v0.1h14.2v-0.1l1-1.5H344.6z M306.7,222.7v-52.1
				H323c-0.2-0.1-0.3-0.3-0.5-0.4l-0.2-0.2c-0.1-0.1-0.2-0.2-0.3-0.2c-0.1-0.1-0.4-0.3-0.5-0.4s-0.3-0.2-0.5-0.3l-0.1-0.1h0h-14.1
				v-2.9l-0.4,0.2l-0.4,0.2h0l-0.1,0.1l-0.2,0.2c-0.1,0.1-0.2,0.1-0.3,0.2c-0.2,0.2-0.5,0.3-0.7,0.5l-0.2,0.2
				c-0.2,0.1-0.3,0.3-0.5,0.4c-0.6,0.5-1.3,1.1-1.9,1.6c-0.2,0.1-0.3,0.3-0.5,0.4c-0.3,0.3-0.7,0.5-1.1,0.7
				c-0.2,0.1-0.3,0.2-0.5,0.3l-0.3,0.1l-0.2,0.1l0,0c-0.6,0.2-1.2,0.4-1.8,0.6v50.9h-24.4c0,0.1,0,0.1,0,0.2c0.1,0.5,0.3,1,0.4,1.4
				h24v55.8h0.4l0.4,0l0.8,0.1l1.3,0.1l0.6,0.1l0.6,0.1h0.1c0.4,0,0.7,0.1,1.1,0.2l0.2,0l0.5,0.1l0.8,0.1l0,0l1.8-0.1l0,0l0.2,0.1
				c0.1,0,0.2,0,0.3,0.1v-56.6h37.8v-0.1V224l0.1-1.3c0,0,0,0,0,0L306.7,222.7z M363.1,222.7h-1.6v0.7v0.9h1.9L363.1,222.7z
				 M343.6,222.7l-0.2,1.6h15.8l1.1-1.6H343.6z M306.7,222.7v-52.1H323c-0.2-0.1-0.3-0.3-0.5-0.4l-0.2-0.2c-0.1-0.1-0.2-0.2-0.3-0.2
				c-0.1-0.1-0.4-0.3-0.5-0.4c-0.2-0.1-0.3-0.2-0.5-0.3l-0.1-0.1h0h-14.1v-2.9l-0.4,0.2l-0.4,0.2h0l-0.1,0.1l-0.2,0.2
				c-0.1,0.1-0.2,0.1-0.3,0.2c-0.2,0.2-0.5,0.3-0.7,0.5l-0.2,0.2c-0.2,0.1-0.3,0.3-0.5,0.4c-0.6,0.5-1.3,1.1-1.9,1.6
				c-0.2,0.1-0.3,0.3-0.5,0.4c-0.3,0.3-0.7,0.5-1.1,0.7c-0.2,0.1-0.3,0.2-0.5,0.3l-0.3,0.1l-0.2,0.1l0,0c-0.6,0.2-1.2,0.4-1.8,0.6
				v50.9h-24.4c0,0.1,0,0.1,0,0.2c0.1,0.5,0.3,1,0.4,1.4h24v55.8l0.4,0l0.4,0l0.8,0.1l1.3,0.1l0.6,0.1l0.6,0.1h0.1
				c0.4,0,0.7,0.1,1.1,0.2l0.2,0l0.5,0.1l0.8,0.1l0,0l1.8-0.1l0,0l0.2,0.1c0.1,0,0.2,0,0.3,0.1v-56.7h36.8l0.2-1.6H306.7z
				 M430.2,114.2h22.5c0-0.5,0-1.1,0-1.6h-22.4V65.4c-3,0.8-6.1,1.7-9.1,2.5v44.7H309.4l-0.3-0.3l0.4-0.5l0,0l41.5-45.6
				c-4.2,0.2-8.3,0.2-12.5,0.1l-31.9,35V63c-3-0.5-6.1-1.1-9.1-1.7v38.3l-46.7-51.2c-5.9-1.9-11.7-3.9-17.6-5.8l63.5,69.7l-0.3,0.3
				H179.9V29.6c-1.6-0.2-3.1-0.3-4.7-0.5c-1.5-0.1-3-0.2-4.5-0.3v83.7H89.2V48c-3.1,1.7-6.1,3.6-9.1,5.5v59H35.7
				c-0.1,0.5-0.2,1.1-0.3,1.6H80v54.8H37.8c0.1,0.5,0.3,1.1,0.4,1.6H80v52.1H44.6c-0.1,0.5-0.2,1.1-0.3,1.6H80v145.7
				c3,0.6,6.1,1,9.1,1.2V224.3h81.7v133.9c3.1-1,6.1-2,9.1-3.1V224.3h117.6v117c3.1-0.8,6.1-1.9,9.1-3.1l0.1,0V224.3h114.4v54.9
				c3-0.5,6.1-1.1,9.1-1.6v-53.3h17.1c0.3-0.5,0.5-1.1,0.8-1.6h-17.9v-52.1h34.4c0.1-0.5,0.2-1.1,0.3-1.6h-34.7V114.2z M89.2,114.2
				h81.6v54.8H89.2L89.2,114.2z M89.2,222.7v-52.1h81.6v52.1H89.2z M179.9,114.2h117.6v54.8H179.9L179.9,114.2z M179.9,222.7v-52.1
				h117.6v52.1H179.9z M421.1,222.7H306.7v-52.1h114.4L421.1,222.7z M421.1,169H306.7v-53.3l1.6-1.5h112.8L421.1,169z M344.6,222.7
				C344.6,222.7,344.6,222.7,344.6,222.7l-0.1,1.4v0.1v0.1h14.2v-0.1l1-1.5H344.6z M363.2,222.7h-1.6v0.7v0.9h1.9L363.2,222.7z
				 M306.7,222.7v-52.1H323c-0.2-0.1-0.3-0.3-0.5-0.4l-0.2-0.2c-0.1-0.1-0.2-0.2-0.3-0.2c-0.1-0.1-0.4-0.3-0.5-0.4
				c-0.2-0.1-0.3-0.2-0.5-0.3l-0.1-0.1h0h-14.1v-2.9l-0.4,0.2l-0.4,0.2h0l-0.1,0.1l-0.2,0.2c-0.1,0.1-0.2,0.1-0.3,0.2
				c-0.2,0.2-0.5,0.3-0.7,0.5l-0.2,0.2c-0.2,0.1-0.3,0.3-0.5,0.4c-0.6,0.5-1.3,1.1-1.9,1.6c-0.2,0.1-0.3,0.3-0.5,0.4
				c-0.3,0.3-0.7,0.5-1.1,0.7c-0.2,0.1-0.3,0.2-0.5,0.3l-0.3,0.1l-0.2,0.1l0,0c-0.6,0.2-1.2,0.4-1.8,0.6v50.9h-24.4
				c0,0.1,0,0.1,0,0.2c0.1,0.5,0.3,1,0.4,1.4h24v55.8h0.4l0.4,0l0.8,0.1l1.3,0.1l0.6,0.1l0.6,0.1h0.1c0.4,0,0.7,0.1,1.1,0.2l0.2,0
				l0.5,0.1l0.8,0.1l0,0l1.8-0.1l0,0l0.2,0.1c0.1,0,0.2,0,0.3,0.1v-56.6h37.8v-0.1V224l0.1-1.3c0,0,0,0,0,0L306.7,222.7z"/>
		</g>
		<path class="st111" d="M396.4,284.7c-10,2.9-19.7,6.6-28.8,11.8c-0.7,0.4-1.4,0.8-2.2,1.3c-0.7,0.4-1.4,0.9-2.1,1.3
			c-0.7,0.5-1.4,0.9-2.1,1.4l-1.1,0.7c-0.3,0.2-0.7,0.5-1,0.7c-1,0.7-2,1.4-3,2.1l0,0c-0.7,0.5-1.3,1-2,1.4c-3.7,2.8-7.4,5.7-11,8.6
			l-2.3,1.8c-1.2,0.9-2.4,1.9-3.6,2.8c-0.7,0.6-1.4,1.1-2.1,1.6c-0.5,0.4-1,0.8-1.5,1.2c-2.6,2-5.2,4-7.9,5.8
			c-0.6,0.4-1.3,0.9-1.9,1.3c-5.4,3.7-11.1,6.8-17,9.4l-0.1,0c-2.9,1.3-6,2.3-9.1,3.1c-1.8,0.5-3.5,0.9-5.3,1.2
			c-4.8,0.8-9.7,0.9-14.5,0.2c-9.4-1.3-18.3-5.8-27.7-7.2c-19.4-3-38.3,6.7-56.6,14.3c-4.5,1.9-9,3.6-13.6,5.3
			c-3,1.1-6.1,2.1-9.1,3.1c-18.6,6-37.8,10.1-57.3,12.3c-7.9,0.9-16.2,1.3-24.3,0.7c-3.1-0.2-6.1-0.6-9.1-1.2
			c-10.2-1.9-19.8-6-27.5-13.4c-6.4-6.1-10.9-14-14.4-22.3c-1.4-3.3-2.6-6.7-3.7-10.2c-1.7-5.5-2.9-11-3.7-16.7
			c-0.2-1.3-0.4-2.6-0.5-3.8c-0.2-2.2-0.4-4.4-0.6-6.6c-0.7-11.8,0.5-23.6,3.4-35c3.3-12.7,8.7-24.8,11.1-37.5
			c0.1-0.5,0.2-1.1,0.3-1.6c0.3-1.9,0.6-3.9,0.7-5.9c1.2-15.6-3.5-30.9-7.2-46.2c-0.1-0.5-0.3-1.1-0.4-1.6c-0.4-1.7-0.8-3.4-1.1-5.1
			c-3.4-16.2-4.4-33.5-1.3-49.7c0.1-0.5,0.2-1.1,0.3-1.6c2-10,5.7-19.5,11.2-28C52.6,75.8,60,68.6,68,62.2c3.9-3.1,7.9-6,12-8.7
			c3-1.9,6-3.8,9.1-5.5c25-13.9,53.5-20.7,81.6-19.2c1.5,0.1,3,0.2,4.5,0.3c1.6,0.1,3.1,0.3,4.7,0.5c18.1,2.1,35.8,7.3,53.3,13
			c5.9,1.9,11.7,3.8,17.6,5.8c2.6,0.9,5.2,1.7,7.8,2.5c12.8,4,25.8,7.7,38.9,10.4c3,0.6,6.1,1.2,9.1,1.7c10.5,1.9,21.2,3,31.9,3.3
			c4.2,0.1,8.3,0.1,12.5-0.1c2.1-0.1,4.2-0.2,6.3-0.4c21.7-1.9,50.1,2.4,72.9,27.8C470.3,138.4,446.5,267,396.4,284.7z"/>
		<path class="st112" d="M128.4,76.5h0.7c-0.5-0.3-0.8-0.8-0.9-1.4l0,0c0-1.1,1.4-2,3-2h21.2c1.7,0,3,0.9,3,2l0,0c0,1.1-1.4,2-3,2
			h-0.7c0.5,0.3,0.8,0.8,0.9,1.4c0,1-1,1.7-2.3,2h6.1c1.7,0,3,0.9,3,2c0,1.1-1.4,2-3,2h-21.2c-1.7,0-3-0.9-3-2c0-1,1-1.7,2.3-2h-6.1
			c-1.7,0-3-0.9-3-2S126.7,76.5,128.4,76.5z"/>
		<path class="st112" d="M357.8,95.7h0.7c-0.5-0.3-0.8-0.8-0.9-1.4l0,0c0-1.1,1.4-2,3-2h21.2c1.7,0,3,0.9,3,2l0,0c0,1.1-1.4,2-3,2
			h-0.7c0.5,0.3,0.8,0.8,0.9,1.4c0,1-1,1.7-2.3,2h6.1c1.7,0,3,0.9,3,2s-1.4,2-3,2h-21.2c-1.7,0-3-0.9-3-2c0-1,1-1.7,2.3-2h-6.1
			c-1.7,0-3-0.9-3-2S356.2,95.7,357.8,95.7z"/>
		<path class="st112" d="M95.9,177.9h0.7c-0.5-0.3-0.8-0.8-0.9-1.4l0,0c0-1.1,1.4-2,3-2H120c1.7,0,3,0.9,3,2l0,0c0,1.1-1.4,2-3,2
			h-0.7c0.5,0.3,0.8,0.8,0.9,1.4c0,1-1,1.7-2.3,2h6.1c1.7,0,3,0.9,3,2c0,1.1-1.4,2-3,2h-21.2c-1.7,0-3-0.9-3-2c0-1,1-1.7,2.3-2h-6.1
			c-1.7,0-3-0.9-3-2S94.3,177.9,95.9,177.9z"/>
		<path class="st113" d="M340.7,315.9c-1.2,0.9-2.4,1.9-3.6,2.8c-0.7,0.6-1.4,1.1-2.1,1.6c-0.5,0.4-1,0.8-1.5,1.2
			c-2.6,2-5.2,4-7.9,5.8c-0.6,0.4-1.3,0.9-1.9,1.3c-5.4,3.7-11.1,6.8-17,9.4l-0.1,0v-22.2H340.7z"/>
		
			<linearGradient id="SVGID_4_" gradientUnits="userSpaceOnUse" x1="355.319" y1="58.4072" x2="355.319" y2="234.344" gradientTransform="matrix(1 0 0 -1 -70.44 346.1431)">
			<stop  offset="0" style="stop-color:#BC4C31;stop-opacity:0.25"/>
			<stop  offset="0.54" style="stop-color:#BC4C31;stop-opacity:0.12"/>
			<stop  offset="1" style="stop-color:#BC4C31;stop-opacity:0.1"/>
		</linearGradient>
		<path style="fill:url(#SVGID_4_);" d="M394.1,228.6l0.5-16.6c-0.3-0.2-0.6-0.5-1-0.7c0.1-4.9-0.1-9.9-0.8-14.8
			c-2.2-16.6-16.2-16.9-20.2-13.5c-0.5,0.5-1.1,0.8-1.7,1.2c0.4-2.4,0.8-4.7,1.1-7.1c1.7-12.6-1-26.8-10.7-35
			c-4.1-3.4-9.1-5.5-13.6-8.4c-8.1-5.1-14.4-12.6-22.6-17.6c-8.2-5-19.6-6.8-26.7-0.4c-2.8,2.5-4.5,5.9-7.4,8.3
			c-5.3,4.4-13.5,4.7-18.1,9.7l0,0c-0.2,0.2-0.5,0.5-0.7,0.8c-3.8,4.9-2.8,11.9-1.6,18c1.5,7.3,0.9,13.2,7.2,15.3
			c0,0.3,0,0.6,0.1,0.9c1,9.1,6,17.3,13.7,22.4l-1,0.4c-2.7,1-5.2,1.9-6.7,2.5c-5.8,2.3-17.9,5.4-17.9,5.4s-0.3,3.5-0.2,8.5
			c-4,4.4-10.8,12.1-12.8,16.7c-2.9,6.7-19.1,25.7-23.5,28.6c-4.3,2.9-9,6.3-9,6.3s-6.9,3.8-10.1,4.1c-2.2,0.2-9.2-1.1-9.2-1.1
			s-27.8-34-26-7.9s24,27,24,27l22.4-0.4c0,0,12.1,1.6,17.5-2.9c4.6-3.8,28.6-24.9,36.3-34.4c0.2,0.2,0.4,0.4,0.5,0.6
			c0,0,3.1-4,3.4,0s-2,5.8-0.7,7.2c1.3,1.4,5.1,6.5,5.2,8.5c0.2,2-5,10.1,3.8,16.2c0.1,0.1,0.3,0.2,0.5,0.3c1.6,3.6,6.6,7.1,6.6,7.1
			l27.1-0.4l51.1,4c0,0,1.5-1.3,3.6-3.5c2.7,2.5,6.6,4.7,10.9,3.4c0,0,6.1-7.4,6.3-12.2c0,0-4-10.3-5.8-13.3
			c-1.8-3.1,1.3-9.7,1.3-9.7s2.2-6.5,3.4-6.5s0.4-4.3,0.4-4.3c-1-1.4-1.2-3.3-0.5-4.9C393.4,233.7,394.1,228.6,394.1,228.6z"/>
		<path class="st103" d="M363.5,224.9l-1.9,2.2l0,0l-7.7,9l-10.1,0.6l-16.2,1c0,0-21.8-26.3-17.7-32c1.5-2.1,1.7-4.8,1.4-7.4
			c0-0.4-0.1-0.7-0.2-1.1c-0.5-2.7-1.3-5.4-2.6-7.9l0.5-0.2l0.3-0.2l19.1-8.7l4.7-2.2c0.2,1.3,0.7,2.6,1.3,3.7
			c0.1,0.2,0.2,0.4,0.3,0.5c6.5,10.8,27.4,4,27.4,4L363.5,224.9z"/>
		<path class="st103" d="M391.7,211.4c-0.1,6.5-1.2,9.3-1.2,9.3l-27,4.1l-1-7l-4-27.7l3.8-3.8c3,0.7,6.2-0.1,8.6-2.1
			c3.9-3.4,17.9-3,20,13.4C391.5,202.2,391.8,206.8,391.7,211.4z"/>
		<path class="st115" d="M385.3,287.9c0,0,6.1-7.3,6.3-12.2l-6.1-10.2l-5.4-5.8l-10,19.4C370.1,279.1,376.7,290.6,385.3,287.9z"/>
		<path class="st96" d="M385.3,287.9c0,0,6.1-7.3,6.3-12.2l-6.1-10.2l-5.4-5.8l-10,19.4C370.1,279.1,376.7,290.6,385.3,287.9z"/>
		<path class="st116" d="M335.1,320.4c-0.5,0.4-1,0.8-1.5,1.2c-2.6,2-5.2,4-7.9,5.8c-0.6,0.4-1.3,0.9-1.9,1.3h-26.2H179.9h-9.1
			l-45.2-1.6l-36.4-0.3l-9.1-0.5l-45.4-2.4c-1.7-5.5-2.9-11.1-3.7-16.7c-0.2-1.3-0.4-2.6-0.5-3.8l49.7,2.8l9.1,0.5l81.6,4.6l9.1,0.5
			l117.6,6.6l9.1,0.5h0.1L335.1,320.4z"/>
		<path class="st99" d="M396.4,284.7c-10,2.9-19.7,6.6-28.8,11.8c-0.7,0.4-1.4,0.8-2.2,1.3c-0.7,0.4-1.4,0.9-2.1,1.3
			c-0.7,0.5-1.4,0.9-2.1,1.4l-1.1,0.7l-1,0.7c-1,0.7-2,1.4-3,2.1l0,0c-0.7,0.5-1.3,1-2,1.4c-3.7,2.8-7.4,5.7-11,8.6
			c-0.8,0.6-1.5,1.2-2.3,1.8l-3.5,2.8c-0.7,0.6-1.4,1.1-2.1,1.6c-0.5,0.4-1,0.8-1.5,1.2l-26.8-1.3h-0.1l-9.1-0.4l-117.7-5.6
			l-9.1-0.4L89.2,310l-9.1-0.4l-49.2-2.3c-0.2-1.3-0.4-2.6-0.5-3.8c-0.2-2.2-0.4-4.4-0.6-6.6L80.1,279l9.1-3.2l8.3-2.9l15.1,0.8
			l34.8,1.8l0,0l23.5,1.2l9.1,0.5l5.8,0.3l0,0l1.4,0.1l0,0l49.1,2.6l0,0l0.5,0l0,0l21.9,1.1h0.2h0.1l0,0l2.2,0.1l0,0l7.5,0.4
			l9.3,0.5l0,0l3.1,0.2l0,0l0.6,0l4.4,0.2l0,0l1.2,0.1l0,0l4.2,0.2l0,0l1.7,0.1h0.1h0.3l0,0l3.9,0.2l6,0.3h0l1.9,0.1h0.2l1.1,0.1
			l2.7,0.1l0,0l2.4,0.1h0l2.7,0.1h0l2,0.1l0,0l1.6,0.1l5.5,0.3l0,0l1,0.1h0.3l0.5,0l0,0l1.6,0.1l0,0l0.7,0l0,0l5.7,0.3h0.5l8.4-0.1
			h0.1l31.8-0.3l0,0h0.6h0.6h1.9l0,0l10.2-0.1h1.5L396.4,284.7z"/>
		<path class="st117" d="M182.1,285.4l3,15.7l80.3-1.2c0,0,6,1.7,5.9-3.1c0,0,12.2-11.5,74.1,1.9L321.6,280l-65,3.5l-75.3-2
			L182.1,285.4z"/>
		<path class="st23" d="M183.6,281.6l2.8,17.1c0,0,69-2,79.9-0.1l-8.2-15.6C258.1,282.9,216.4,279,183.6,281.6z"/>
		<path class="st23" d="M184.6,281.5l2.8,15.9c0,0,68.2-1.9,78.9-0.1l-8.1-14.5C258.2,282.8,217,279.2,184.6,281.5z"/>
		<path class="st23" d="M186.4,281.5l2.7,14.9c0,0,66.7-1.7,77.2-0.1l-7.9-13.6C258.4,282.7,218.1,279.3,186.4,281.5z"/>
		<path class="st103" d="M193,261.6c0,0-9.3-9-9,2.7C184.5,275.9,193,261.6,193,261.6z"/>
		<path class="st103" d="M276.6,241.2c-0.2,0.9-1.2,2.4-2.8,4.3c-8.1,9.7-31,29.9-35.5,33.7C233,283.6,221,282,221,282l-22.2,0.4
			c0,0-22-0.9-23.8-26.8s25.8,7.9,25.8,7.9s6.9,1.3,9.1,1.1c3.2-0.4,10-4.1,10-4.1s4.7-3.4,9-6.3c4.3-2.9,20.4-21.8,23.3-28.5
			c1.8-4.2,7.7-11.1,11.7-15.5c2.3-2.6,4-4.3,4-4.3S277.9,235.6,276.6,241.2z"/>
		<path class="st96" d="M276.6,241.2c-0.2,0.9-1.2,2.4-2.8,4.3c-8.1-8.3-9.9-24.9-10-35.4c2.3-2.6,4-4.3,4-4.3
			S277.9,235.6,276.6,241.2z"/>
		<path class="st96" d="M361.5,227.1L361.5,227.1l-7.7,9l-10.1,0.6l-16.2,1c0,0-21.8-26.3-17.7-32c1.5-2.1,1.7-4.8,1.4-7.4
			c0-0.4-0.1-0.7-0.2-1.1c-0.5-2.7-1.3-5.4-2.6-7.9l0.5-0.2l0.3-0.2c0.9,2.4,1.4,4.8,1.8,7.3c0.1,0.3,0.1,0.7,0.1,1.1
			c0.2,1.3,0.3,2.7,0.5,4.3c1.2,14.5,10.4,19.9,14.5,21.7c1.3,0.6,2.6,1.2,3.9,1.9c4,2.2,8.5,3,13,2.3c10.2-1.3,18.4-8.7,18.4-8.7
			l0,7.3L361.5,227.1z"/>
		<path class="st115" d="M361.9,283.4c0,0-66.6-0.2-75.4-6.3c-8.8-6.1-3.6-14.1-3.8-16.1c-0.2-2-3.9-7-5.2-8.4s1.1-3.2,0.7-7.2
			c-0.4-3.9-3.4,0-3.4,0c-12.5-12.7-9.9-44.9-9.9-44.9s12-3,17.7-5.4c1.6-0.6,4-1.5,6.7-2.5l1-0.4c7-2.5,15.4-5.4,15.4-5.4
			s1.6-1.1,3.2,2.3c0.7,1.6,1.5,4.1,2.1,8.1c0.1,0.3,0.1,0.7,0.1,1.1c0.2,1.3,0.3,2.7,0.5,4.3c1.2,14.5,10.4,19.9,14.5,21.7
			c1.3,0.6,2.6,1.2,3.9,1.9c4,2.2,8.5,3,13,2.3c10.2-1.3,18.4-8.7,18.4-8.7l0,7.3l0.1,21.8L361.9,283.4z"/>
		<path class="st103" d="M359,255.1l-1.1,6.8c0,0-26.5,6.6-36.9,8.6c-10.4,2-32.8-0.5-34.4,3.8c-1.6,4.3,6.8,10.2,6.8,10.2l26.8-0.4
			l50.7,3.9c0,0,19.3-17,13.1-28.8C377.8,247.4,359,255.1,359,255.1z"/>
		<path class="st96" d="M304.4,201.4c0,0-12.2,10-9.8,14.9S304.4,201.4,304.4,201.4z"/>
		<path class="st96" d="M289.4,219.5c0,0-12.4,21.3-11.6,22.9c0.7,1.6,4.1,7.3,3.9,3C281.5,241.2,289.4,219.5,289.4,219.5z"/>
		<path class="st96" d="M294.4,223.3c0,0-2.9,13.2-5.7,18.8S294.4,223.3,294.4,223.3z"/>
		<path class="st96" d="M334.8,182.4c-4.8,8.8-13.6,14.7-23.5,15.9h-0.1c-7.7,0.9-15.5-1.1-21.8-5.7c7.2-2.6,16.4-5.7,16.4-5.7
			s1.6-1.1,3.2,2.3l24.2-11C333.5,179.7,334,181.1,334.8,182.4z"/>
		<path class="st103" d="M338.6,166.5c0,5.4-1.4,10.7-4.1,15.4c-1.3,2.2-2.8,4.3-4.6,6.1c-5,5.2-11.6,8.5-18.8,9.3h-0.1
			c-1.1,0.1-2.3,0.2-3.4,0.2c-15.8,0-29-11.8-30.8-27.5c-0.1-1.2-0.2-2.3-0.2-3.5c0-17.1,13.9-31,31-31
			C324.7,135.6,338.6,149.4,338.6,166.5L338.6,166.5z"/>
		<path class="st96" d="M358.6,225.1l2.9-4.3c0,0,15.8-18.8,31.2-6.8l-0.5,16.5c0,0-0.7,5-1.8,7.7c-0.6,1.6-0.4,3.4,0.5,4.8
			c0,0,0.9,4.3-0.4,4.3s-3.4,6.4-3.4,6.4s-3,6.6-1.3,9.7s5.7,13.2,5.7,13.2s-6.3-3.8-8.1-10c0,0-15.2-11.8-27-4.3L358.6,225.1z"/>
		<path class="st96" d="M391.7,211.4c-0.1,6.5-1.2,9.3-1.2,9.3l-27,4.1l-1-7C366,214.2,378.9,202.4,391.7,211.4z"/>
		<path class="st115" d="M358.6,224.2l2.9-4.3c0,0,15.8-18.8,31.2-6.8l-0.5,16.5c0,0-0.7,5-1.8,7.7c-0.6,1.6-0.4,3.4,0.5,4.8
			c0,0,0.9,4.3-0.4,4.3s-3.4,6.4-3.4,6.4s-3,6.6-1.3,9.7s5.7,13.2,5.7,13.2s-6.3-3.8-8.1-10c0,0-15.2-11.8-27-4.3L358.6,224.2z"/>
		<path class="st96" d="M384.1,212c0,0-26,15.9-24.7,29.9C359.4,241.9,373.9,216.3,384.1,212z"/>
		<path class="st96" d="M361.5,227.1l0.1,21.8c-4.9,0.2-9.5-0.4-13.2-3.6c-2.5-2.2-4-5.3-4.8-8.6c-0.6-2.7-0.8-5.4-0.6-8.1
			c0,0,0-0.1,0-0.1c0.3-6,1.7-12.1,1-18s-4.4-12.3-10.3-13.6c-1.2-0.3-2.5-0.3-3.3-1.2c-0.9-1-0.9-2.4-0.8-3.8l0.2-2.2
			c0-0.6,0.1-1.1,0.1-1.7c0-10.5-7.4-19.5-17.7-21.5l-0.2,0c-1.7-0.3-3.4-0.7-5.1-0.3c-3.2,0.7-5.2,3.8-8.1,5.3
			c-5.6,2.8-15-0.3-20.8-1.2c-0.4-0.1-0.7-0.1-1.1-0.2c-0.1-1.2-0.2-2.3-0.2-3.5c0-17.1,13.9-31,31-31s31,13.9,31,31
			c0,5.4-1.4,10.7-4.1,15.3c0.1,0.2,0.2,0.4,0.3,0.5c6.5,10.8,27.4,4,27.4,4l1.3,38.5L361.5,227.1z"/>
		<path class="st100" d="M299.8,170.9c2.9-1.5,5-4.5,8.1-5.3c1.7-0.4,3.4-0.1,5.1,0.3l0.2,0c10.9,2.2,18.5,12.2,17.7,23.3l-0.2,2.2
			c-0.1,1.3-0.1,2.8,0.8,3.8c0.8,0.9,2.1,1,3.3,1.2c5.9,1.3,9.6,7.6,10.3,13.6c0.7,6-0.7,12.1-1,18.1c-0.3,6,0.8,12.7,5.4,16.7
			c7.2,6.2,18.1,2.7,27.6,2.1c-4.2,0-7.4-4.3-7.6-8.5s1.6-8.2,3.4-12s3.6-7.9,3.2-12.1c-0.5-5.8-5.1-10.4-6.8-15.9
			c-2-6.4-0.1-13.4,0.8-20.1c1.7-12.5-1-26.7-10.7-34.8c-4.1-3.4-9-5.5-13.5-8.3c-8-5.1-14.3-12.5-22.4-17.5
			c-8.1-4.9-19.5-6.8-26.5-0.4c-2.7,2.4-4.5,5.8-7.3,8.2c-5.5,4.6-14.2,4.7-18.6,10.4c-3.8,4.9-2.8,11.8-1.5,17.9
			c1.6,8.1,0.7,14.4,9.3,15.8C284.9,170.7,294.2,173.7,299.8,170.9z"/>
		<path class="st96" d="M371.1,243.1c-6.9,0.8-13.8,1.3-18.8-3.1c-4.6-4-5.7-10.6-5.4-16.7c0.3-6.1,1.7-12.1,1-18.1
			c-0.7-6-4.4-12.3-10.3-13.6c-1.2-0.2-2.5-0.3-3.3-1.2c-0.9-1-0.9-2.5-0.8-3.8l0.2-2.2c0.9-11.1-6.7-21.1-17.7-23.3l-0.2,0
			c-1.7-0.3-3.4-0.7-5.1-0.3c-3.2,0.7-5.2,3.8-8.1,5.3c-5.6,2.8-15-0.3-20.8-1.2c-8.6-1.4-7.7-7.7-9.3-15.8
			c-0.9-4.5-1.7-9.5-0.5-13.8c-0.2,0.2-0.5,0.5-0.7,0.8c-3.8,4.9-2.8,11.8-1.5,17.9c1.6,8.1,0.7,14.4,9.3,15.8
			c5.9,1,15.2,4,20.8,1.2c2.9-1.5,5-4.5,8.1-5.3c1.7-0.4,3.4-0.1,5.1,0.3l0.2,0c10.9,2.2,18.5,12.2,17.7,23.3l-0.2,2.2
			c-0.1,1.3-0.1,2.8,0.8,3.8c0.8,0.9,2.1,1,3.3,1.2c5.9,1.3,9.6,7.6,10.3,13.6c0.7,6-0.7,12.1-1,18.1s0.8,12.7,5.4,16.7
			c7.2,6.2,18.1,2.7,27.6,2.1C374.6,247,372.4,245.3,371.1,243.1z"/>
		<path class="st113" d="M176.5,259.1l29.6-11c1.5-0.5,3.1,0.2,3.6,1.6l0,0c0.5,1.5-0.2,3.1-1.6,3.6l-29.6,11l-6.3-0.6L176.5,259.1z
			"/>
		<path class="st118" d="M208.8,248.8L208.8,248.8c0.5,1.5-0.2,3.1-1.7,3.6l-29.6,11.1l-4.8-0.5l-0.7,0.7l6.3,0.6l29.6-11
			c1.5-0.5,2.2-2.2,1.6-3.6l0,0c-0.2-0.6-0.6-1.1-1.2-1.4C208.6,248.5,208.7,248.6,208.8,248.8z"/>
		<polygon class="st101" points="176.5,259.1 178.5,264.3 173.3,263.8 172.1,263.7 173.7,262.1 		"/>
		<path class="st115" d="M173.7,262c0.1,0.1,0.2,0.2,0.3,0.3c0.1,0.2,0.1,0.4,0,0.5c-0.1,0.1-0.2,0.2-0.3,0.2
			c-0.2,0.2-0.4,0.4-0.4,0.7l-1.1-0.1L173.7,262z"/>
		<path class="st23" d="M269.3,292.7c0,0,25.6-5.4,68.6,1.4L321,281.8l-30.6-6.3l-21.7,5.8L269.3,292.7z"/>
		<path class="st23" d="M266.3,298.5c0,0,12.9-34.9,79.1,0.1l-23.8-15.3c0,0-56.9-15.7-63.5,2.4L266.3,298.5z"/>
		<path class="st23" d="M266.3,298.5c0,0,12.9-42.6,79.1,0.1L321.6,280c0,0-56.9-19.2-63.5,3L266.3,298.5z"/>
	</g>
</g>
<g id="Layer_4">
</g>
<g id="Layer_5">
</g>
<g id="Layer_6">
</g>
<g id="Layer_7">
</g>
</svg>
