<?xml version="1.0" encoding="utf-8"?>
<!-- Generator: Adobe Illustrator 24.1.1, SVG Export Plug-In . SVG Version: 6.00 Build 0)  -->
<svg version="1.1" xmlns="http://www.w3.org/2000/svg" xmlns:xlink="http://www.w3.org/1999/xlink" x="0px" y="0px"
	 viewBox="0 0 564.7 400" style="enable-background:new 0 0 564.7 400;" xml:space="preserve">
<style type="text/css">
	.st0{clip-path:url(#SVGID_2_);}
	.st1{clip-path:url(#SVGID_6_);}
	.st2{clip-path:url(#SVGID_10_);}
	.st3{fill:#EBEBF3;}
	.st4{clip-path:url(#SVGID_14_);}
	.st5{fill:#DBDCE9;}
	.st6{clip-path:url(#SVGID_18_);}
	.st7{clip-path:url(#SVGID_22_);}
	.st8{clip-path:url(#SVGID_26_);}
	.st9{clip-path:url(#SVGID_30_);}
	.st10{clip-path:url(#SVGID_34_);}
	.st11{clip-path:url(#SVGID_38_);}
	.st12{clip-path:url(#SVGID_42_);}
	.st13{clip-path:url(#SVGID_46_);}
	.st14{clip-path:url(#SVGID_50_);}
	.st15{clip-path:url(#SVGID_54_);}
	.st16{clip-path:url(#SVGID_58_);}
	.st17{clip-path:url(#SVGID_62_);}
	.st18{clip-path:url(#SVGID_66_);}
	.st19{clip-path:url(#SVGID_70_);}
	.st20{clip-path:url(#SVGID_74_);}
	.st21{clip-path:url(#SVGID_78_);}
	.st22{clip-path:url(#SVGID_82_);}
	.st23{fill:#FFFFFF;}
	.st24{fill:#F9B79D;}
	.st25{fill:#E3E4F0;}
	.st26{clip-path:url(#SVGID_86_);}
	.st27{clip-path:url(#SVGID_90_);}
	.st28{clip-path:url(#SVGID_94_);}
	.st29{clip-path:url(#SVGID_98_);}
	.st30{fill:#D3D6E6;}
	.st31{clip-path:url(#SVGID_102_);}
	.st32{clip-path:url(#SVGID_106_);}
	.st33{clip-path:url(#SVGID_110_);}
	.st34{clip-path:url(#SVGID_114_);}
	.st35{clip-path:url(#SVGID_118_);}
	.st36{clip-path:url(#SVGID_122_);}
	.st37{clip-path:url(#SVGID_126_);}
	.st38{fill:#325797;}
	.st39{fill:#CFCED1;}
	.st40{fill:#CE9888;}
	.st41{fill:#2C4F86;}
	.st42{clip-path:url(#SVGID_130_);}
	.st43{clip-path:url(#SVGID_134_);}
	.st44{fill:#C1C1CA;}
	.st45{clip-path:url(#SVGID_138_);}
	.st46{clip-path:url(#SVGID_142_);}
	.st47{clip-path:url(#SVGID_146_);}
	.st48{clip-path:url(#SVGID_150_);}
	.st49{clip-path:url(#SVGID_154_);}
	.st50{clip-path:url(#SVGID_158_);}
	.st51{clip-path:url(#SVGID_162_);}
	.st52{clip-path:url(#SVGID_166_);}
	.st53{fill:#AE827A;}
	.st54{fill:#6B341F;}
	.st55{clip-path:url(#SVGID_170_);}
	.st56{clip-path:url(#SVGID_174_);}
	.st57{clip-path:url(#SVGID_178_);}
	.st58{clip-path:url(#SVGID_182_);}
	.st59{clip-path:url(#SVGID_186_);}
	.st60{clip-path:url(#SVGID_190_);}
	.st61{clip-path:url(#SVGID_194_);}
	.st62{clip-path:url(#SVGID_198_);}
	.st63{clip-path:url(#SVGID_202_);}
	.st64{clip-path:url(#SVGID_206_);}
	.st65{clip-path:url(#SVGID_210_);}
	.st66{fill:#EB5E37;}
	.st67{fill:#4B2D4F;}
	.st68{fill:#BDBCC7;}
	.st69{fill:#C65437;}
	.st70{fill:#243068;}
	.st71{fill:#202D5E;}
	.st72{fill:#422948;}
	.st73{clip-path:url(#SVGID_214_);}
	.st74{clip-path:url(#SVGID_218_);}
	.st75{clip-path:url(#SVGID_222_);}
	.st76{fill:#C3C2CB;}
	.st77{fill:#B8B8C7;}
	.st78{clip-path:url(#SVGID_226_);}
	.st79{fill:#2E5695;}
	.st80{fill:#2C4F87;}
	.st81{clip-path:url(#SVGID_230_);}
	.st82{fill:#C7CADF;}
	.st83{clip-path:url(#SVGID_234_);}
	.st84{fill:#E7AC9C;}
	.st85{fill:#E05F41;}
	.st86{fill:#B2B3C3;}
	.st87{fill:#C4938A;}
	.st88{fill:#C05641;}
	.st89{fill:#22336B;}
	.st90{fill:#1F3162;}
	.st91{fill:#393F4B;}
	.st92{fill:#F6F4F4;}
	.st93{fill:#CAC9CB;}
	.st94{fill:#FAB150;}
	.st95{opacity:0.1;fill:#F6D2D1;}
	.st96{opacity:0.1;enable-background:new    ;}
	.st97{fill:url(#SVGID_237_);}
	.st98{fill:#324E90;}
	.st99{fill:#BCD1E6;}
	.st100{fill:#B9616E;}
	.st101{fill:#F6D2D1;}
	.st102{fill:#3F424D;}
	.st103{fill:#F7BEA5;}
	.st104{fill:#72351C;}
	.st105{fill:#E7552C;}
	.st106{fill:#512D4D;}
	.st107{fill:#FFD762;}
	.st108{opacity:0.1;}
	.st109{fill:#61C2EF;}
	.st110{opacity:0.3;clip-path:url(#SVGID_239_);fill:#324E91;enable-background:new    ;}
	.st111{opacity:0.1;fill:#324E91;enable-background:new    ;}
	.st112{opacity:0.3;fill:#324E91;enable-background:new    ;}
	.st113{fill:#5B539E;}
	.st114{fill:url(#SVGID_240_);}
	.st115{fill:#324E91;}
	.st116{fill:#5781C1;}
	.st117{fill:#F9B547;}
	.st118{opacity:0.1;fill:#FFFFFF;enable-background:new    ;}
	.st119{opacity:0.1;fill:#324E90;}
	.st120{opacity:0.2;fill:#324E90;enable-background:new    ;}
	.st121{opacity:0.7;}
	.st122{opacity:0.6;fill:#324E90;enable-background:new    ;}
	.st123{opacity:0.25;enable-background:new    ;}
	.st124{fill:url(#SVGID_241_);}
	.st125{fill:url(#SVGID_242_);}
	.st126{fill:url(#SVGID_243_);}
	.st127{fill:url(#SVGID_244_);}
	.st128{fill:url(#SVGID_245_);}
	.st129{fill:url(#SVGID_246_);}
	.st130{fill:url(#SVGID_247_);}
	.st131{opacity:0.1;fill:url(#SVGID_248_);enable-background:new    ;}
	.st132{opacity:0.1;fill:url(#SVGID_249_);enable-background:new    ;}
	.st133{opacity:0.1;fill:url(#SVGID_250_);enable-background:new    ;}
	.st134{fill:url(#SVGID_251_);}
	.st135{fill:url(#SVGID_252_);}
	.st136{fill:url(#SVGID_253_);}
	.st137{fill:url(#SVGID_254_);}
	.st138{fill:#262D62;}
	.st139{clip-path:url(#SVGID_256_);fill:url(#SVGID_257_);}
	.st140{clip-path:url(#SVGID_256_);fill:#3F424D;}
	.st141{clip-path:url(#SVGID_256_);}
	.st142{fill:url(#SVGID_258_);}
	.st143{opacity:5.000000e-02;enable-background:new    ;}
	.st144{opacity:0.1;fill:#E7552C;}
	.st145{opacity:0.13;clip-path:url(#SVGID_260_);fill:#FFFFFF;}
	.st146{opacity:0.13;fill:#FFFFFF;}
	.st147{opacity:0.98;fill:#FFFFFF;}
	.st148{clip-path:url(#SVGID_262_);}
	.st149{fill:#315798;}
	.st150{fill:#5381C1;}
	.st151{fill:#AFCAE0;}
	.st152{clip-path:url(#SVGID_266_);}
	.st153{fill:#2A4778;}
	.st154{fill:#B2626E;}
	.st155{fill:#95726B;}
	.st156{fill:#9B5864;}
	.st157{fill:#595BA7;}
	.st158{fill:#FABFA6;}
	.st159{fill:#6867AE;}
	.st160{fill:#F3C8C7;}
</style>
<g id="Layer_1">
</g>
<g id="Layer_2">
</g>
<g id="Layer_3">
</g>
<g id="Layer_4">
	<g>
		<path class="st119" d="M291.1,36.1C215.8,71.7,177.1,66,112.8,65s-136.6,57-65.7,179.2s128,58.7,197.1,77.9
			c69.1,19.2,122.3,91.8,189.3,44s135.7-134.4,105.9-216C509.6,68.4,411.7-21.1,291.1,36.1z"/>
		<path class="st120" d="M416.5,303.1h-27.6v-15.5h27.6V303.1z M390.1,302h25.3v-13.2h-25.3V302z"/>
		<g>
			<g>
				<g class="st121">
					<rect x="98.7" y="74.7" class="st122" width="384.6" height="196.2"/>
					<path class="st123" d="M98.7,74.7v196.6h384.6V74.7H98.7z M115.8,91.8h166.7v72.7H115.8V91.8z M115.8,181.5h166.7v72.7H115.8
						V181.5z M466.2,254.2H299.6v-72.7h166.7V254.2z M466.2,164.4H299.6V91.8h166.7V164.4z"/>
				</g>
			</g>
		</g>
		<g class="st121">
			<g class="st108">
				
					<linearGradient id="SVGID_2_" gradientUnits="userSpaceOnUse" x1="320.8901" y1="93.3419" x2="388.532" y2="93.3419" gradientTransform="matrix(1 0 0 -1 -105 330.5431)">
					<stop  offset="0" style="stop-color:#BC4C31;stop-opacity:0.25"/>
					<stop  offset="0.54" style="stop-color:#BC4C31;stop-opacity:0.12"/>
					<stop  offset="1" style="stop-color:#BC4C31;stop-opacity:0.1"/>
				</linearGradient>
				<path style="fill:url(#SVGID_2_);" d="M245.4,181.7c-1.4-0.5-3.2-0.9-4.3,0c-0.7,0.5-1,1.4-1.5,2.1c-1.7,2.3-5.3,1.9-8,2.7
					c-4.1,1.2-6.6,5.2-8,9.2c-6.4,17.5,0.7,37.5-4.8,55.2c-1.6,5.2-4.3,11-1.7,15.8c0.9,1.6,2.3,2.9,2.8,4.7c0.6,2.4-0.6,5.6,1.5,7
					c0.6,0.5,1.4,0.6,2.2,0.8c4.5,1.2,8,4.7,11.4,7.9c3.5,3.1,7.6,6.2,12.3,6c1.5-0.1,3-0.4,4.5-0.9l23.3-6.5
					c2.3-0.6,4.9-1.4,6.2-3.4c0.8-1.2,1.1-2.7,1.3-4.2c0.8-5.5,1.2-11.1,1.1-16.7c0-1.8-0.1-3.7-0.8-5.4c-0.8-2-2.3-3.6-3.5-5.4
					c-2.2-3.5-2.8-7.7-3.3-11.8c-0.9-6.5-1.7-13.1-0.5-19.5c0.5-2.8,1.4-5.4,2-8.2c0.9-4.5,1.1-9.1,0.4-13.6
					c-0.5-3.7-1.7-7.6-4.3-10.4c-1.7-1.9-4-3.1-6.4-3.5c-3.1-0.4-4.7,1.4-7.5,2.1C255.5,187,249.4,183,245.4,181.7z"/>
			</g>
			
				<linearGradient id="SVGID_4_" gradientUnits="userSpaceOnUse" x1="320.8901" y1="94.2582" x2="388.532" y2="94.2582" gradientTransform="matrix(1 0 0 -1 -105 330.5431)">
				<stop  offset="0" style="stop-color:#BC4C31;stop-opacity:0.25"/>
				<stop  offset="0.54" style="stop-color:#BC4C31;stop-opacity:0.12"/>
				<stop  offset="1" style="stop-color:#BC4C31;stop-opacity:0.1"/>
			</linearGradient>
			<path style="fill:url(#SVGID_4_);" d="M245.4,180.8c-1.4-0.5-3.2-0.9-4.3,0c-0.7,0.5-1,1.4-1.5,2.1c-1.7,2.3-5.3,1.9-8,2.7
				c-4.1,1.2-6.6,5.2-8,9.2c-6.4,17.5,0.7,37.5-4.8,55.2c-1.6,5.2-4.3,11-1.7,15.8c0.9,1.6,2.3,2.9,2.8,4.7c0.6,2.4-0.6,5.6,1.5,7
				c0.6,0.5,1.4,0.6,2.2,0.8c4.5,1.2,8,4.7,11.4,7.9c3.5,3.1,7.6,6.2,12.3,6c1.5-0.1,3-0.4,4.5-0.9l23.3-6.5
				c2.3-0.6,4.9-1.4,6.2-3.4c0.8-1.2,1.1-2.7,1.3-4.2c0.8-5.5,1.2-11.1,1.1-16.7c0-1.8-0.1-3.7-0.8-5.4c-0.8-2-2.3-3.6-3.5-5.4
				c-2.2-3.5-2.8-7.7-3.3-11.8c-0.9-6.5-1.7-13.1-0.5-19.5c0.5-2.8,1.4-5.4,2-8.2c0.9-4.5,1.1-9.1,0.4-13.6
				c-0.5-3.7-1.7-7.6-4.3-10.4c-1.7-1.9-4-3.1-6.4-3.5c-3.1-0.4-4.7,1.4-7.5,2.1C255.5,186.1,249.4,182.1,245.4,180.8z"/>
			
				<linearGradient id="SVGID_6_" gradientUnits="userSpaceOnUse" x1="337.8585" y1="161.5306" x2="372.4208" y2="161.5306" gradientTransform="matrix(1 0 0 -1 -105 330.5431)">
				<stop  offset="0" style="stop-color:#BC4C31;stop-opacity:0.25"/>
				<stop  offset="0.54" style="stop-color:#BC4C31;stop-opacity:0.12"/>
				<stop  offset="1" style="stop-color:#BC4C31;stop-opacity:0.1"/>
			</linearGradient>
			<path style="fill:url(#SVGID_6_);" d="M238.8,146.3c0,0,0.5,17.3-5.1,16.9c-5.5-0.5,15.7,28.7,15.7,28.7l18-9.6
				c0,0-10.6-16.9-3.2-27.3C271.6,144.5,238.8,146.3,238.8,146.3z"/>
			<g class="st108">
				
					<linearGradient id="SVGID_8_" gradientUnits="userSpaceOnUse" x1="292.1315" y1="87.1261" x2="351.6705" y2="87.1261" gradientTransform="matrix(1 0 0 -1 -105 330.5431)">
					<stop  offset="0" style="stop-color:#BC4C31;stop-opacity:0.25"/>
					<stop  offset="0.54" style="stop-color:#BC4C31;stop-opacity:0.12"/>
					<stop  offset="1" style="stop-color:#BC4C31;stop-opacity:0.1"/>
				</linearGradient>
				<path style="fill:url(#SVGID_8_);" d="M208,293.5c0,0-3.7,25.1-12.9,18.2s-7.8-18.2-7.8-18.2s18-48.3,17.1-55.6
					c-0.9-7.3,30.7-64,30.7-64l11.7,93.2C246.7,267.1,211.6,279.8,208,293.5z"/>
			</g>
			<path class="st119" d="M207,293.5c0,0-3.7,25.1-12.9,18.2s-7.8-18.2-7.8-18.2s18-48.3,17.1-55.6c-0.9-7.3,30.7-64,30.7-64
				l11.7,93.2C245.7,267.1,210.7,279.8,207,293.5z"/>
			<path class="st119" d="M239.8,157.2c0,0-18,12.3-24.9,11.8l-5.4,1.5c-10.8,2.9-19.1,11.7-21.3,22.7l-0.1,0.4
				c-2.8,14.6-3.7,54.7-3.7,54.7s0.5,10.5,5.1,13.2l29.5,20.1c0,0-0.9-21.9,10.1-24.2s-2.8-0.9-2.8-0.9l-20.3-11.8
				c0,0,0.5-17.8,6-23.7c5.5-5.9,24.9-36.9,24.9-36.9l-5.5-19.1L239.8,157.2z"/>
			<g class="st108">
				
					<linearGradient id="SVGID_10_" gradientUnits="userSpaceOnUse" x1="361.9178" y1="106.3168" x2="421.7577" y2="106.3168" gradientTransform="matrix(1 0 0 -1 -105 330.5431)">
					<stop  offset="0" style="stop-color:#BC4C31;stop-opacity:0.25"/>
					<stop  offset="0.54" style="stop-color:#BC4C31;stop-opacity:0.12"/>
					<stop  offset="1" style="stop-color:#BC4C31;stop-opacity:0.1"/>
				</linearGradient>
				<path style="fill:url(#SVGID_10_);" d="M259.6,169.1c0,0,11.3,3,19.3,4.4c2.5,0.4,4.6,2.1,5.8,4.4c2.4,4.9,6,13.9,5.4,21.3
					l6.9,26.9l19.8,23.7l-18,8.2l-20.3-22.3l16.6,42.4l-30.9,1.4c0,0-9.2-68.4-6.9-79.8L259.6,169.1z"/>
			</g>
			<path class="st119" d="M260.5,169.1c0,0,11.3,3,19.3,4.4c2.5,0.4,4.6,2.1,5.8,4.4c2.4,4.9,6,13.9,5.4,21.3l6.9,26.9l19.8,23.7
				l-18,8.2l-20.3-22.3L296,278l-30.9,1.4c0,0-9.2-68.4-6.9-79.8L260.5,169.1z"/>
			
				<linearGradient id="SVGID_12_" gradientUnits="userSpaceOnUse" x1="228.5543" y1="227.616" x2="244.6114" y2="227.616" gradientTransform="matrix(1 0 0 -1 0 401.4331)">
				<stop  offset="0" style="stop-color:#BC4C31;stop-opacity:0.25"/>
				<stop  offset="0.54" style="stop-color:#BC4C31;stop-opacity:0.12"/>
				<stop  offset="1" style="stop-color:#BC4C31;stop-opacity:0.1"/>
			</linearGradient>
			<polygon style="fill:url(#SVGID_12_);" points="238.3,155.8 244.6,186.6 234.2,191.9 228.6,164.1 			"/>
			
				<linearGradient id="SVGID_14_" gradientUnits="userSpaceOnUse" x1="255.6761" y1="221.7612" x2="266.7448" y2="221.7612" gradientTransform="matrix(1 0 0 -1 0 401.4331)">
				<stop  offset="0" style="stop-color:#BC4C31;stop-opacity:0.25"/>
				<stop  offset="0.54" style="stop-color:#BC4C31;stop-opacity:0.12"/>
				<stop  offset="1" style="stop-color:#BC4C31;stop-opacity:0.1"/>
			</linearGradient>
			<polygon style="fill:url(#SVGID_14_);" points="255.7,188.9 260.5,169.1 266.7,180.7 263.5,190.3 			"/>
			
				<linearGradient id="SVGID_16_" gradientUnits="userSpaceOnUse" x1="378.1979" y1="119.0794" x2="382.3472" y2="119.0794" gradientTransform="matrix(1 0 0 -1 -105 330.5431)">
				<stop  offset="0" style="stop-color:#BC4C31;stop-opacity:0.25"/>
				<stop  offset="0.54" style="stop-color:#BC4C31;stop-opacity:0.12"/>
				<stop  offset="1" style="stop-color:#BC4C31;stop-opacity:0.1"/>
			</linearGradient>
			<path style="opacity:0.1;fill:url(#SVGID_16_);enable-background:new    ;" d="M273.2,194.8c0,0,0,31,4.1,33.3"/>
			
				<linearGradient id="SVGID_18_" gradientUnits="userSpaceOnUse" x1="311.3733" y1="111.1072" x2="318.717" y2="111.1072" gradientTransform="matrix(1 0 0 -1 -105 330.5431)">
				<stop  offset="0" style="stop-color:#BC4C31;stop-opacity:0.25"/>
				<stop  offset="0.54" style="stop-color:#BC4C31;stop-opacity:0.12"/>
				<stop  offset="1" style="stop-color:#BC4C31;stop-opacity:0.1"/>
			</linearGradient>
			<path style="opacity:0.1;fill:url(#SVGID_18_);enable-background:new    ;" d="M213.7,202.6c0,0-9.6,30.5-6.9,33.7"/>
			
				<linearGradient id="SVGID_20_" gradientUnits="userSpaceOnUse" x1="316.8755" y1="79.9836" x2="337.8551" y2="79.9836" gradientTransform="matrix(1 0 0 -1 -105 330.5431)">
				<stop  offset="0" style="stop-color:#BC4C31;stop-opacity:0.25"/>
				<stop  offset="0.54" style="stop-color:#BC4C31;stop-opacity:0.12"/>
				<stop  offset="1" style="stop-color:#BC4C31;stop-opacity:0.1"/>
			</linearGradient>
			<path style="opacity:0.1;fill:url(#SVGID_20_);enable-background:new    ;" d="M211.9,244.5c0,0,18.4,11.9,21,12.1"/>
			<g class="st108">
				
					<linearGradient id="SVGID_22_" gradientUnits="userSpaceOnUse" x1="344.1295" y1="173.1466" x2="370.7492" y2="173.1466" gradientTransform="matrix(1 0 0 -1 -105 330.5431)">
					<stop  offset="0" style="stop-color:#BC4C31;stop-opacity:0.25"/>
					<stop  offset="0.54" style="stop-color:#BC4C31;stop-opacity:0.12"/>
					<stop  offset="1" style="stop-color:#BC4C31;stop-opacity:0.1"/>
				</linearGradient>
				<path style="fill:url(#SVGID_22_);" d="M239.3,148.1c0,0,0.1,2.7-0.2,5.9c3.4,7.8,11,12.8,19.5,12.8c1.1,0,2.3-0.1,3.4-0.3
					c-0.1-3.4,0.5-6.8,2.6-9.8C272,146.3,239.3,148.1,239.3,148.1z"/>
			</g>
			<ellipse class="st119" cx="258.2" cy="144" rx="21.2" ry="21"/>
			<g class="st108">
				
					<linearGradient id="SVGID_24_" gradientUnits="userSpaceOnUse" x1="332.3504" y1="198.2034" x2="383.0696" y2="198.2034" gradientTransform="matrix(1 0 0 -1 -105 330.5431)">
					<stop  offset="0" style="stop-color:#BC4C31;stop-opacity:0.25"/>
					<stop  offset="0.54" style="stop-color:#BC4C31;stop-opacity:0.12"/>
					<stop  offset="1" style="stop-color:#BC4C31;stop-opacity:0.1"/>
				</linearGradient>
				<path style="fill:url(#SVGID_24_);" d="M271.7,135.2c2.6,0.3,5.8-0.5,6.3-3c0.6-3.2-3.7-5.2-4.3-8.4c-0.2-1.2,0-2.4-0.1-3.6
					c-0.3-2.4-2.3-4.3-4.3-5.7c-6.4-4.4-14.2-6.5-22-5.8c-1,0.1-2,0.2-2.7,0.9c-0.8,0.7-1.2,1.8-1.8,2.7c-2,3.2-6.5,3.6-9.7,5.5
					c-3.7,2.3-5.6,6.9-5.8,11.2s1.1,8.7,2.3,12.8c1.1,3.6,2.2,7.2,4.5,10.2c2.3,2.9,6.2,5,9.8,4.1c-1.7-1.2-0.5-4,1.4-4.9
					c1.8-1,4.1-1.1,5.6-2.5c1.6-1.3,2-3.5,2.5-5.5c0.6-2.5,1.6-5.1,3.4-6.9C260.6,132.6,267.2,134.6,271.7,135.2z"/>
			</g>
			<path class="st119" d="M271.2,134.7c2.6,0.3,5.8-0.5,6.3-3c0.6-3.2-3.7-5.2-4.3-8.4c-0.2-1.2,0-2.4-0.1-3.6
				c-0.3-2.4-2.3-4.3-4.3-5.7c-6.4-4.4-14.2-6.5-22-5.8c-1,0.1-2,0.2-2.7,0.9c-0.8,0.7-1.2,1.8-1.8,2.7c-2,3.2-6.5,3.6-9.7,5.5
				c-3.7,2.3-5.6,6.9-5.8,11.2c-0.2,4.4,1.1,8.7,2.3,12.8c1.1,3.6,2.2,7.2,4.5,10.2c2.3,2.9,6.2,5,9.8,4.1c-1.7-1.2-0.5-4,1.4-4.9
				c1.8-1,4.1-1.1,5.6-2.5c1.6-1.3,2-3.5,2.5-5.5c0.6-2.5,1.6-5.1,3.4-6.9C260.1,132.1,266.7,134.1,271.2,134.7z"/>
			<g class="st108">
				
					<linearGradient id="SVGID_26_" gradientUnits="userSpaceOnUse" x1="352.8399" y1="168.5685" x2="381.2892" y2="168.5685" gradientTransform="matrix(1 0 0 -1 -105 330.5431)">
					<stop  offset="0" style="stop-color:#BC4C31;stop-opacity:0.25"/>
					<stop  offset="0.54" style="stop-color:#BC4C31;stop-opacity:0.12"/>
					<stop  offset="1" style="stop-color:#BC4C31;stop-opacity:0.1"/>
				</linearGradient>
				<path style="fill:url(#SVGID_26_);" d="M254.5,146.8c-0.3,2.2-1,5.9-2.3,8.3c-1.7,3.1-3.2,6.3-4.4,9.6l0,0
					c0,0,8.5,6.5,12.8,10.9c2.7,2.8,6.9,3.8,10.6,2.6c2.2-0.8,4.2-2.4,4.7-5.3c0.8-4.6-0.2-8.1-1.1-10.2c-0.9-2-0.9-4.2,0-6.2
					c0.3-0.7,0.7-1.2,1.1-1.4c0,0-8.3-1.8-8.8,0.5c-0.5,2.3-6.9,4.6-8.3,0.5l-0.4-9c0-1.1-0.9-1.9-2-1.9l0,0
					C255.5,145.1,254.7,145.9,254.5,146.8z"/>
			</g>
			
				<linearGradient id="SVGID_28_" gradientUnits="userSpaceOnUse" x1="352.8399" y1="168.1101" x2="381.2892" y2="168.1101" gradientTransform="matrix(1 0 0 -1 -105 330.5431)">
				<stop  offset="0" style="stop-color:#BC4C31;stop-opacity:0.25"/>
				<stop  offset="0.54" style="stop-color:#BC4C31;stop-opacity:0.12"/>
				<stop  offset="1" style="stop-color:#BC4C31;stop-opacity:0.1"/>
			</linearGradient>
			<path style="fill:url(#SVGID_28_);" d="M254.5,147.3c-0.3,2.2-1,5.9-2.3,8.3c-1.7,3.1-3.2,6.3-4.4,9.6l0,0c0,0,8.5,6.5,12.8,10.9
				c2.7,2.8,6.9,3.8,10.6,2.6c2.2-0.8,4.2-2.4,4.7-5.3c0.8-4.6-0.2-8.1-1.1-10.2c-0.9-2-0.9-4.2,0-6.2c0.3-0.7,0.7-1.2,1.1-1.4
				c0,0-8.3-1.8-8.8,0.5c-0.5,2.3-6.9,4.6-8.3,0.5l-0.4-9c0-1.1-0.9-1.9-2-1.9l0,0C255.5,145.6,254.7,146.3,254.5,147.3z"/>
		</g>
		<path class="st96" d="M245.6,184.2c-1.4-0.5-3-0.9-4.1,0c-0.6,0.5-0.9,1.4-1.4,2.1c-1.7,2.2-5.1,1.8-7.7,2.6
			c-3.9,1.2-6.3,5.1-7.7,8.9c-6.1,17,0.7,36.4-4.6,53.6c-1.6,5.1-4.1,10.7-1.6,15.4c0.8,1.6,2.2,2.9,2.6,4.6
			c0.6,2.3-0.5,5.4,1.4,6.8c0.6,0.4,1.4,0.6,2.1,0.8c4.4,1.2,7.7,4.6,11,7.6c3.3,3,7.3,6,11.8,5.8c1.5-0.1,2.9-0.4,4.3-0.9l22.3-6.3
			c2.2-0.6,4.7-1.4,6-3.3c0.8-1.2,1-2.6,1.2-4c0.8-5.4,1.1-10.8,1.1-16.2c0-1.8-0.1-3.6-0.7-5.3c-0.8-1.9-2.2-3.5-3.3-5.2
			c-2.1-3.4-2.7-7.5-3.2-11.4c-0.8-6.3-1.6-12.7-0.5-18.9c0.5-2.7,1.3-5.3,1.9-7.9c0.9-4.3,1.1-8.8,0.4-13.2
			c-0.5-3.6-1.6-7.3-4.1-10.1c-1.6-1.8-3.8-3-6.2-3.4c-3-0.4-4.5,1.4-7.2,2C255.3,189.4,249.5,185.5,245.6,184.2z"/>
		<path class="st23" d="M245.6,183.4c-1.4-0.5-3-0.9-4.1,0c-0.6,0.5-0.9,1.4-1.4,2.1c-1.7,2.2-5.1,1.8-7.7,2.6
			c-3.9,1.2-6.3,5.1-7.7,8.9c-6.1,17,0.7,36.4-4.6,53.6c-1.6,5.1-4.1,10.7-1.6,15.4c0.8,1.6,2.2,2.9,2.6,4.6
			c0.6,2.3-0.5,5.4,1.4,6.8c0.6,0.4,1.4,0.6,2.1,0.8c4.4,1.2,7.7,4.6,11,7.6c3.3,3,7.3,6,11.8,5.8c1.5-0.1,2.9-0.4,4.3-0.9l22.3-6.3
			c2.2-0.6,4.7-1.4,6-3.3c0.8-1.2,1-2.6,1.2-4c0.8-5.4,1.1-10.8,1.1-16.2c0-1.8-0.1-3.6-0.7-5.3c-0.8-1.9-2.2-3.5-3.3-5.2
			c-2.1-3.4-2.7-7.5-3.2-11.4c-0.8-6.3-1.6-12.7-0.5-18.9c0.5-2.7,1.3-5.3,1.9-7.9c0.9-4.3,1.1-8.8,0.4-13.2
			c-0.5-3.6-1.6-7.3-4.1-10.1c-1.6-1.8-3.8-3-6.2-3.4c-3-0.4-4.5,1.4-7.2,2C255.3,188.5,249.5,184.6,245.6,183.4z"/>
		<path class="st103" d="M239.3,149.8c0,0,0.4,16.8-4.9,16.4c-5.3-0.4,15.1,27.9,15.1,27.9l17.3-9.3c0,0-10.2-16.4-3.1-26.6
			C270.7,148.1,239.3,149.8,239.3,149.8z"/>
		<path class="st96" d="M209.7,292.8c0,0-3.5,24.3-12.4,17.7c-8.9-6.6-7.5-17.7-7.5-17.7s17.3-46.9,16.4-54
			c-0.9-7.1,29.5-62.1,29.5-62.1l11.2,90.5C246.9,267.1,213.2,279.5,209.7,292.8z"/>
		<path class="st98" d="M208.8,292.8c0,0-3.5,24.3-12.4,17.7c-8.9-6.6-7.5-17.7-7.5-17.7s17.3-46.9,16.4-54
			c-0.9-7.1,29.5-62.1,29.5-62.1l11.2,90.5C246,267.1,212.3,279.5,208.8,292.8z"/>
		<path class="st98" d="M240.2,160.5c0,0-17.3,12-23.9,11.5l-5.2,1.4c-10.4,2.9-18.4,11.4-20.4,22.1l-0.1,0.4
			c-2.7,14.2-3.5,53.1-3.5,53.1s0.4,10.2,4.9,12.8l28.3,19.5c0,0-0.9-21.2,9.7-23.5c10.6-2.2-2.7-0.9-2.7-0.9l-19.5-11.5
			c0,0,0.4-17.3,5.8-23s23.9-35.9,23.9-35.9l-5.3-18.6L240.2,160.5z"/>
		<path class="st96" d="M259.3,172c0,0,10.9,2.9,18.5,4.3c2.4,0.4,4.5,2,5.5,4.2c2.3,4.8,5.8,13.5,5.2,20.7l6.6,26.1l19,23l-17.3,8
			l-19.5-21.7l15.9,41.2l-29.7,1.3c0,0-8.9-66.4-6.6-77.5L259.3,172z"/>
		<path class="st98" d="M260.1,172c0,0,10.9,2.9,18.5,4.3c2.4,0.4,4.5,2,5.5,4.2c2.3,4.8,5.8,13.5,5.2,20.7l6.6,26.1l19,23l-17.3,8
			l-19.5-21.7l15.9,41.2l-29.7,1.3c0,0-8.9-66.4-6.6-77.5L260.1,172z"/>
		<polygon class="st23" points="238.8,159 244.9,189 234.9,194.1 229.5,167.1 		"/>
		<polygon class="st23" points="255.5,191.2 260.1,172 266.1,183.3 263,192.6 		"/>
		<path class="st96" d="M272.3,197c0,0,0,30.1,4,32.3"/>
		<path class="st96" d="M215.2,204.5c0,0-9.2,29.6-6.6,32.7"/>
		<path class="st96" d="M213.4,245.2c0,0,17.7,11.6,20.1,11.8"/>
		<path class="st96" d="M239.8,151.6c0,0,0.1,2.6-0.2,5.7c3.7,8.7,12.8,13.7,22,12.2c-0.1-3.3,0.5-6.6,2.5-9.5
			C271.2,149.8,239.8,151.6,239.8,151.6z"/>
		<circle class="st103" cx="257.9" cy="147.6" r="20.4"/>
		<path class="st96" d="M270.8,139.1c2.5,0.3,5.6-0.5,6.1-2.9c0.6-3.1-3.5-5.1-4.2-8.2c-0.2-1.2,0-2.4-0.1-3.5
			c-0.3-2.4-2.2-4.2-4.1-5.6c-6.2-4.3-13.6-6.3-21.1-5.6c-0.9,0.1-1.9,0.2-2.6,0.8c-0.8,0.7-1.1,1.8-1.7,2.6
			c-1.9,3.1-6.2,3.4-9.3,5.4c-3.6,2.2-5.4,6.7-5.5,10.9c-0.2,4.2,1,8.4,2.2,12.5c1,3.5,2.1,7,4.3,9.9c2.2,2.8,5.9,4.8,9.4,4
			c-1.6-1.2-0.4-3.9,1.3-4.8c1.7-0.9,3.9-1.1,5.4-2.4c1.5-1.3,1.9-3.4,2.4-5.4c0.6-2.4,1.5-4.9,3.3-6.7
			C260.2,136.5,266.5,138.5,270.8,139.1z"/>
		<path class="st104" d="M270.4,138.6c2.5,0.3,5.6-0.5,6.1-2.9c0.6-3.1-3.5-5.1-4.2-8.2c-0.2-1.2,0-2.4-0.1-3.5
			c-0.3-2.4-2.2-4.2-4.2-5.6c-6.1-4.3-13.6-6.3-21.1-5.6c-0.9,0.1-1.9,0.2-2.6,0.8c-0.8,0.7-1.1,1.8-1.7,2.6
			c-1.9,3.1-6.2,3.4-9.3,5.4c-3.6,2.2-5.4,6.7-5.5,10.9s1,8.4,2.2,12.5c1,3.5,2.1,7,4.3,9.9c2.2,2.8,5.9,4.8,9.4,4
			c-1.6-1.2-0.4-3.9,1.3-4.8c1.7-0.9,3.9-1.1,5.4-2.4c1.5-1.3,1.9-3.4,2.4-5.4c0.6-2.4,1.5-4.9,3.3-6.7
			C259.8,136.1,266.1,138.1,270.4,138.6z"/>
		<path class="st96" d="M254.4,150.4c-0.3,2.1-1,5.7-2.2,8c-1.7,3-3.1,6.1-4.2,9.3l0,0c0,0,8.2,6.3,12.3,10.6
			c2.6,2.8,6.6,3.7,10.2,2.5c2.2-0.8,4.1-2.3,4.6-5.1c0.8-4.5-0.1-7.9-1-9.9c-0.9-1.9-0.9-4.1,0-6c0.3-0.7,0.7-1.2,1.1-1.3
			c0,0-8-1.8-8.4,0.4c-0.4,2.2-6.6,4.4-8,0.4l-0.4-8.8c0-1-0.9-1.8-1.9-1.8l0,0C255.4,148.7,254.5,149.4,254.4,150.4z"/>
		<path class="st104" d="M254.4,150.8c-0.3,2.1-1,5.7-2.2,8c-1.7,3-3.1,6.1-4.2,9.3l0,0c0,0,8.2,6.3,12.3,10.6
			c2.6,2.8,6.6,3.7,10.2,2.5c2.2-0.8,4.1-2.3,4.6-5.1c0.8-4.5-0.1-7.9-1-9.9c-0.9-1.9-0.9-4.1,0-6c0.3-0.7,0.7-1.2,1.1-1.3
			c0,0-8-1.8-8.4,0.4c-0.4,2.2-6.6,4.4-8,0.5l-0.4-8.8c0-1-0.9-1.8-1.9-1.8l0,0C255.4,149.2,254.5,149.9,254.4,150.8z"/>
		<path class="st119" d="M412.6,276.7c0,0-8-8-10.9-18.6h0.7l-0.3-0.9h0.3l-1-3c2.9-2.9,5.1-5.7,5.5-7.3c0.6-2.7,1.2-17.2,1.6-27.3
			l0.3,0.1c0.8-1.3,0.9-3,0.9-4.5c0-1.7-0.2-3.4-0.7-5.1l-1.4-14.4c-0.3-2.7-1.6-5.1-3.8-6.8l-14.6-11.3c0.8-1,1.7-1.9,2.9-2.5
			c0.8-0.4,1.8-0.7,2.4-1.5c1-1.4,0.2-3.4,0.8-5c0.5-1.2,1.8-1.8,2.6-2.9c1.5-2.1,0.4-5.1-0.7-7.5l-6.7-13.8
			c-1.8-3.8-3.7-7.7-6.3-11c-7.9-10.3-23.1-15.4-35.5-10.9c-3.5,1.3-6.8,3.7-8.3,7.1c-0.5,1.2-0.8,2.5-1.6,3.6
			c-1.7,2.4-5,2.8-7.4,4.5c-3,2.2-4.1,6.3-3.7,10c0.4,3.7,2.1,7.1,3.8,10.5c1.8,3.5,3.6,7.1,6.5,9.7c1.4,1.2,3,2.4,3.4,4.2
			c0.4,1.5-0.3,3.1-0.1,4.7c0.1,0.7,0.2,1.3,0.6,1.9c-6.5,0.8-11.2,6.3-13.3,14.3c-0.1,0.5-0.2,0.8-0.2,0.8l-0.9,8.4
			c0,0.4,0,0.7,0,1.1c-0.1,1.9,0.3,3.8,1.2,5.4V238l-28,17.7c-4.2,1.9-3.3,16.8,5.1,19.6c8.4,2.8,15.9-14.9,15.9-14.9
			c5.1-0.3,13.7-7.2,18.3-12.4c0.6,1,1.5,1.9,2.4,2.5c-3.3,7.5-9.9,23.1-8.9,26.2c0.6,1.9,17,2.1,34.7,1.7c0.5,0.3,0.9,0.5,1.4,0.6
			c1.9,0.6,3.7,0.2,5.4-0.8C394.1,277.7,412.6,276.7,412.6,276.7z M389,219.8c0.4-1.1,1.7-1.7,3.4-1.9v11.3L389,219.8z M387.4,180
			L387.4,180L387.4,180L387.4,180z"/>
		<path class="st103" d="M345.3,205.6c0,0-0.9,31.4-1.8,35.4c-0.9,4-13.7,15.9-20.4,16.4c0,0-7.1,16.8-15.1,14.2s-8.9-16.8-4.9-18.6
			l26.6-16.8v-33.6L345.3,205.6z"/>
		<path class="st105" d="M344.7,244.1c0,0-11.5,24.8-10.2,28.8s75.2,0,75.2,0s-13.7-13.7-11.1-28.8H344.7z"/>
		<path class="st103" d="M353.5,170.6c0,0,1.8,17.3-1.3,21.2c-3.1,4,12.4,6.2,13.7,6.2s15.5-4.9,18.1-6.2s4.9-11.1,4.9-11.1
			s-13.3,2.7-17.3-12.8L353.5,170.6z"/>
		<path class="st106" d="M348.9,126.4c-3.4,1.2-6.4,3.5-7.9,6.8c-0.5,1.1-0.8,2.4-1.5,3.4c-1.6,2.2-4.8,2.7-7,4.3
			c-2.9,2.1-3.9,6-3.5,9.5s2,6.8,3.6,9.9c1.7,3.3,3.4,6.7,6.2,9.3c1.3,1.2,2.9,2.3,3.3,4c0.3,1.5-0.3,3-0.1,4.5
			c0.3,3.7,4.7,5.4,8.4,5.8c1.6,0.2,3.4,0.2,4.5-1c0.6-0.6,0.9-1.4,1.2-2.1c2.5-5.1,8.6-7.1,13.7-4.6c1.9,1,3.5,2.5,4.5,4.4
			c0.9,1.7,1.4,3.7,2.9,4.7c2.4,1.6,5.6-0.3,7.4-2.5c1.8-2.2,3-5.1,5.6-6.4c0.8-0.4,1.7-0.7,2.3-1.4c1-1.3,0.1-3.2,0.8-4.7
			c0.5-1.1,1.7-1.7,2.4-2.7c1.5-2,0.4-4.8-0.7-7.1l-6.3-13.1c-1.8-3.6-3.5-7.3-6-10.5C375.1,127,360.7,122.1,348.9,126.4z"/>
		<path class="st96" d="M365,195c0,0,17.3,0,21.7-15.9l14.5,11.3c2,1.6,3.3,3.9,3.6,6.5l1.4,13.7c0,0,1.6,5.1-0.2,8.2
			c0,0-18.4-4.7-18.8,0.7l12.8,35.9c0,0-19.9,0.4-25.2-3.1c0,0-21.7,4.4-27-0.4c-5.3-4.9-10.6-4.4-6.2-15.5c0,0-8.9-8.9-4.9-21.2
			c4-12.4,0.2,0.2,0.2,0.2s-8.6-4.2-8.2-12.2l0.9-8c0,0,0-0.3,0.2-0.7c2.7-10.5,9.9-16.3,20.1-12.6c3,1.1,6-0.2,6-0.2
			S352.7,195.9,365,195z"/>
		<path class="st138" d="M365,194.1c0,0,17.3,0,21.7-15.9l14.5,11.3c2,1.6,3.3,3.9,3.6,6.5l1.4,13.7c0,0,1.6,5.1-0.2,8.2
			c0,0-18.4-4.7-18.8,0.7l12.8,35.9c0,0-19.9,0.4-25.2-3.1c0,0-21.7,4.4-27-0.4c-5.3-4.9-10.6-4.4-6.2-15.5c0,0-8.9-8.9-4.9-21.2
			c4-12.4,0.2,0.2,0.2,0.2s-8.6-4.2-8.2-12.2l0.9-8c0,0,0-0.3,0.2-0.7c2.7-10.5,9.9-16.3,20.1-12.6c3,1.1,6-0.2,6-0.2
			S352.7,195,365,194.1z"/>
		<path class="st103" d="M406,209.1c0,0-0.9,31.4-1.8,35.4c-0.9,4-13.7,15.9-20.4,16.4c0,0-7.1,16.8-15.1,14.2
			c-8-2.7-8.9-16.8-4.9-18.6l26.6-16.8V206L406,209.1z"/>
		<path class="st96" d="M387,210.3c0,0,10.2,6.9,19,6.3c0,0,0.9-11.9-1.8-12.5C401.6,203.4,390.1,204.1,387,210.3z"/>
		<path class="st138" d="M387,209.8c0,0,10.2,6.9,19,6.3c0,0,0.9-11.9-1.8-12.5S390.1,203.6,387,209.8z"/>
		<path class="st96" d="M372.6,168.9l-18.1,2.7c0,0,0.4,4,0.5,8.6c7.2,3,15.5,1.7,21.4-3.5C374.8,174.8,373.4,172.2,372.6,168.9z"/>
		<circle class="st103" cx="361.9" cy="160.5" r="20.4"/>
		<path class="st96" d="M367.3,156.5c-0.9,0.3-1.8,0.5-2.7,0.4c-3.6,0-7.2-0.2-10.8-0.4c-2.7-0.2-5.6-0.5-7.7-2.2
			c-2.8-2.3-3.3-6.7-1.8-10.1c1.5-3.4,4.4-5.9,7.6-7.8c1.8-1.1,3.7-2,5.7-2.6c5.8-1.6,12.3,0.4,16.9,4.2c4.6,3.9,7.6,9.5,9.2,15.3
			c0.5,2,1.2,4.4,3.2,5.1c-1.3,2.2-4.6,2.6-6.9,1.5c-3.4-1.6-5.2-7.9-8.3-8.9C368.2,149.9,370.2,155.2,367.3,156.5z"/>
		<path class="st106" d="M367.3,156.1c-0.9,0.3-1.8,0.5-2.7,0.4c-3.6,0-7.2-0.2-10.8-0.4c-2.7-0.2-5.6-0.5-7.7-2.2
			c-2.8-2.3-3.3-6.7-1.8-10.1c1.5-3.4,4.4-5.9,7.6-7.8c1.8-1.1,3.7-2,5.7-2.6c5.8-1.6,12.3,0.4,16.9,4.2s7.6,9.5,9.2,15.3
			c0.5,2,1.2,4.4,3.2,5.1c-1.3,2.2-4.6,2.6-6.9,1.5c-3.4-1.6-5.2-7.9-8.3-8.9C368.2,149.5,370.2,154.8,367.3,156.1z"/>
		<path class="st96" d="M341.4,235c6.6-1.8,13.5-2.7,20.4-2.7"/>
		<path class="st96" d="M387,211.1c0,0-6.6,4.9-4.9,7.5"/>
		<g class="st121">
			<path class="st119" d="M283.7,194.3H363c6.1,0,11,4.9,11,11v48.1c0,6.1-4.9,11-11,11h-79.3c-6.1,0-11-4.9-11-11v-48.1
				C272.7,199.2,277.6,194.3,283.7,194.3z"/>
		</g>
		<path class="st96" d="M201.5,271.8c0,0,2.6,3.8,10.4,5"/>
		<g>
			<defs>
				<path id="SVGID_255_" d="M291.3,36C216,71.7,177.3,65.9,113,64.9c-64.3-1-136.6,57-65.7,179.2s128,58.7,197.1,77.9
					c69.1,19.2,122.3,91.8,189.3,44s135.7-134.4,105.9-216S411.9-21.2,291.3,36z"/>
			</defs>
			<clipPath id="SVGID_30_">
				<use xlink:href="#SVGID_255_"  style="overflow:visible;"/>
			</clipPath>
			
				<linearGradient id="SVGID_32_" gradientUnits="userSpaceOnUse" x1="312.7703" y1="22.5619" x2="356.3293" y2="22.5619" gradientTransform="matrix(1 0 0 -1 -105 330.5431)">
				<stop  offset="0" style="stop-color:#BC4C31;stop-opacity:0.25"/>
				<stop  offset="0.54" style="stop-color:#BC4C31;stop-opacity:0.12"/>
				<stop  offset="1" style="stop-color:#BC4C31;stop-opacity:0.1"/>
			</linearGradient>
			<path style="clip-path:url(#SVGID_30_);fill:url(#SVGID_32_);" d="M240.7,278.6c0,0-28.3,1.2-33,18.5l7.6,19.3l1.4,21h28.1v-17.8
				c0,0-4.1-17.8,6.5-28.7L240.7,278.6z"/>
			<path style="clip-path:url(#SVGID_30_);fill:#3F424D;" d="M231.3,278.5c0,0-20.7-1-23.3,17.9l8.2,19.4l1.3,20.4h27v-17.3
				c0,0-4-17.3,6.2-27.9L231.3,278.5z"/>
			<g class="st9">
				<g class="st121">
					
						<linearGradient id="SVGID_34_" gradientUnits="userSpaceOnUse" x1="323.881" y1="63.2569" x2="323.881" y2="142.0467" gradientTransform="matrix(1 0 0 -1 0 401.4331)">
						<stop  offset="0" style="stop-color:#BC4C31;stop-opacity:0.25"/>
						<stop  offset="0.54" style="stop-color:#BC4C31;stop-opacity:0.12"/>
						<stop  offset="1" style="stop-color:#BC4C31;stop-opacity:0.1"/>
					</linearGradient>
					<polygon style="fill:url(#SVGID_34_);" points="432.5,259.4 215.2,259.4 215.2,278.4 227.9,278.4 227.9,282.1 227.9,338.2 
						420.3,338.2 420.3,282.1 420.3,278.4 432.5,278.4 					"/>
				</g>
				<rect x="229.8" y="270.5" class="st23" width="188.6" height="67.7"/>
				<rect x="229.8" y="274" class="st96" width="188.6" height="10.6"/>
				<rect x="217.4" y="262.9" class="st23" width="212.9" height="18.1"/>
				<path class="st102" d="M250.5,258.5h35.7c1.4,0,2.5,1.1,2.5,2.5v0.7c0,1.4-1.1,2.5-2.5,2.5h-35.7c-1.4,0-2.5-1.1-2.5-2.5V261
					C247.9,259.6,249.1,258.5,250.5,258.5z"/>
				<path class="st102" d="M285,195.6h75c5.8,0,10.4,4.7,10.4,10.4v47.8c0,5.8-4.7,10.4-10.4,10.4h-75c-5.8,0-10.4-4.7-10.4-10.4
					V206C274.5,200.3,279.2,195.6,285,195.6z"/>
				<path class="st102" d="M286.3,195.6h75c5.8,0,10.4,4.7,10.4,10.4v47.8c0,5.8-4.7,10.4-10.4,10.4h-75c-5.8,0-10.4-4.7-10.4-10.4
					V206C275.9,200.3,280.5,195.6,286.3,195.6z"/>
				<circle class="st23" cx="328.3" cy="229.5" r="3.1"/>
			</g>
		</g>
		<polygon class="st117" points="249.5,194.1 244.9,197 247.2,204.5 252.2,204.5 253.6,197 		"/>
		<polygon class="st117" points="255,255.7 247.9,250.4 247.2,204.5 252.2,204.5 258.3,250.4 		"/>
	</g>
</g>
<g id="Layer_5">
</g>
<g id="Layer_6">
</g>
<g id="Layer_7">
</g>
</svg>
