<?xml version="1.0" encoding="utf-8"?>
<!-- Generator: Adobe Illustrator 24.1.1, SVG Export Plug-In . SVG Version: 6.00 Build 0)  -->
<svg version="1.1" xmlns="http://www.w3.org/2000/svg" xmlns:xlink="http://www.w3.org/1999/xlink" x="0px" y="0px"
	 viewBox="0 0 537.3 400" style="enable-background:new 0 0 537.3 400;" xml:space="preserve">
<style type="text/css">
	.st0{clip-path:url(#SVGID_2_);}
	.st1{clip-path:url(#SVGID_6_);}
	.st2{clip-path:url(#SVGID_10_);}
	.st3{fill:#EBEBF3;}
	.st4{clip-path:url(#SVGID_14_);}
	.st5{fill:#DBDCE9;}
	.st6{clip-path:url(#SVGID_18_);}
	.st7{clip-path:url(#SVGID_22_);}
	.st8{clip-path:url(#SVGID_26_);}
	.st9{clip-path:url(#SVGID_30_);}
	.st10{clip-path:url(#SVGID_34_);}
	.st11{clip-path:url(#SVGID_38_);}
	.st12{clip-path:url(#SVGID_42_);}
	.st13{clip-path:url(#SVGID_46_);}
	.st14{clip-path:url(#SVGID_50_);}
	.st15{clip-path:url(#SVGID_54_);}
	.st16{clip-path:url(#SVGID_58_);}
	.st17{clip-path:url(#SVGID_62_);}
	.st18{clip-path:url(#SVGID_66_);}
	.st19{clip-path:url(#SVGID_70_);}
	.st20{clip-path:url(#SVGID_74_);}
	.st21{clip-path:url(#SVGID_78_);}
	.st22{clip-path:url(#SVGID_82_);}
	.st23{fill:#FFFFFF;}
	.st24{fill:#F9B79D;}
	.st25{fill:#E3E4F0;}
	.st26{clip-path:url(#SVGID_86_);}
	.st27{clip-path:url(#SVGID_90_);}
	.st28{clip-path:url(#SVGID_94_);}
	.st29{clip-path:url(#SVGID_98_);}
	.st30{fill:#D3D6E6;}
	.st31{clip-path:url(#SVGID_102_);}
	.st32{clip-path:url(#SVGID_106_);}
	.st33{clip-path:url(#SVGID_110_);}
	.st34{clip-path:url(#SVGID_114_);}
	.st35{clip-path:url(#SVGID_118_);}
	.st36{clip-path:url(#SVGID_122_);}
	.st37{clip-path:url(#SVGID_126_);}
	.st38{fill:#325797;}
	.st39{fill:#CFCED1;}
	.st40{fill:#CE9888;}
	.st41{fill:#2C4F86;}
	.st42{clip-path:url(#SVGID_130_);}
	.st43{clip-path:url(#SVGID_134_);}
	.st44{fill:#C1C1CA;}
	.st45{clip-path:url(#SVGID_138_);}
	.st46{clip-path:url(#SVGID_142_);}
	.st47{clip-path:url(#SVGID_146_);}
	.st48{clip-path:url(#SVGID_150_);}
	.st49{clip-path:url(#SVGID_154_);}
	.st50{clip-path:url(#SVGID_158_);}
	.st51{clip-path:url(#SVGID_162_);}
	.st52{clip-path:url(#SVGID_166_);}
	.st53{fill:#AE827A;}
	.st54{fill:#6B341F;}
	.st55{clip-path:url(#SVGID_170_);}
	.st56{clip-path:url(#SVGID_174_);}
	.st57{clip-path:url(#SVGID_178_);}
	.st58{clip-path:url(#SVGID_182_);}
	.st59{clip-path:url(#SVGID_186_);}
	.st60{clip-path:url(#SVGID_190_);}
	.st61{clip-path:url(#SVGID_194_);}
	.st62{clip-path:url(#SVGID_198_);}
	.st63{clip-path:url(#SVGID_202_);}
	.st64{clip-path:url(#SVGID_206_);}
	.st65{clip-path:url(#SVGID_210_);}
	.st66{fill:#EB5E37;}
	.st67{fill:#4B2D4F;}
	.st68{fill:#BDBCC7;}
	.st69{fill:#C65437;}
	.st70{fill:#243068;}
	.st71{fill:#202D5E;}
	.st72{fill:#422948;}
	.st73{clip-path:url(#SVGID_214_);}
	.st74{clip-path:url(#SVGID_218_);}
	.st75{clip-path:url(#SVGID_222_);}
	.st76{fill:#C3C2CB;}
	.st77{fill:#B8B8C7;}
	.st78{clip-path:url(#SVGID_226_);}
	.st79{fill:#2E5695;}
	.st80{fill:#2C4F87;}
	.st81{clip-path:url(#SVGID_230_);}
	.st82{fill:#C7CADF;}
	.st83{clip-path:url(#SVGID_234_);}
	.st84{fill:#E7AC9C;}
	.st85{fill:#E05F41;}
	.st86{fill:#B2B3C3;}
	.st87{fill:#C4938A;}
	.st88{fill:#C05641;}
	.st89{fill:#22336B;}
	.st90{fill:#1F3162;}
	.st91{fill:#393F4B;}
	.st92{fill:#F6F4F4;}
	.st93{fill:#CAC9CB;}
	.st94{fill:#FAB150;}
	.st95{opacity:0.1;fill:#F6D2D1;}
	.st96{opacity:0.1;enable-background:new    ;}
	.st97{fill:url(#SVGID_237_);}
	.st98{fill:#324E90;}
	.st99{fill:#BCD1E6;}
	.st100{fill:#B9616E;}
	.st101{fill:#F6D2D1;}
	.st102{fill:#3F424D;}
	.st103{fill:#F7BEA5;}
	.st104{fill:#72351C;}
	.st105{fill:#E7552C;}
	.st106{fill:#512D4D;}
	.st107{fill:#FFD762;}
	.st108{opacity:0.1;}
	.st109{fill:#61C2EF;}
	.st110{opacity:0.3;clip-path:url(#SVGID_239_);fill:#324E91;enable-background:new    ;}
	.st111{opacity:0.1;fill:#324E91;enable-background:new    ;}
	.st112{opacity:0.3;fill:#324E91;enable-background:new    ;}
	.st113{fill:#5B539E;}
	.st114{fill:url(#SVGID_240_);}
	.st115{fill:#324E91;}
	.st116{fill:#5781C1;}
	.st117{fill:#F9B547;}
	.st118{opacity:0.1;fill:#FFFFFF;enable-background:new    ;}
	.st119{opacity:0.1;fill:#324E90;}
	.st120{opacity:0.2;fill:#324E90;enable-background:new    ;}
	.st121{opacity:0.7;}
	.st122{opacity:0.6;fill:#324E90;enable-background:new    ;}
	.st123{opacity:0.25;enable-background:new    ;}
	.st124{fill:url(#SVGID_241_);}
	.st125{fill:url(#SVGID_242_);}
	.st126{fill:url(#SVGID_243_);}
	.st127{fill:url(#SVGID_244_);}
	.st128{fill:url(#SVGID_245_);}
	.st129{fill:url(#SVGID_246_);}
	.st130{fill:url(#SVGID_247_);}
	.st131{opacity:0.1;fill:url(#SVGID_248_);enable-background:new    ;}
	.st132{opacity:0.1;fill:url(#SVGID_249_);enable-background:new    ;}
	.st133{opacity:0.1;fill:url(#SVGID_250_);enable-background:new    ;}
	.st134{fill:url(#SVGID_251_);}
	.st135{fill:url(#SVGID_252_);}
	.st136{fill:url(#SVGID_253_);}
	.st137{fill:url(#SVGID_254_);}
	.st138{fill:#262D62;}
	.st139{clip-path:url(#SVGID_256_);fill:url(#SVGID_257_);}
	.st140{clip-path:url(#SVGID_256_);fill:#3F424D;}
	.st141{clip-path:url(#SVGID_256_);}
	.st142{fill:url(#SVGID_258_);}
	.st143{opacity:5.000000e-02;enable-background:new    ;}
	.st144{opacity:0.1;fill:#E7552C;}
	.st145{opacity:0.13;clip-path:url(#SVGID_260_);fill:#FFFFFF;}
	.st146{opacity:0.13;fill:#FFFFFF;}
	.st147{opacity:0.98;fill:#FFFFFF;}
	.st148{clip-path:url(#SVGID_262_);}
	.st149{fill:#315798;}
	.st150{fill:#5381C1;}
	.st151{fill:#AFCAE0;}
	.st152{clip-path:url(#SVGID_266_);}
	.st153{fill:#2A4778;}
	.st154{fill:#B2626E;}
	.st155{fill:#95726B;}
	.st156{fill:#9B5864;}
	.st157{fill:#595BA7;}
	.st158{fill:#FABFA6;}
	.st159{fill:#6867AE;}
	.st160{fill:#F3C8C7;}
</style>
<g id="Layer_1">
</g>
<g id="Layer_2">
	<g>
		<path class="st95" d="M401.5,23.6c-70.7,1.9-91.5,59.6-176.7,52S89.4,13.6,45.4,91C2.9,165.5,8.8,266.5,94.8,307.1
			s295.3,43.2,386.3-42.5C527.3,221.1,555.6,19.5,401.5,23.6z"/>
		<path class="st96" d="M362.5,276.2c0,0,6.2-3.7,14.8-1.8c8.5,1.8,21.6,0.8,22.8,0.7L362.5,276.2z"/>
		<path class="st96" d="M397.6,215c0,0-2.7,30.7-4.5,36.7C391.2,257.7,397.6,215,397.6,215z"/>
		
			<linearGradient id="SVGID_2_" gradientUnits="userSpaceOnUse" x1="323.88" y1="-24.515" x2="323.88" y2="223.8139" gradientTransform="matrix(1 0 0 -1 -37.44 351.9031)">
			<stop  offset="0" style="stop-color:#BC4C31;stop-opacity:0.25"/>
			<stop  offset="0.54" style="stop-color:#BC4C31;stop-opacity:0.12"/>
			<stop  offset="1" style="stop-color:#BC4C31;stop-opacity:0.1"/>
		</linearGradient>
		<path style="fill:url(#SVGID_2_);" d="M440.5,229.8c-1.7-1.5-6.9-10.5-8.4-13.1l-0.4-0.7l0,0c0.5-2-2.8-4.9-3.8-5.7
			c-2.1-2.4-5-5.4-7.4-6.2c-3.1-0.9-5.3,0.1-7.6-0.3c-0.6-0.1-1.1-0.3-1.7-0.5c-0.3-0.2-0.7-0.4-1-0.6c-0.8-0.6-1.6-1.3-2.2-2.1
			c0.4-0.1,0.9-0.2,1.3-0.3c2.4-0.9,4.8-1.9,7.1-3c0.5-0.2,1.1-0.5,1.3-1.1c0.1-0.2,0.1-0.5,0.2-0.7c0.2-0.5,0.8-0.7,1.3-0.8
			c1.8-0.5,3.7-1.6,4-3.5c0-0.2,0-0.5,0-0.7c-0.1,0.2-0.2,0.4-0.3,0.5c0.1-0.6,0-1.3,0.1-1.9c0.1-0.5,0.3-1,0.6-1.5
			c0,0.2,0,0.4,0,0.6c0.7-1.5,2.4-2.6,2.9-4.2c0.1-0.4,0.2-0.9,0.2-1.3c-0.1,0.2-0.2,0.5-0.4,0.7c0.3-1.8-0.5-3.9,0.5-5.5
			c0.1-0.1,0.1-0.2,0.2-0.3c0,0.2,0,0.4-0.1,0.6c0-0.1,0.1-0.2,0.2-0.3c0.4-0.8,1.2-1.3,1.5-2.2c0.1-0.3,0.1-0.6,0-1
			c-0.1,0.1-0.2,0.3-0.3,0.4c0-0.4-0.1-0.8-0.2-1.2c-0.7-2.9-1.7-6.2-4.4-7.4c-0.8-0.4-1.8-0.5-2.4-1.1c-1.5-1.4-0.7-4.4-2.4-5.5
			c-0.8-0.5-1.9-0.5-2.2-1.4c-0.2-0.5,0.1-1-0.1-1.5c-0.4-1-1.9-0.7-3-0.6c-1.5,0.1-3.1-1.3-2.9-2.8c-2.1-1.1-4.5-1.2-6.7-0.3
			c-1.1,0.5-2.2,1.2-3.4,1.1c-0.6-0.1-1.1-0.3-1.7-0.4c-2.4-0.4-4.4,1.6-6.7,2.5c-2.4,0.9-5.3,0.5-7.1,2.2c-1.6,1.5-1.9,4.1-3.7,5.5
			c-0.9,0.7-2.1,1-3.1,1.6c-1,0.7-1.7,2.1-0.9,3c0.9,1.2,3.4,0.5,3.8,2c0.4,1.1-1,2-1.6,3.1c-0.5,1.2,0,2.6,1.2,3.1
			c0.1,0.1,0.3,0.1,0.4,0.1l0,0v0c-2.4,7.1,0.7,15,7.3,18.5c0.2,0.4,0.4,0.8,0.7,1.3c1.3,2.6,2.9,6.3,3.3,9.9
			c-1.6-0.5-4.9,2.5-4.9,2.5c-1.7,0.4-3.4,0.7-5.1,0.9c-3.6,0.5-3.3,1.9-3.3,1.9l-0.2,0.2c-1.8,1.6-14.4,12.9-16.4,13.3l0.1,0.4
			l-0.5,0.4l-6.2,4.6l0,0c0,0-4.8,0.3-9.4,0.8c-4.7,0.5-11.3,2-6.5,7.6c0.1,0.2,0.3,0.3,0.4,0.4l-18.8-1.1c0.1-0.1,0.2-0.3,0.2-0.5
			c0-0.4-0.5-0.8-1.3-1.2l0-0.1c2.4-0.1,5.3-0.2,7.3-0.4c0.5-0.1,0.9-0.1,1.3-0.2c2.9-0.5-0.2-2.7,1.2-4.5c1.4-1.8,0-8.3,0.1-9.7
			c0.1-1.4-0.9-7-1.9-8.2c-0.9-1.2-1.1-6.2-1.1-6.2s-2.2-2-3.5-8.8s-6.4-10.3-8.1-10.7s-4.1-1.8-4.1-2.1c0-0.4-2.8-0.5-4-0.9
			s-1.8-1.1-2.7-1.2l0,0c0.3-0.4,0.6-0.8,0.8-1.2c0.2-0.5,0.6-0.9,1-1.1c0.1,0,0.2-0.1,0.3-0.1c0.1,0,0.2,0,0.3,0c0.1,0,0.2,0,0.3,0
			c0.3,0.1,0.7,0.4,1,0.2c0,0,0.1-0.1,0.1-0.1c0.1-0.1,0.2-0.3,0.2-0.4l0,0c0-0.2,0.1-0.4,0.1-0.5c0,0,0,0,0,0c0-0.2,0-0.4,0-0.5
			l0,0c0.1-1.3-0.1-2.7,0.5-3.8l0-0.1l0,0c0.6-1.1,1.8-1.7,2.8-2.5c0.2-0.2,0.4-0.3,0.6-0.5c0.1-0.1,0.1-0.1,0.2-0.2
			s0.2-0.2,0.3-0.3c0.1-0.1,0.2-0.2,0.2-0.3c0.1-0.1,0.2-0.2,0.2-0.3s0.2-0.3,0.3-0.4s0.1-0.2,0.2-0.3s0.2-0.3,0.2-0.5
			c0-0.1,0.1-0.1,0.1-0.2c0.1-0.2,0.2-0.3,0.2-0.5c0-0.1,0-0.1,0.1-0.2c0.1-0.2,0.1-0.4,0.2-0.6c0,0,0-0.1,0-0.1
			c0.1-0.4,0.2-0.8,0.2-1.3c0.2-2.2-0.5-4.4-1.9-6.1c-1.1-1.3-2.6-2.4-2.7-4c0-0.8,0.2-1.6,0.5-2.3l0,0c0.1-0.3,0.2-0.6,0.2-1l0,0
			c0-0.2,0-0.3,0-0.5c0-1.2-0.8-2.3-1.7-3.2c-2.6-2.4-6.3-3.4-9.8-2.6c-0.9,0.2-1.8,0.6-2.7,0.4c-1.1-0.1-2-0.8-2.9-1.3
			c-3.2-1.6-7.5-0.4-9.4,2.5c-1.1,1.7-1.5,4-3.2,5.2c-1,0.7-2.3,1-3,2l0,0c-0.1,0.1-0.2,0.2-0.2,0.3c-0.2,0.4-0.3,0.8-0.3,1.2
			c0,0.4,0,0.8,0.1,1.2c0.2,1.3,0.8,2.5,1.8,3.4l0,0l0.2,0.3l0.1,0.1c0.2,0.2,0.3,0.4,0.5,0.6l0,0l0.1,0.2c-0.1,0.1-0.1,0.1-0.2,0.2
			c-4.8,6-3.9,14.8,2.1,19.7c0,0.1,0,0.3,0,0.5c0,0.8-0.1,1.6-0.2,2.5c-0.4-0.4-1-0.6-1.6-0.6c-0.3,0-0.5,0-0.8,0.1
			c-0.1,0-0.3,0.1-0.5,0.1c-0.6-0.1-1.2-0.3-1.8-0.2c-0.6-0.1-1.2,0.1-1.7,0.6c-1.2,1.1-5.2,2.5-7.2,2.6c-0.1,0-0.3,0-0.4-0.1
			c-0.2-0.1-0.4-0.1-0.6-0.1c-1.2-0.3-4.7,2.1-5.4,3.6c-0.8,1.5-3.5,5.6-3.5,5.6s-2.3,2.8-2,4.3c0.4,1.5-0.8,3.3-2.2,4
			c-1.4,0.7-4.2,7.7-4.2,7.7s-3,6.5-6.2,8.1c-1.2,0.6-1.6,2.1-1.7,3.7c-0.7,0-1.3,0-1.3,0s-9.8,2.5-13,0.6s-14.1-2.3-14.1-2.3
			l-11.2-11.9l-0.5-0.5c2-1.7-1.4-2.9-1.4-4.1c0-1.2-1.2-1.7-1.2-1.7s-0.1,0.1-0.1,0.2c-0.1-0.1-0.2-0.1-0.3-0.2
			c-0.3,0.3-0.6,0.6-0.9,0.8c-0.2-0.1-0.4-0.6-0.3-1.6c0.1-1.9-1.1-3.9-2.1-5.2c1.4-4.6,4-9.7,6-13.3c0.1-0.2,0.2-0.4,0.3-0.6
			c6.9-3.1,10-11.2,6.9-18.2c-0.6-1.3-1.3-2.4-2.2-3.5c-0.1-0.2-0.3-0.3-0.4-0.5c0.1,0,0.2-0.1,0.3-0.1c0.1,0,0.3,0,0.4,0
			c1,0,2.2,0.5,3.1,0.4c0.3,0,0.6,0,0.9-0.2c1-0.5,0.8-1.9,0.2-2.6c-0.7-0.8-1.9-1.4-2.4-2.4c-0.3-0.6-0.4-1.2-0.6-1.8
			c-0.6-1.9-2.1-3.4-4-4.1c-2-0.8-4.2-0.7-6.2,0.1c-0.9,0.4-1.7,1-2.7,1.3c-2,0.7-4.2,0.3-6.3-0.2c-1.2-0.3-2.4-0.7-3.6-1
			c-0.3-1.8-0.8-3.6-1.7-5.2c-0.1-0.1-0.1-0.3-0.2-0.4c2-0.7,4.7-0.6,5.8-2.4c0.7,0.1,1.3,0,1.9-0.3c0.6-0.3,1-1,0.8-1.6
			c-0.1-0.1-0.1-0.3-0.3-0.4l0,0c-0.3-0.2-0.5-0.5-0.8-0.6c-1.3-0.9-2.1-2.3-2.2-3.9c0,0,0,0.1,0,0.1c0-0.2,0-0.4,0-0.5
			c0-0.8,0.3-1.6,0.2-2.4c0-0.3-0.1-0.7-0.2-1c0,0,0,0,0,0.1c-0.5-1.4-1.9-2.3-3.4-2.3c-0.5,0-1.1,0.2-1.6,0.2
			c-2.5,0.1-4.6-2.8-7.1-2.2c-0.5,0.1-1,0.4-1.6,0.4c-1.2,0-2-1.4-3.2-1.8c-0.9-0.3-2,0.1-3,0c-1-0.1-1.7-0.7-2.6-1.1
			c-1.8-1-4.2-1.4-5.7-0.1c-0.3,0.3-0.7,0.6-1.1,0.9c-0.5,0.2-1.1,0.2-1.6,0.1c-1.6-0.2-3.2,0-4.8,0.3c-0.4,0.1-0.8,0.3-1.1,0.6
			c-0.2,0.4-0.3,0.7-0.3,1.1c-0.5,1.8-2.8,2.5-4.6,2.6c-0.5,0-1,0.1-1.4,0.4c-0.7,0.5-0.7,1.6-0.4,2.4c0.3,0.8,0.8,1.5,0.9,2.4
			c0.3,2.1-2,3.8-2.4,5.9c-0.5,2.9,2.7,5.8,1.6,8.6c-0.5,1.2-1.8,2.2-1.7,3.5c0.1,1.3,1.3,2.1,2.1,3.1c0.8,1,1.1,2.2,1.4,3.4
			c0.5,1.8,0.5,5.3,2.5,6.2l0,0c0.1,0,0.2,0.1,0.3,0.1c0.1,0,0.2,0.1,0.3,0.1c-0.1,0.1-0.2,0.3-0.3,0.4c-2.3,3.3-4.9,6.5-7.3,8.5
			c-0.1,0.1-0.2,0.1-0.3,0.2c-0.3-0.3-0.7-0.4-1-0.5c-1.4-0.2-5,2.3-5,3.6c0,1.2-3.3,3.3-7.1,6.9c-3.8,3.6-3.7,20.8-2.5,24.1
			c0.5,1.3,1.2,4.7,1.8,8.3c-0.8,0.6-1.4,1.5-1.7,2.5c-1.4,5.9,0.6,10.6,2.3,11.1c1.7,0.5,1.3-2,1.3-2c-1.4-3-1.6-5.3-1.1-7
			c0.6,3.9,1.1,7,1.1,7s4.5,14.4,6.2,18.8c1.7,4.4,7.8,31.8,7.8,31.8s0.7,0.8,1.9,2.1l1.4,7.8l2.3,4.7h0.2l-0.4,3.3
			c0,0,0.3,14.1-0.5,16.2c-0.8,2.1-7.7,40.4-7.7,40.4s-2.2,13.5-2,16.7l5.1,1.1c0,0-1-2.9,0.5-8.3c1.5-5.4,4.4-15.5,4.4-15.5l3-13.5
			l0.2,9.6c0,0-2.7,12-2.1,12.6c0.5,0.6,4.6,0.8,4.6,0.8s0-6.4,0.8-9.9c0.7-3.1,9-34.9,11.1-43c2.9-1.2,6-1.7,9.2-1.5
			c10.5,0.6,16.4,4.4,19.7,8.4c-7.5,4-13.9,7.3-13.9,7.3l0.1,0.4l0,0l-0.1,0l-0.2,0.1l-0.1,0l-0.2,0.1l-0.1,0.1l-0.2,0.1l-0.1,0.1
			l-0.2,0.1l-0.1,0.1l-0.7,0.4l-0.1,0l-0.3,0.2l-0.1,0.1l-0.3,0.2l-0.1,0.1l-0.4,0.2l0,0L180,326l0,0l-0.4,0.2l0,0l-0.4,0.2
			l-0.1,0.1l-0.3,0.2l-0.1,0.1l-0.3,0.2l-0.1,0.1l-0.3,0.2l-0.1,0.1l-0.4,0.2l0,0l-0.4,0.2l-0.1,0.1l-0.3,0.2l-0.1,0.1l-0.3,0.1
			l-0.1,0.1l-0.3,0.1l-0.1,0.1l-0.3,0.2l-0.1,0l-0.3,0.2l-0.1,0l-0.2,0.1l-0.1,0l-0.2,0.1l-0.1,0l-0.2,0.1l-0.1,0l-0.2,0.1l-0.1,0
			l-0.2,0.1c-2,0.6-3.4,5.7-1.3,9c2.2,3.3,1.7,9,0.6,11.2s0.3,6.1,0.6,7c0.2,0.7,2.8,1.5,7,1.4c2.2,0.1,4.5-0.1,6.7-0.5
			c6.6-1.2,4.2-3.9,3.4-5.8c-0.7-1.9-0.8-7.5,0.1-10.1c0.1-0.2,0.1-0.4,0.2-0.5c1.6-1.7,4-4.6,6-7.1c0.9-1.2,3.2-2.2,6-3.1
			c2.2,9.2,6.7,27.4,7.7,30.3c1.3,3.9,2,13.5,2,13.5l5.1-0.5l-1.7-25.6l-1.8-20.4c2.4-0.4,4.3-0.7,4.9-0.8
			c2.5,9.7,4.9,18.9,5.3,20.5c0.8,3.5,0.8,9.9,0.8,9.9s4.1-0.2,4.6-0.8c0.5-0.6-2.1-12.6-2.1-12.6l0.5-21.2c5.8-2.7,12.9-6,16.1-7.4
			c2.9-1.3,7.8-4.3,11.9-7l7.2,58.9l4.2,0.4l2.3-0.5l2.9-0.7l6.6-53.1c0.3,0.2,0.5,0.4,0.7,0.6c-0.1,1.3-0.3,3.6,0.3,5.2
			c0.8,2.5,0.7,7.9,0.1,9.7c-0.6,1.9-2.6,4.5,2.8,5.6s9,0.1,9.3-0.8c0.2-0.9,1.4-4.7,0.5-6.8c-0.9-2.1-1.3-7.6,0.5-10.8
			c1.7-3.2,0.6-8.1-1.1-8.7c-1.1-0.4-2.7-1.1-3.6-1.5l-0.3-0.4c0.7-0.9,1.6-1.7,2.5-2.2c2.8-1.4,2.2-4.6,2.2-4.6s2.9,0,5-3.5
			c1.5-2.5,3.2-4.9,4.1-6.7c0.2,1.1,0.4,2.5,0.5,3.7c0.2,2.5,3.1,26.8,4.4,28.9c1.3,2,0.2,9.7,0.2,9.7h4.3l-0.3-11.7
			c0,0-4.8-34.5-0.8-38c0.7-0.6,1.4-1.2,2.1-1.9l8,58.5c0,0.4,0,0.7-0.1,1s0,0.4,0,0.4s-3.4,1.7-0.9,3.4c0.5,0.3,1.1,0.6,1.8,0.7
			l0.2,1.3c-0.9,0.1-1.8,0.1-2.7,0c-0.5-0.2-0.5,7.3-0.5,7.3s-3,6.1-3.4,7.6c-0.4,1.5-3.4,5.2-3.4,5.2s-4.4,3.2,2,4.5
			c6.4,1.3,13.4-0.4,13.4-0.4s4.7-8.1,5.1-7.7c0.4,0.5,0,4.3,0,4.3l2.7-0.7c0,0-0.5-5.1,0.6-7.8c0.8-2.2-1-9-1.8-11.8l0.5,0
			c0,0,0.5-0.9,0.9-3.8c0-0.1,0-0.2,0-0.3c0.3-2,0.8-4,1.5-6c0.8-2.5,0-2.2,0-3.8c0.1-2.7,0.4-5.4,0.8-8c0-0.1,0-0.2,0-0.2
			c0.3,0.2,0.7,0.4,1.1,0.5c0.5,1.3,1,2.8,1.3,4c-0.8,0.3-1.4,0.6-1.5,0.9c-0.5,1.7,0.2,5.4,0.2,5.4s0.7,8.3-0.6,9.5
			c-1.3,1.3-4.1,3.5-2.3,5.9c0.2,0.2,0.4,0.4,0.6,0.6c1.3,0.9,3.7,1.6,6.2,1.7l-1,15.3l5.1,0.5c0,0,0.7-9.6,2-13.5
			c0.3-0.8,0.9-3.1,1.7-6.1c1.9-2.9,3-5,3-5l1.3,5.5l4.6-1.2c0,0-2.5-4.8-2.2-6.6c0.3-1.7-1.3-4.1-2.6-6.1c-0.2-0.2-0.3-0.6-0.5-0.9
			c2-8,3.7-15.3,3.7-15.3s1.2-16.3,23.8-17.5c3.1-0.2,6.3,0.3,9.1,1.5c2.1,8.1,10.4,39.9,11.1,43c0.8,3.5,0.8,9.9,0.8,9.9
			s4.1-0.2,4.6-0.8c0.5-0.6-2.1-12.6-2.1-12.6l0.2-9.6l3,13.5c0,0,2.9,10.1,4.4,15.5c1.5,5.4,0.5,8.3,0.5,8.3l5.1-1.1
			c0.2-3.3-2-16.7-2-16.7s-6.9-38.3-7.7-40.4c-0.8-2.1-0.5-16.2-0.5-16.2l-0.3-3.3c5.5-3.9,8.6-24.6,8.6-24.6l5.8-32.2
			c0.9-1.7,1.7-3.4,2.3-5.2v0l0.7,0.8l3.3,8.2c6.6,9.3,13.3,9,13.3,9c0,0,0,0,0-0.1c1.2,0.2,2.4-0.1,3.4-0.9l0.1-0.1
			C447.5,245,442.5,231.6,440.5,229.8z M323.3,249.3c-0.4-1.5-0.8-3.2-1.2-5l1.3,0L323.3,249.3z M303.3,184.3
			c-0.1,0.1-0.3,0.2-0.4,0.3c-0.1-0.3-0.2-0.6-0.4-1C302.8,183.9,303,184.2,303.3,184.3z M263.2,252.5c-2,2.6-2.2,4.2-2.2,4.2
			l0.5,0.1l-3.6,3.2l-1.8-15.7l8.8,0.4C264.3,248.6,263.7,251.7,263.2,252.5z M271.7,285.1c0,0,1.8-0.4,4.2-1.1l-0.8,5.6
			C273,286.9,271.7,285.1,271.7,285.1z M266.6,223.1l0.1-0.1L266.6,223.1L266.6,223.1z M221.6,261.9c-2-0.9-15.9-5.2-21-6.7
			c-0.1-0.2-0.2-0.5-0.1-0.8c0.5-1.6-3.1-5.8-4.5-6.9c-1.4-1.1-3.3-3.1-1.7-4.4c0.4-0.4,0.7-0.9,0.8-1.4l14.5,0.6
			c1.4,0.5,2.8,0.9,4.2,1.3c0,0,2.5-0.3,5.7-0.8l28.7,1.2l2.7,22.2c-1.8,1.6-3,2.8-3,2.9c0,0.2-1.9,3.5-2.2,7.8l-15-4.7
			c0-0.1,0.1-0.2,0.1-0.2C232.3,266.9,224,263,221.6,261.9z M195.3,238.1c0-1-0.1-1.8-0.1-1.8l-0.3-3.5c2.8,1.7,5.9,3.6,8.1,5.1
			L195.3,238.1z M263,304.2l0.3-0.2c0.8-0.3,1.6-0.8,2.1-1.5c1.3,1.1,2.4,2.1,3.4,3c-1.2,1.1-3.3,2.9-5.3,3.8L263,304.2z
			 M322.8,279.8l-0.6,30.4L318,282C319.2,281.4,321.1,280.5,322.8,279.8z M349.1,238.4c0,0,4.5,5.6,8,3.8l0,0
			c0.8,0.1,6.5-3,10.2-5.1c0.5,0.8,1.1,1.5,1.8,2.2l2.2-1.2l0.4-0.2c0.2,2.4,0.6,6.5,0.9,9.1c0.5,3.9-6,9.2-6.1,9.2l0,0
			c0,0,0,0.2,0,0.5c-0.3,0.3-0.5,0.4-0.5,0.4l0.5-0.1c0,1.2,0,3.4-1.2,3.9c-1.6,0.6-2.5,1.1-5.6,0.2c-3.8-1-7.7-1.7-11.6-1.9
			c-5.4-0.3-11.2,0.3-14,3.5c-0.1,0.1-0.2,0.2-0.3,0.4s-0.1,0.1-0.1,0.2c-0.1,0-0.2,0.1-0.3,0.1c0,0,0,0.1,0,0.3
			c-1.5,2.7-1.9,7.8-1.8,13.2l-0.5,0.2l-0.2,0.1l-0.2,0.1c-0.2,0.1-0.3,0.2-0.5,0.2l-0.3,0.1l-0.4,0.2l-0.4,0.2l-0.2,0.1
			c-0.2,0.1-0.4,0.2-0.5,0.3l-0.1,0.1c-0.2,0.1-0.4,0.3-0.6,0.4l-0.1,0c-0.1,0.1-0.1,0.1-0.2,0.2l0.5-34.9l23.1-0.4l-0.4-3.3
			l-3.6-0.2C348,239.7,348.6,239.1,349.1,238.4z M183.4,325.3l0.1-0.3c0,0,0-0.1,0-0.1l0.1-0.3l0,0l0.1,0.7
			c-0.2,0.1-0.3,0.2-0.5,0.3C183.3,325.4,183.4,325.3,183.4,325.3L183.4,325.3z M265,321.6c2.1-0.4,4.1-0.9,6.1-1.7l-3.4,25.2
			L265,321.6z M322.5,343.9c0.3,0.1,0.6,0.1,1,0.2v0.7l-1,0.1L322.5,343.9z"/>
		<path class="st98" d="M188.9,334.8c0,0,0.8,4-0.1,6.5c-1,2.5-0.8,8.1-0.1,10s3.2,4.6-3.4,5.8c-6.6,1.2-11,0.1-11.3-0.8
			c-0.3-1-1.7-4.8-0.6-7c1.1-2.2,1.6-7.8-0.6-11.1c-2.1-3.3-0.7-8.3,1.3-8.9c2-0.6,10.7-5.7,10.7-5.7s-3.2,5.6,0.2,6.8
			C186.9,331.1,188.4,332.8,188.9,334.8z"/>
		<path class="st99" d="M261.3,304c0,0-13.2,9.2-19,11.7s-24.9,11.5-24.9,11.5s-19.3,2.5-22.4,6.5c-3.1,4.1-7.5,8.7-7.5,8.7l-3.4-19
			c0,0,38-19.6,38.3-21c0.3-1.4,11.2-5.6-20.6-5.5c-27.8,0.1-38.1,1.9-40.4-1.9c-0.3-0.6-0.5-1.3-0.5-2
			c-0.3-6.4,37.4-34.6,37.4-34.6s1.8,1,4,2.3c2.4,1.4,5.2,3.2,6.6,4.6c2.5,2.6,8.6,3.4,8.6,3.4l37.1,11.5c0,0,10.9,3.4,11.2,13.1
			S261.3,304,261.3,304z"/>
		<path class="st96" d="M265.6,293.4c-0.3-9.7-11.2-13.1-11.2-13.1l-37.1-11.5c0,0-6.1-0.8-8.6-3.4c-1.3-1.4-4.1-3.2-6.6-4.6
			c-2.2-1.3-4-2.3-4-2.3s-37.7,28.2-37.4,34.6c0,0.7,0.2,1.4,0.5,2c2.3,3.9,12.6,2,40.4,1.9c31.8-0.2,20.9,4.1,20.6,5.5
			c-0.3,1.4-38.3,21-38.3,21l0.1,0.4c-1.9,1.1-8.4,4.9-10.1,5.4c-2,0.6-3.4,5.7-1.3,8.9s1.7,8.9,0.6,11.1c-1.1,2.2,0.3,6,0.6,7
			c0.3,1,4.7,2.1,11.3,0.8c6.6-1.2,4.2-3.9,3.4-5.8c-0.7-1.9-0.8-7.5,0.1-10c0.1-0.2,0.1-0.4,0.2-0.5c1.5-1.7,4-4.5,6-7.1
			c3.1-4.1,22.4-6.5,22.4-6.5s19.2-9,24.9-11.5s19-11.7,19-11.7S265.9,303,265.6,293.4z M184.9,330.3c-2.6-0.9-1.4-4.3-0.7-5.9
			l1.1,6.1C185.1,330.4,185,330.4,184.9,330.3L184.9,330.3z"/>
		<path class="st100" d="M213.1,302.9c0,0,10.7,41.1,11.6,44.6s0.8,9.9,0.8,9.9s4.1-0.2,4.6-0.8s-2.1-12.5-2.1-12.5l0.8-33.3
			l-11.4-9.6L213.1,302.9z"/>
		<rect x="185.1" y="325.1" class="st101" width="8.4" height="7.2"/>
		<path class="st98" d="M191.2,334.8c0,0,0.8,4-0.1,6.5c-1,2.5-0.8,8.1-0.1,10s3.1,4.6-3.4,5.8c-6.6,1.2-11,0.1-11.3-0.8
			s-1.7-4.8-0.6-7c1.1-2.2,1.6-7.8-0.6-11.1c-2.1-3.3-0.7-8.3,1.3-8.9c2-0.6,10.6-5.7,10.6-5.7s-3.2,5.6,0.2,6.8
			C189.2,331.1,190.7,332.7,191.2,334.8z"/>
		<path class="st102" d="M199.3,254.8c0,0,20.3,6.2,22.7,7.2c2.4,1.1,10.7,4.9,9.3,10c-1.4,5.1-12.9,5.7-12.9,5.7l-17.4-6.5
			l-6.9-13.9L199.3,254.8z"/>
		<path class="st103" d="M205.9,183.5c0,0-1,1.6-2.4,3.9c-0.1,0.2-0.2,0.4-0.3,0.6c-3.7,6.6-9.5,18.5-5.8,22.3c5.3,5.4-12-3-12-3
			l-0.4-0.8l-7.1-12.8c0,0,5.5-5.6,8.9-10.5c0.1-0.1,0.1-0.2,0.2-0.2c1.5-2.2,2.5-4.3,2.3-5.6c-0.2-1.3,1.4-1.2,3.8-0.4
			C197.9,178.8,205.9,183.5,205.9,183.5z"/>
		<path class="st96" d="M205.9,183.5c0,0-1,1.6-2.4,3.9c-0.1,0.2-0.2,0.4-0.3,0.6c-2.4,1-5.1,1.3-7.7,0.8c-3.4-0.6-6.5-2.6-8.6-5.4
			c-0.1-0.1-0.1-0.1-0.2-0.2c0.1-0.1,0.1-0.2,0.2-0.2c1.5-2.2,2.5-4.3,2.3-5.6c-0.2-1.3,1.4-1.2,3.8-0.4
			C197.9,178.8,205.9,183.5,205.9,183.5z"/>
		<path class="st103" d="M211.6,175c0,7.5-6.1,13.7-13.7,13.7l0,0c-0.8,0-1.7-0.1-2.5-0.2c-7.4-1.4-12.3-8.5-11-15.9
			c1.4-7.4,8.5-12.3,15.9-11C206.9,162.7,211.6,168.4,211.6,175L211.6,175z"/>
		<path class="st96" d="M208.2,165.9c-0.8,0.3-1.4,0.8-2.1,1.3c-1.3,0.7-3.1,0.7-4.3,1.5c-1,0.6-1,1.9-1.5,2.9
			c-1.2,2.6-5.4,3.3-7.3,5.5c-0.2,0.2-0.3,0.4-0.4,0.6c-1,1.7-0.4,3.9,0.4,5.7c0.7,1.7,1.6,3.5,2.5,5.1c0.2,0.3,0.3,0.6,0.5,0.9
			c1,1.7,2.2,3.6,1.6,5.4c-1,3-6.1,3.7-7.6,6.5c-0.4,0.8-0.5,1.8-1,2.6c-0.8,1.4-2.4,2.1-4.1,2.8l-7.1-12.8c0,0,5.7-5.8,9.1-10.8
			c-4.5-6.1-3.1-14.6,3-19.1C195.6,159.8,203.5,160.6,208.2,165.9L208.2,165.9z"/>
		<path class="st104" d="M212.7,163c-0.7-0.8-1.9-1.4-2.4-2.4c-0.3-0.6-0.4-1.2-0.6-1.8c-0.6-1.9-2.1-3.4-3.9-4.1
			c-2-0.8-4.2-0.7-6.2,0.1c-0.9,0.4-1.7,1-2.7,1.3c-2,0.7-4.2,0.3-6.3-0.2s-4.1-1.3-6.2-1.3c-2.1,0-4.5,1.1-4.9,2.9
			c-0.1,0.5-0.1,1-0.1,1.5c-0.3,2.2-2.2,3.9-4.4,5.1s-4.6,2-6.5,3.4s-3.5,3.5-3,5.6c0.3,1.3,1.4,2.4,2.3,3.5c2.2,2.9,3,6.3,3.8,9.7
			c0.3,1.2,0.6,2.4,0.3,3.5c-0.5,2.1-2.7,3.6-4.1,5.3c-1.8,2.2-2.4,5-2.2,7.6c0.1,2.7,0.9,5.3,1.7,7.8c0.3,1,0.7,1.9,1.2,2.7
			c1,1.5,2.8,2.4,4.5,3.3c0.7,0.5,1.6,0.8,2.5,0.8c1.9,0,3-1.8,3.4-3.4c0.3-1.3,0.5-2.6,0.4-4c-0.1-0.5,0-1,0.1-1.4
			c0.3-0.4,0.6-0.8,1.1-1c2.7-1.6,6.8-1.9,8.1-4.4c0.5-0.8,0.5-1.8,1-2.6c1.5-2.8,6.5-3.5,7.6-6.5c0.6-1.8-0.6-3.7-1.6-5.4
			c-1.2-1.9-2.2-3.9-3.1-5.9c-0.8-1.8-1.4-3.9-0.4-5.7c1.6-2.7,6.5-3.3,7.7-6.1c0.4-1,0.4-2.3,1.5-2.9c1.3-0.7,3-0.7,4.3-1.5
			c0.8-0.5,1.4-1.2,2.5-1.4c1.4-0.3,3.3,0.8,4.4,0.2C213.5,165.1,213.3,163.7,212.7,163z"/>
		<path class="st96" d="M212.5,163c-0.7-0.8-1.9-1.4-2.4-2.4c-0.3-0.6-0.4-1.2-0.6-1.8c-0.6-1.8-1.9-3.2-3.6-3.9
			c0.9,0.7,1.5,1.7,1.9,2.8c0.1,0.6,0.3,1.2,0.6,1.8c0.5,0.9,1.7,1.5,2.4,2.4c0.6,0.7,0.8,2.1-0.2,2.5c-1.2,0.6-3-0.5-4.4-0.2
			c-1,0.2-1.6,0.9-2.5,1.4c-1.3,0.7-3.1,0.7-4.3,1.5c-1,0.6-1,1.9-1.5,2.9c-1.3,2.8-6.1,3.4-7.7,6.1c-1,1.7-0.4,3.9,0.4,5.7
			c0.9,2.1,1.9,4,3.1,5.9c1,1.7,2.2,3.6,1.6,5.4c-1,3-6.1,3.7-7.6,6.5c-0.4,0.8-0.5,1.8-1,2.6c-1.4,2.5-5.5,2.8-8.1,4.4
			c-0.5,0.2-0.8,0.6-1.1,1c-0.2,0.5-0.2,0.9-0.1,1.4c0.1,1.3-0.1,2.7-0.4,4c-0.4,1.6-1.5,3.3-3.4,3.4c-0.9-0.1-1.7-0.3-2.5-0.8
			c-0.4-0.2-0.8-0.4-1.1-0.6c0.9,0.6,1.9,1.2,2.8,1.7c0.8,0.5,1.6,0.8,2.5,0.8c1.9,0,3-1.8,3.4-3.4c0.3-1.3,0.5-2.6,0.4-4
			c-0.1-0.5,0-1,0.1-1.4c0.3-0.4,0.6-0.8,1.1-1c2.7-1.6,6.8-1.9,8.1-4.4c0.5-0.8,0.5-1.8,1-2.6c1.5-2.8,6.5-3.5,7.6-6.5
			c0.6-1.8-0.6-3.7-1.6-5.4c-1.2-1.9-2.2-3.9-3.1-5.9c-0.8-1.8-1.4-3.9-0.4-5.7c1.6-2.7,6.5-3.3,7.7-6.1c0.4-1,0.5-2.3,1.5-2.9
			c1.3-0.7,3-0.7,4.3-1.5c0.8-0.5,1.4-1.2,2.5-1.4c1.4-0.3,3.3,0.8,4.4,0.2C213.4,165.1,213.1,163.7,212.5,163z"/>
		<path class="st105" d="M362.4,225.8c0,0,2.1,8.9,6.8,13.6l1.9-4.1l-2.3-7.4L362.4,225.8z"/>
		<path class="st96" d="M368.7,228l-6.3-2.1c0,0,2.1,8.9,6.8,13.6"/>
		<path class="st101" d="M445,247.1L445,247.1c-1.9,1.5-4.6,1.3-6.1-0.5l-17.8-20l-0.5-0.5l9.3-10.7l1.7,1.1l0.4,0.7
			c1.5,2.6,6.6,11.6,8.3,13C442.4,231.8,447.4,245.2,445,247.1z"/>
		<path class="st98" d="M270.1,304.5c0,0-4.8,4.9-8.1,5.4c-3.3,0.5-5.9,11-1.4,11.8s13.3-2.5,14.6-3.9c1.3-1.4,5.9-9.7,5.9-9.7
			L270.1,304.5z"/>
		<path class="st101" d="M370.5,235.6l-2.3,1.3c-3.6,2-10.2,5.6-11,5.5c-1.2-0.2-1.4-11.1-1.4-11.1l6.2-4.6l0.6-0.5l1.9-0.7
			L370.5,235.6z"/>
		<path class="st96" d="M370.5,235.6l-2.3,1.3c-0.5-4.2-2.7-7.9-6.2-10.3l0.6-0.5l1.9-0.7L370.5,235.6z"/>
		<path class="st98" d="M383.7,222.8l-7.2,12.9l-5,2.6l-2.2,1.2c0.6-9.7-6.8-13.6-6.8-13.6c2-0.4,14.5-11.6,16.4-13.3l0.2-0.2
			l1.7-0.2L383.7,222.8z"/>
		<path class="st100" d="M406.5,292.5l-6.2-4.7l20.1-66.7l7.1,2.6l-5.4,10.6l-5.9,33C416.2,267.4,412.7,291,406.5,292.5z"/>
		<path class="st101" d="M430.4,213.9l-21.2-0.2c0,0-18.5,5.1-17-2.3c1-4.7-1.3-10.5-3.2-14.2c-0.2-0.5-0.4-0.9-0.7-1.3
			c-0.8-1.5-1.4-2.4-1.4-2.4s2.2-0.4,5-0.8c1.3-0.2,2.7-0.4,4.1-0.5l0,0c0.7-0.1,1.4-0.2,2.1-0.2c2.7-0.3,4.9-0.3,4.9,0.1
			c0,0.5,0.4,1.6,1.1,3c0.1,0.2,0.2,0.5,0.3,0.7c0.9,1.8,2.1,3.5,3.4,5.1c0.7,0.9,1.5,1.6,2.4,2.3c0.3,0.2,0.6,0.4,1,0.6
			c0.5,0.3,1.1,0.4,1.6,0.5c2.4,0.4,4.5-0.6,7.6,0.3C424.6,205.8,430.4,213.9,430.4,213.9z"/>
		<path class="st100" d="M318.5,266.1c0,0-17.8,9.8-18.9,13.7c-1.1,3.9,2.6,7,2.6,7s0.6,3.3,0.8,5.8c0.2,2.5,3.1,26.7,4.4,28.7
			s0.2,9.7,0.2,9.7h4.3l-0.3-11.7c0,0-4.8-34.3-0.8-37.8c4.1-3.5,7.4-7.5,8.6-7.2C320.7,274.7,318.5,266.1,318.5,266.1z"/>
		<path class="st99" d="M296.5,252.2c0,0-11.7,22.3-11.9,25.3c-0.2,3-10.2,15.9-10.2,15.9l12.4,15.7c0,0,1.6-4,4.4-5.4
			c2.8-1.4,2.2-4.6,2.2-4.6s2.9,0,5-3.5c2.1-3.5,4.7-7,4.7-8.5c0-1.5,15.4-17.4,15.4-17.4l-1.2-16.9l-3.2-5.4L296.5,252.2z"/>
		<path class="st96" d="M266.2,253.5l-0.1,0.1c-1.4,1.3-17.3,15.3-17.3,15.7c0,0.3-5.7,9.8,1.4,18c7.1,8.2,23.5,21.6,23.5,21.6
			s7.1,5.1,8.1,6.2c0.9,1.1,15.1,0,6.7-9.6c-8.4-9.6-16.4-20.3-16.4-20.3s14-3.4,15-5.7c0.9-2.3-18.5-31.5-18.5-31.5L266.2,253.5z"
			/>
		<path class="st99" d="M265.7,253.5l-0.1,0.1c-1.4,1.3-17.3,15.3-17.3,15.7c0,0.3-5.7,9.8,1.4,18c7.1,8.2,23.5,21.6,23.5,21.6
			s7.1,5.1,8.1,6.2c0.9,1.1,15.1,0,6.7-9.6c-8.4-9.6-16.4-20.3-16.4-20.3s14-3.4,14.9-5.7c0.9-2.3,19.4-31,19.4-31l-37.8-0.6
			L265.7,253.5z"/>
		<path class="st103" d="M306.1,190.6l-1.4,12.7c0,0-14.4,5.7-14.7,5.6c-0.3-0.1-9.6-8.4-8.1-13.9c0.8-2.8,1.1-6.6,1.3-9.7
			c0.2-3.1,0.1-5.5,0.1-5.5s20.9-7.5,19-2.3c-0.7,1.9-0.4,4.1,0.3,6.2C303.5,186.2,304.7,188.5,306.1,190.6z"/>
		<path class="st101" d="M178.3,164.1L178.3,164.1c-1.7,3.6-3,7.2-4,10.9l-0.1,0.5c-0.7,2.5-1,5.1-0.9,7.6c0.3,5.6,3.1,6.9,3.1,6.9
			s-42.8-7-35.7-8.2c1.1-0.2,2.4-0.9,3.6-1.9c2.4-2,5-5.1,7.3-8.4c0.8-1.2,1.7-2.4,2.4-3.6c0.1-0.1,0.1-0.2,0.2-0.2
			c2.8-4.4,4.7-8,4.7-8S188.4,141.9,178.3,164.1z"/>
		<path class="st100" d="M390.1,300.7c0,0,10.7,41.1,11.6,44.6s0.8,9.9,0.8,9.9s4-0.2,4.6-0.8c0.5-0.6-2.1-12.5-2.1-12.5l0.8-33.3
			l-11.4-9.6L390.1,300.7z"/>
		<path class="st100" d="M396.4,287.6c0.2,0,10.7,0.2,10.7,0.2l0.8,7.4c0,0-0.3,14,0.5,16.1s7.7,40.2,7.7,40.2s2.2,13.4,2,16.7
			l-5.1,1.1c0,0,1-2.9-0.5-8.3s-4.4-15.4-4.4-15.4l-3.7-16.5c0,0-0.6-29.3-23.1-28c-22.5,1.3-23.8,17.4-23.8,17.4s-7.6,31.5-9,35.4
			s-2,13.5-2,13.5l-5.1-0.5l1.7-25.5l4.8-52.4l14.6-1L396.4,287.6z"/>
		<path class="st100" d="M169.6,307.5c0,0-10.7,41.1-11.6,44.6c-0.9,3.5-0.8,9.9-0.8,9.9s-4.1-0.2-4.6-0.8s2.1-12.6,2.1-12.6
			l-0.8-33.3l11.4-9.6L169.6,307.5z"/>
		<path class="st100" d="M163.3,294.4c-0.2,0-10.7,0.2-10.7,0.2l-0.8,7.4c0,0,0.3,14-0.5,16.1s-7.7,40.2-7.7,40.2s-2.2,13.4-2,16.7
			l5.1,1.1c0,0-1-2.9,0.5-8.3c1.5-5.4,4.4-15.4,4.4-15.4l3.7-16.5c0,0,0.6-29.3,23.1-28s23.7,17.4,23.7,17.4s7.6,31.5,9,35.4
			s2,13.5,2,13.5l5.1-0.5l-1.7-25.5l-4.8-52.4l-14.6-1L163.3,294.4z"/>
		<path class="st96" d="M302.7,183.7c-0.1,0.1-0.3,0.3-0.4,0.4c-5.1,5.4-13.4,5.9-19.1,1.2c0.2-3.1,0.1-5.5,0.1-5.5s20.9-7.5,19-2.3
			C301.7,179.4,302,181.6,302.7,183.7z"/>
		<path class="st103" d="M306.1,174.1c0,7.7-6.3,14-14,14s-14-6.3-14-14s6.3-14,14-14l0,0c7.7,0,14,6.2,14,13.9
			C306.1,174,306.1,174,306.1,174.1z"/>
		<path class="st99" d="M263.6,304c0,0-13.2,9.2-19,11.7s-24.9,11.5-24.9,11.5s-19.3,2.5-22.4,6.5c-3.1,4.1-7.5,8.7-7.5,8.7l-3.4-19
			c0,0,38-19.6,38.3-21s11.2-5.6-20.6-5.5c-27.8,0.1-38.1,1.9-40.4-1.9c-0.3-0.6-0.5-1.3-0.5-2c-0.3-6.4,37.4-34.6,37.4-34.6
			s1.8,1,4,2.3c2.4,1.4,5.2,3.2,6.6,4.6c2.5,2.6,8.6,3.4,8.6,3.4l37.1,11.5c0,0,10.9,3.4,11.2,13.1S263.6,304,263.6,304z"/>
		<path class="st96" d="M288.8,203.8c0,0-5.5-12.2-7.4-12.2s-4.8,62.9-4.8,62.9l28.6,0.5l1.2-33l-5.8-29.3
			C300.6,192.7,295.4,204.3,288.8,203.8z"/>
		<path class="st96" d="M288.8,204.8c0,0-5.5-12.2-7.4-12.2s-4.8,62.9-4.8,62.9l32.5,0.5l-2.7-33.1l-5.8-29.3
			C300.6,193.6,295.4,205.2,288.8,204.8z"/>
		<path class="st101" d="M288.8,204.3c0,0-5.5-12.2-7.4-12.2s-4.8,62.9-4.8,62.9l32.5,0.5l-2.7-33.1l-5.8-29.3
			C300.6,193.2,295.4,204.7,288.8,204.3z"/>
		<path class="st96" d="M283.5,188.3c0,0-1-1.4-2.4-1c-1.4,0.5-2.5-0.8-3.9,0.5c-1.4,1.3-7,3-8.1,2.4c-1.1-0.6-4.8,2-5.6,3.5
			s-3.5,5.6-3.5,5.6s-2.3,2.8-2,4.3c0.3,1.5-0.8,3.3-2.2,4c-1.4,0.7-4.2,7.7-4.2,7.7s-3,6.4-6.2,8.1c-3.2,1.6-0.8,8.8-0.8,8.8
			l18.7-0.6l4.2-9.6c0,0-1.6,28-3.6,30.6c-2,2.6-2.2,4.2-2.2,4.2s7.7,1.6,9.3,3c1.6,1.4,5.9-0.4,5.9-0.4l4.2-37.3
			c0,0,1.5-7,1.5-10.6C282.7,208.1,283.5,188.3,283.5,188.3z"/>
		<path class="st102" d="M283,188.3c0,0-1-1.4-2.4-1c-1.4,0.5-2.5-0.8-3.9,0.5c-1.4,1.3-7,3-8.1,2.4c-1.1-0.6-4.8,2-5.6,3.5
			c-0.8,1.5-3.5,5.6-3.5,5.6s-2.3,2.8-2,4.3c0.3,1.5-0.8,3.3-2.2,4s-4.2,7.7-4.2,7.7s-3,6.4-6.2,8.1c-3.2,1.6-0.8,8.8-0.8,8.8
			l18.7-0.6l4.2-9.6c0,0-1.6,28-3.6,30.6c-2,2.6-2.2,4.2-2.2,4.2s7.7,1.6,9.3,3c1.6,1.4,5.9-0.4,5.9-0.4l4.2-37.3
			c0,0,1.5-7,1.5-10.6S283,188.3,283,188.3z"/>
		<path class="st96" d="M257.3,208.6c0,0,1.4,3.9,5.3,3.5C266.4,211.8,257.3,208.6,257.3,208.6z"/>
		<path class="st96" d="M261,202.8c0,0,2.6,0.5,3.5,2.7S261,202.8,261,202.8z"/>
		<path class="st96" d="M268.3,198.8c0,0.5,1.6,8.6,0,12c-1.6,3.4-1.4,7.4-1.4,7.4L268.3,198.8z"/>
		<path class="st96" d="M302.7,185.5c0,0,0.9-1.1,1.8-1s1.5,0.7,2.7,1.2s4,0.6,4,0.9c0,0.3,2.5,1.8,4.1,2.1
			c1.6,0.4,6.8,3.9,8.1,10.6s3.5,8.8,3.5,8.8l-12.4,6.1c0,0,9.6,40.7,10.8,43.6c1.2,2.9,1.3,20.2,1.3,20.2s-7.6,3.4-9.6,4.4
			c-2,1-1.2-10-5.3-16.5c-4.1-6.4-8.8-15.8-8.8-15.8l-7.1-20c0,0-4.6-26.6-0.7-31.5C299,193.8,303.1,187.2,302.7,185.5z"/>
		<path class="st102" d="M303.2,185.5c0,0,0.9-1.1,1.8-1s1.5,0.7,2.7,1.2s4,0.6,4,0.9c0,0.3,2.5,1.8,4.1,2.1
			c1.6,0.4,6.8,3.9,8.1,10.6s3.5,8.8,3.5,8.8l-12.4,6.1c0,0,9.6,40.7,10.7,43.6c1.2,2.9,1.3,20.2,1.3,20.2s-7.6,3.4-9.6,4.4
			c-2,1-1.2-10-5.3-16.5c-4.1-6.4-8.8-15.8-8.8-15.8l-7.1-20c0,0-4.6-26.6-0.7-31.5C299.5,193.8,303.6,187.2,303.2,185.5z"/>
		<path class="st96" d="M328.5,236.6c-0.3,0.1-0.8,0.1-1.3,0.2c-3.7,0.3-11.1,0.4-11.1,0.4s-5.5-10.9-10.2-10.5c0,0,4.3-4.9,6.1-4.3
			c0.3,0.1,0.5-0.1,0.6-0.5c0.5-2.1-1.1-9.3-1.1-9.3l-2.2-9.7l12.9,3.2c1.2,0.2,4.8,2.1,4.8,2.1s0.1,5,1,6.2c0.9,1.2,2,6.8,1.9,8.2
			c-0.1,1.4,1.3,7.9-0.1,9.7C328.3,233.9,331.5,236.2,328.5,236.6z"/>
		<path class="st102" d="M329,236.6c-0.3,0.1-0.8,0.1-1.3,0.2c-3.7,0.3-11.1,0.4-11.1,0.4s-5.5-10.9-10.2-10.5c0,0,4.3-4.9,6.1-4.3
			c0.3,0.1,0.5-0.1,0.6-0.5c0.5-2.1-1.2-9.3-1.2-9.3l-2.2-9.7l12.9,3.2c1.2,0.2,4.8,2.1,4.8,2.1s0.1,5,1,6.2c0.9,1.2,2,6.8,1.9,8.2
			c-0.1,1.4,1.3,7.9-0.1,9.7C328.8,233.9,331.9,236.2,329,236.6z"/>
		<path class="st96" d="M315.8,211.2c0,0,10.7,1.2,11.2,3.9C327.5,217.7,315.8,211.2,315.8,211.2z"/>
		<path class="st98" d="M280.5,313.1c0,0-0.7,3.9,0.1,6.3c0.8,2.4,0.7,7.8,0.1,9.7c-0.6,1.9-2.5,4.4,2.8,5.6c5.4,1.2,9,0.1,9.2-0.8
			c0.2-0.9,1.4-4.7,0.5-6.8c-0.9-2.1-1.3-7.6,0.5-10.7c1.7-3.2,0.6-8.1-1-8.6c-1.6-0.6-4.4-1.9-4.4-1.9s3,5.5,0.2,6.7
			C285.7,313.7,280.5,313.1,280.5,313.1z"/>
		<path class="st96" d="M306.1,174.1c0,3.6-1.4,7-3.8,9.6c0,0,0,0,0-0.1c-0.4-0.9-0.8-1.8-0.8-2.8c0-1.2,0.7-2.2,0.9-3.4
			c0.3-1.5-0.2-3-0.7-4.4c-0.3-1-1-2.3-2.1-2.2c-0.2,0.1-0.4,0.1-0.6,0.1c-0.6-0.1-0.7-0.8-0.8-1.4c-0.4-2.8-2.5-5-5.3-5.5
			c-0.3-0.1-0.6,0-0.9,0.1c-0.4,0.2-0.6,0.6-1,0.9c-1.2,0.8-2.7-0.8-4.1-0.6c-1.2,0.1-2,1.4-2.5,2.5c-0.5,1.1-1.1,2.4-2.3,2.7
			c-0.2,0.1-0.4,0-0.6-0.1c-0.4-0.3-0.1-0.8,0.1-1.3c0.5-1.1,0.2-2-0.4-2.8c4.8-6.1,13.6-7,19.7-2.2
			C304.2,165.7,306.1,169.8,306.1,174.1L306.1,174.1z"/>
		<path class="st106" d="M281.6,167.6c-0.2,0.4-0.4,1-0.1,1.3c0.2,0.1,0.4,0.1,0.6,0.1c1.2-0.3,1.8-1.5,2.3-2.7
			c0.5-1.1,1.3-2.4,2.5-2.5c1.4-0.1,3,1.5,4.1,0.6c0.4-0.3,0.6-0.7,1-0.9c0.3-0.1,0.6-0.1,0.9-0.1c2.8,0.5,4.9,2.7,5.3,5.5
			c0.1,0.6,0.2,1.3,0.8,1.4c0.2,0,0.4,0,0.6-0.1c1.1-0.1,1.8,1.1,2.1,2.2c0.5,1.4,1,2.9,0.7,4.4c-0.2,1.2-0.9,2.2-0.9,3.4
			c0,1,0.4,1.9,0.8,2.8c0.4,0.9,1.1,1.9,2,1.8c0.8-0.1,1.2-0.9,1.6-1.6c0.4-0.7,1.1-1.5,1.8-1.2c0.3,0.1,0.7,0.4,1,0.2
			c0.2-0.1,0.3-0.3,0.3-0.5c0.4-1.6-0.2-3.5,0.6-4.9c0.6-1.1,1.9-1.7,2.9-2.5c3.5-2.8,4.1-8,1.3-11.5c-0.1-0.1-0.1-0.1-0.2-0.2
			c-1.1-1.3-2.6-2.4-2.7-4c-0.1-1.3,0.8-2.4,0.8-3.7c0-1.3-0.8-2.3-1.7-3.2c-2.6-2.4-6.3-3.4-9.8-2.6c-0.9,0.2-1.8,0.6-2.7,0.4
			c-1.1-0.1-2-0.8-2.9-1.3c-3.3-1.5-7.3-0.5-9.3,2.5c-1.1,1.7-1.5,4-3.2,5.2c-1.1,0.8-2.6,1.1-3.2,2.3c-0.4,0.7-0.3,1.6-0.1,2.4
			c0.2,1.3,0.8,2.5,1.8,3.4C281.4,165,282.3,166.1,281.6,167.6z"/>
		<polygon class="st104" points="268,344.9 267.9,367.7 263.7,367.3 248.4,242.9 252.9,242.8 256.1,242.7 		"/>
		<polygon class="st104" points="267.9,367.7 263.7,367.3 248.4,242.9 252.9,242.8 252.7,243.5 		"/>
		<polygon class="st104" points="288.5,243.2 273.1,366.5 270.2,367.2 267.9,367.7 268,344.9 281.6,243.6 281.8,243.6 		"/>
		<polygon class="st104" points="270.1,367.1 270.2,367.2 267.9,367.7 268,344.9 281.6,243.6 281.8,243.6 284.6,244.2 		"/>
		<polygon class="st104" points="323.8,319.1 323.4,327.2 322.5,348.8 308,243.1 311.3,242.7 312.3,242.6 		"/>
		<polygon class="st104" points="323.8,319.1 323.4,327.2 311.5,243.6 311.3,242.7 312.3,242.6 		"/>
		<polygon class="st104" points="327.7,281.1 328.1,332.7 326.1,332.6 322,332.4 323.6,242.2 326.8,242.6 328.3,242.8 		"/>
		<polygon class="st104" points="327.7,281.1 328.1,332.7 326.1,332.6 326.8,242.6 328.3,242.8 		"/>
		<polygon class="st104" points="194,241.9 194.2,238.4 214.3,238.5 274.7,237.6 321.3,240.1 351,240.7 351.3,244 275,245.4 		"/>
		<polygon class="st104" points="194.2,238.4 253.8,241 351,240.7 278.3,236.3 		"/>
		<path class="st96" d="M178.3,164.1L178.3,164.1c-1.7,3.6-3,7.2-4,10.9l-0.1,0.5c-1.6,0.5-3.3,0.7-5,0.7c-4.5,0-6.5-4.7-9.7-7.5
			c-1.2-1.1-4.4,0.8-5.3-0.6c-0.1-0.1-0.1-0.2-0.2-0.2c0.1-0.1,0.1-0.2,0.2-0.2c2.8-4.4,4.7-8,4.7-8S188.4,141.9,178.3,164.1z"/>
		<path class="st101" d="M187.2,157.8c0,9.9-8.1,18-18,18c-9.9,0-18-8.1-18-18c0-9.9,8.1-18,18-18c6.8,0,13.1,3.9,16.1,10
			C186.6,152.3,187.2,155,187.2,157.8z"/>
		<path class="st96" d="M176.4,190c0,0-42.8-7-35.7-8.2c1.1-0.2,2.4-0.9,3.6-1.9c0.2,0.3,0.4,0.6,0.6,1l7.9-0.9
			c0,0,10.1-2.2,14.2,0.3c2,1.2,4.1,2.1,6.3,2.9C173.6,188.7,176.4,190,176.4,190z"/>
		<path class="st96" d="M204.6,260.7c-0.2,0.2-0.5,0.3-0.8,0.4c-2,0.6-4.5,10-4.5,10s-25.9,24.9-35.6,24c-0.3-0.6-0.5-1.3-0.5-2
			c-0.3-6.4,37.4-34.6,37.4-34.6S202.4,259.4,204.6,260.7z"/>
		<path class="st105" d="M152.9,180.4c0,0,10.1-2.2,14.2,0.3c2.7,1.6,5.7,2.8,8.7,3.6c0,0,7.5,1.9,10,4.5c2.5,2.6,4.8,0.9,5.9,4.4
			s4.4,6.7,4.4,6.7l-1.6,23.2l1.2,13.4c0,0,0.6,5.6-0.9,6.9c-1.6,1.2,0.3,3.3,1.7,4.4c1.4,1.1,5,5.3,4.5,6.9
			c-0.5,1.6,3.7,3.3,3.7,3.3s0.2,2.6-1.9,3.3c-2,0.6-4.5,10-4.5,10s-27.3,26.2-36.3,23.8s-15.7-10.7-15.7-10.7s-6.1-27.3-7.8-31.6
			s-6.2-18.7-6.2-18.7s-2.5-16.5-3.7-19.8s-1.2-20.4,2.5-24c3.7-3.6,7-5.6,7-6.9s3.6-3.7,5-3.6c1.4,0.2,1.9,1.7,1.9,1.7L152.9,180.4
			z"/>
		<path class="st96" d="M185.3,149.8c-0.8,0.2-1.6,0.7-2.1,1.4c-0.8,1.1-0.7,2.6-1,4c-0.5,2.2-2.2,4.2-1.9,6.4
			c0.1,0.8,0.5,1.7,0,2.3c-0.4,0.6-1.3,0.6-2,0.3c0,0,0,0-0.1,0c-1.7-0.7-2.7-2.5-3.9-3.9c-1.2-1.4-3.4-2.4-4.9-1.2
			c-1.2,1-1,2.9-0.9,4.4c0.1,1.6-0.3,3.6-1.9,3.8c-0.6,0.1-1.3-0.1-1.9,0c-1.9,0.5-1.8,3.8-3.7,4.4c-0.7,0.2-1.4,0-2.1-0.2
			c-0.6-0.1-1.2-0.2-1.7-0.2c-2,0-4,0.6-5.8,0.1c0.9-1.3,1.8-2.6,2.6-3.8c-5.4-8.3-3.1-19.5,5.2-24.9c8.3-5.4,19.5-3.1,24.9,5.2
			C184.7,148.6,185,149.2,185.3,149.8L185.3,149.8z"/>
		<path class="st107" d="M159.2,171.1c0.7,0.2,1.4,0.4,2.1,0.2c1.9-0.6,1.7-3.9,3.7-4.4c0.6-0.1,1.3,0.1,1.9,0
			c1.5-0.3,2-2.3,1.9-3.8c-0.1-1.5-0.3-3.4,0.9-4.4c1.4-1.2,3.6-0.2,4.9,1.2c1.2,1.4,2.2,3.2,3.9,3.9c0.7,0.3,1.6,0.3,2-0.3
			c0.4-0.6,0.1-1.5,0-2.3c-0.3-2.2,1.4-4.2,1.9-6.4c0.3-1.3,0.2-2.9,1-4c1.7-2.3,6.2-1.2,7.6-3.7c0.7,0.1,1.3,0,1.9-0.2
			c0.6-0.3,1-1,0.8-1.6c-0.2-0.5-0.7-0.7-1.1-1c-1.4-1-2.2-2.6-2.2-4.3c0-0.8,0.3-1.6,0.2-2.4c-0.2-1.8-1.7-3.2-3.6-3.2
			c-0.5,0-1,0.2-1.6,0.2c-2.5,0.1-4.6-2.8-7.1-2.2c-0.5,0.1-1,0.4-1.6,0.4c-1.2,0-2-1.4-3.2-1.8c-0.9-0.3-2,0.1-2.9,0
			c-1-0.1-1.7-0.7-2.6-1.1c-1.8-1-4.2-1.4-5.7-0.1c-0.3,0.3-0.7,0.6-1.1,0.9c-0.5,0.2-1.1,0.2-1.6,0.1c-1.6-0.2-3.2,0-4.8,0.3
			c-0.4,0.1-0.8,0.3-1.1,0.6c-0.2,0.3-0.3,0.7-0.3,1.1c-0.5,1.8-2.7,2.5-4.6,2.6c-0.5,0-1,0.1-1.4,0.4c-0.7,0.5-0.7,1.6-0.4,2.4
			c0.3,0.8,0.8,1.5,0.9,2.4c0.3,2.1-2,3.7-2.4,5.9c-0.5,2.9,2.7,5.8,1.6,8.6c-0.5,1.2-1.8,2.2-1.7,3.5c0.1,1.3,1.3,2.1,2.1,3.1
			s1.1,2.2,1.4,3.4c0.5,1.9,0.5,5.6,2.8,6.3C153.9,171.7,156.7,170.5,159.2,171.1z"/>
		<path class="st96" d="M159.9,233.7c2.6,3.4,12,11.5,18.2,13.6S159.9,233.7,159.9,233.7z"/>
		<path class="st96" d="M161.3,250.8c1.1,0.8,6.1,10.1,11.4,10.9C177.9,262.5,161.3,250.8,161.3,250.8z"/>
		<path class="st96" d="M162.5,242.7c0.3,0.5,12.6,11.2,17.1,12.2c4.5,0.9,0.6-3.7-5-5.9C169,246.8,162.5,242.7,162.5,242.7z"/>
		<path class="st96" d="M162.5,265.6c0,0,8.3,3,13.9,2.2C182,267,162.5,265.6,162.5,265.6z"/>
		<path class="st96" d="M172.2,283.6c0,0,8.1-5.9,12.2-6.2S172.2,283.6,172.2,283.6z"/>
		<path class="st96" d="M135.7,188.1c0,0,19.6,2.2,14.2,3.1C144.4,192.1,135.7,188.1,135.7,188.1z"/>
		<path class="st96" d="M135.6,198.2c0,0,9.3,0,12.8-1.6C151.8,195.1,135.6,198.2,135.6,198.2z"/>
		<path class="st96" d="M132.6,217.8c1.7-0.5,8.9-15.4,11.7-11.4C147.1,210.5,132.6,217.8,132.6,217.8z"/>
		<path class="st96" d="M161,213.9c0,0,2.5,2.3,10.3,4.5S161,213.9,161,213.9z"/>
		<path class="st96" d="M207.1,267c0,0,4.4,2.3,1.1,7.3C204.9,279.3,207.1,267,207.1,267z"/>
		<path class="st101" d="M161.4,287l-0.1-0.7C161.5,284.1,161.4,287,161.4,287z"/>
		<path class="st100" d="M164.4,299.9l-12.5-1.2l-2.3-4.7l-12.9-71.1l-0.3-1.7l19.8,0.2l0.2,2.3l5.1,62.6c0,0.3-0.1,0.7-0.1,1.3
			C160.9,292,164.4,299.9,164.4,299.9z"/>
		<path class="st96" d="M404.5,195.8l-0.3,0.2c-1.3,0.9-3.1-2.3-4.7-1.9c-1.3,0.4-2.4,4.5-3.9,4.5c-2.2,0-4.5-0.5-6.5-1.4
			c-0.2-0.5-0.4-0.9-0.7-1.3c-0.8-1.5-1.4-2.4-1.4-2.4s2.2-0.4,5-0.8c1.3-0.2,2.7-0.4,4.1-0.5l0,0c0.7-0.1,1.4-0.2,2.1-0.2
			c2.7-0.3,4.9-0.3,4.9,0.1c0,0.5,0.4,1.6,1.1,3C404.2,195.3,404.3,195.5,404.5,195.8z"/>
		<path class="st101" d="M410.8,182.5c0,8.4-6.8,15.3-15.3,15.3c-8.4,0-15.3-6.8-15.3-15.3s6.8-15.3,15.3-15.3c0,0,0,0,0,0
			C403.9,167.2,410.8,174,410.8,182.5C410.8,182.4,410.8,182.4,410.8,182.5z"/>
		<path class="st23" d="M408,211.6l-4.6,0.5c0,0,0.5-4.1,2.5-5.4c1.3-0.8,3.8-2.2,5.3-3c0.5,0.3,1.1,0.4,1.6,0.5
			C405.8,208.8,408,211.6,408,211.6z"/>
		<path class="st101" d="M356.9,231.4l-1.1-0.2c0,0-4.8,0.3-9.4,0.8c-4.7,0.5-11.3,1.9-6.5,7.6c4.8,5.6,9.3-1,9.3-1s4.5,5.6,8,3.7
			C360.7,240.5,356.9,231.4,356.9,231.4z"/>
		<path class="st101" d="M337.7,320.7c0,0,3,7.2,2.7,9.2s9.9-1.9,9.9-1.9s-2.3-5.5-1.1-6.6C350.4,320.2,337.7,320.7,337.7,320.7z"/>
		<rect x="323.6" y="340" class="st101" width="8.1" height="10.3"/>
		<path class="st98" d="M339.4,317.8c-0.8,1.3-1.4,3.5-1.8,5.7c-0.5,2.6-0.8,5.3-0.8,8c0,1.6,0.8,1.2,0,3.7c-0.7,1.9-1.2,3.9-1.5,6
			c0,0.1,0,0.2,0,0.3c-0.5,2.8-0.9,3.7-0.9,3.7s-11.8-0.8-14.3-2.5c-2.5-1.7,0.9-3.4,0.9-3.4s0-0.1,0-0.4c0.3-4.8,2.7-50.6,3.7-55.5
			c0.3-1.1,0.8-2,1.5-2.8c1.4-1.6,3.6-2.8,5.3-3.6c1.1-0.5,2.2-0.9,3.3-1.2c0,0,0.6,3.6,1.4,8.7C338,296.1,340.9,315.5,339.4,317.8z
			"/>
		<path class="st101" d="M336.2,284.5c-0.9,1.7-1.8,2.7-2.5,1.9c-1.2-1.4-4.9-4-7.5-5.8c2.9-3.2,8.6-4.8,8.6-4.8
			S335.4,279.4,336.2,284.5z"/>
		<path class="st98" d="M405.9,271.9c-0.1,1.7-0.3,3.8-0.7,6.4c-0.9,6.4-4.8,11.9-10.6,14.8c0,0-28.7,0-33.6-1.4
			c-2.5-0.7-4.7,0.1-6.3,1.1c-0.2,0.1-0.3,0.2-0.5,0.3c-0.7,0.5-1.4,1.1-1.9,1.8c0,0-3.1-12.6-3.1-13.2c0-0.6,1.7-6.2,4.8-10.1
			c3.1-3.9,21.5-4.5,22.6-4.7c0.7-0.1,7.4-3,11.8-5c2.2-1,3.9-1.7,3.9-1.7l7.2,2.3l0.3,0.1l5.8,1.8
			C405.5,264.4,406.2,266.1,405.9,271.9z"/>
		<path class="st96" d="M399.7,262.6c-1.4,0.6-3.6,1.5-6.1,2.4c-5.5,2-12.6,4.2-16.8,3.8c-7.5-0.6-16,1.1-16,1.1
			c-2.7,1.2-5.3,2.8-7.5,4.8c-3.9,3.4-0.5,4.5,1.2,8.6c0.7,1.7,0.5,5.5,0.1,9.6c-0.2,0.1-0.3,0.2-0.5,0.3c-0.7,0.5-1.4,1.1-1.9,1.8
			c0,0-3.1-12.6-3.1-13.2s1.7-6.2,4.8-10.1c3.1-3.9,21.5-4.5,22.6-4.7c0.7-0.1,7.4-3,11.8-5c2.2-1,3.9-1.7,3.9-1.7l7.2,2.3
			L399.7,262.6z"/>
		<path class="st96" d="M339.4,317.8c-0.8,1.3-1.4,3.5-1.8,5.7c-0.3-0.2-0.6-0.3-0.8-0.6c-1.4-1.2-1.3-3.5-1.1-5
			c0.1-0.6,0.2-1.1,0.2-1.3c0-0.6,0.6-6.2-0.6-8.3c-1.2-2-1.6-10-1.6-10s-2-11.4-2.2-21.5c1.1-0.5,2.2-0.9,3.3-1.2
			c0,0,0.6,3.6,1.4,8.7C338,296.1,340.9,315.5,339.4,317.8z"/>
		<path class="st98" d="M400.8,261.9c0,0-0.5,0.2-1.4,0.6c-1.4,0.6-3.6,1.5-6.3,2.4c-5.5,2-12.6,4.2-16.8,3.8
			c-7.5-0.6-16,1.1-16,1.1c-2.7,1.2-5.3,2.8-7.5,4.8c-3.9,3.4-0.5,4.5,1.2,8.6c0.7,1.7,0.5,5.8,0.1,9.9c-0.6,5.7-1.8,11.4-1.8,11.4
			s-0.5,1.6-0.2,2.5c0.3,0.9,0.3,8.1,0.3,8.1c-0.4,0.6-0.6,1.3-0.7,2c0,0.6,0.2,1.2,0.5,1.7c1.2,1.7,0.3,6.2,0.3,6.2
			s-2.6,0.5-7.2-0.6c-4.5-1.1-6.2,0.2-8.2-1.6c-1.4-1.2-1.3-3.5-1.1-5c0.1-0.6,0.2-1.1,0.2-1.3c0-0.6,0.6-6.2-0.6-8.3
			c-1.2-2-1.6-10-1.6-10s-5-28.5,0-35.5c0.1-0.1,0.2-0.2,0.3-0.4c2.8-3.2,8.6-3.8,14-3.4c3.9,0.2,7.8,0.9,11.6,1.9
			c3.1,0.9,4.1,0.5,5.6-0.2c1.1-0.4,1.2-2.6,1.2-3.8c0-0.1,0-0.2,0-0.3c0-0.3,0-0.5,0-0.5l1.4-0.8l5.8-3.1L400.8,261.9z"/>
		<path class="st96" d="M404.1,195.1c1,2.1,2.3,4,3.7,5.8c-0.5,0.2-1,0.2-1.5,0c-0.5-0.2-0.9-0.7-1.4-0.9c-1.3-0.6-2.7,0.2-4-0.5
			c-1-0.6-1.2-1.4-1.2-2.4c0-0.1,0-0.3,0-0.4c0-1.4-0.1-4.1-1.6-4.7c-0.6-0.2-1.2-0.2-1.8,0.1c-0.1,0-0.2,0.1-0.3,0.2l0,0
			c-1,0.6-1.7,1.8-2.8,1.7c-0.6-0.1-1.1-0.5-1.3-1.1c-0.2-0.6-0.4-1.3-0.5-1.9c-0.3-2.5-1.3-4.9-2.2-7.2c-0.2-0.4-0.4-1-0.9-1
			c-0.8-0.1-1,1.1-0.5,1.8c0.4,0.6,1.2,1.1,1.3,1.9c0.2,1.3-1.7,2-2.8,1.3s-1.2-2.3-1-3.5c0.2-1.3,0.8-2.5,0.8-3.8
			c0.1-1.3-0.5-2.8-1.7-3.1c-1.1-0.3-2.2,0.3-3.3,0.3c2.7-8,11.4-12.3,19.4-9.6c8,2.7,12.3,11.4,9.6,19.4
			C409,190.5,406.9,193.2,404.1,195.1L404.1,195.1z"/>
		<path class="st105" d="M396.8,192.1c-1.2,0.4-1.9,2-3.1,1.9s-1.6-1.8-1.8-3c-0.3-2.5-1.3-4.9-2.2-7.2c-0.2-0.4-0.4-1-0.9-1
			c-0.8-0.1-1,1.1-0.5,1.8c0.4,0.6,1.2,1.1,1.3,1.9c0.2,1.3-1.7,2-2.8,1.3c-1-0.7-1.2-2.3-1-3.5c0.2-1.3,0.8-2.5,0.8-3.8
			c0.1-1.3-0.5-2.8-1.7-3.1c-1.2-0.4-2.5,0.5-3.8,0.3c-1.3-0.3-2.1-1.6-1.8-2.8c0-0.1,0.1-0.3,0.1-0.4c0.5-1.1,2-1.9,1.6-3
			c-0.5-1.4-2.9-0.8-3.8-1.9c-0.7-0.9-0.1-2.3,0.9-3s2.2-0.9,3.1-1.6c1.7-1.4,2-4,3.7-5.4c1.9-1.7,4.8-1.3,7.1-2.2
			c2.3-0.8,4.3-2.9,6.7-2.4c0.6,0.1,1.1,0.3,1.7,0.4c1.2,0.1,2.3-0.6,3.4-1.1c2.2-0.9,4.6-0.8,6.7,0.3c-0.2,1.5,1.4,2.9,2.9,2.8
			c1.1,0,2.6-0.4,3,0.6c0.2,0.5,0,1,0.1,1.5c0.3,0.8,1.5,0.9,2.2,1.4c1.7,1.1,0.9,4.1,2.4,5.5c0.7,0.6,1.6,0.8,2.4,1.1
			c2.7,1.2,3.7,4.5,4.4,7.4c0.2,0.6,0.2,1.2,0.1,1.7c-0.2,0.8-1,1.4-1.5,2.1c-1.1,1.8,0.1,4.2-0.6,6.1s-2.9,3.1-3.2,5.1
			c-0.1,0.7,0,1.4-0.1,2.1c-0.3,1.8-2.2,2.9-4,3.4c-0.5,0.1-1.1,0.3-1.3,0.8c-0.1,0.2-0.1,0.5-0.2,0.7c-0.2,0.5-0.7,0.8-1.3,1
			c-2.3,1.1-4.7,2.1-7.1,3c-0.7,0.3-1.4,0.5-2.1,0.2c-0.5-0.2-0.9-0.7-1.4-0.9c-1.3-0.6-2.7,0.2-4-0.5c-1.1-0.7-1.3-1.6-1.3-2.8
			C400.2,195,399.9,190.9,396.8,192.1z"/>
		<path class="st98" d="M335.3,341.2c0,0.1,0,0.2,0,0.3c-0.5,2.8-0.9,3.7-0.9,3.7s-11.8-0.8-14.3-2.5c-2.5-1.7,0.9-3.4,0.9-3.4
			s0-0.1,0-0.4C325,339.9,332.1,341.5,335.3,341.2z"/>
		<path class="st96" d="M335.3,341.2c0,0.1,0,0.2,0,0.3c-0.5,2.8-0.9,3.7-0.9,3.7s-11.8-0.8-14.3-2.5c-2.5-1.7,0.9-3.4,0.9-3.4
			s0-0.1,0-0.4C325,339.9,332.1,341.5,335.3,341.2z"/>
		<path class="st101" d="M333.4,344.1c0,0-13.7,0.9-14.3,0.7c-0.5-0.2-0.5,7.2-0.5,7.2s-3,6.1-3.4,7.6c-0.4,1.5-3.4,5.1-3.4,5.1
			s-4.4,3.2,2,4.4c6.4,1.2,13.4-0.4,13.4-0.4s4.7-8.1,5.1-7.6c0.4,0.5,0,4.3,0,4.3l2.7-0.7c0,0-0.5-5.1,0.6-7.8
			C336.7,354.2,333.4,344.1,333.4,344.1z"/>
		<path class="st96" d="M352.7,324.7c0,0-2.6,0.5-7.2-0.6c-4.5-1.1-6.2,0.2-8.2-1.6c-1.4-1.2-1.3-3.5-1.1-5c2-0.4,5-1.1,7.4-1.4
			c2.4-0.3,5.8,0.1,8.3,0.6c0,0.6,0.2,1.2,0.5,1.7C353.6,320.2,352.7,324.7,352.7,324.7z"/>
		<path class="st98" d="M352.7,325.1c0,0-2.6,0.5-7.2-0.6c-4.5-1.1-6.2,0.2-8.2-1.6c-1.4-1.2-1.3-3.5-1.1-5c2-0.4,5-1.1,7.4-1.4
			c2.4-0.3,5.8,0.1,8.3,0.6c0,0.6,0.2,1.2,0.5,1.7C353.6,320.6,352.7,325.1,352.7,325.1z"/>
		<path class="st96" d="M352.7,325.1c0,0-2.6,0.5-7.2-0.6c-4.5-1.1-6.2,0.2-8.2-1.6c-1.4-1.2-1.3-3.5-1.1-5c2-0.4,5-1.1,7.4-1.4
			c2.4-0.3,5.8,0.1,8.3,0.6c0,0.6,0.2,1.2,0.5,1.7C353.6,320.6,352.7,325.1,352.7,325.1z"/>
		<path class="st101" d="M359.4,347.3l-4.6,1.2l-1.3-5.5c0,0-1.2,2.2-3.2,5.2c-0.3,0.4-0.6,0.8-0.8,1.2c-2.3,3.3-10.2,2.5-12.9,0.6
			c-0.2-0.2-0.4-0.4-0.6-0.6c-1.8-2.3,0.9-4.6,2.3-5.8s0.6-9.5,0.6-9.5s-0.6-3.7-0.2-5.4c0.5-1.7,12.2-2.3,12.2-2.3s2.4,6.3,3.7,8.3
			c1.3,1.9,3,4.4,2.6,6.1S359.4,347.3,359.4,347.3z"/>
		<path class="st101" d="M353.3,266.3c-2,2.5-15.1,0.6-19.1-3.3c0.1-0.1,0.2-0.2,0.3-0.4c2.8-3.2,8.6-3.8,14-3.4
			C350.9,261,354.9,264.3,353.3,266.3z"/>
		<path class="st96" d="M340.7,268.2c0,0-2.3-3.2-4.3-1.6s-2.6-2.7-2.6-2.7s1.1-0.8,3.4,0.4s5,3.2,4.7,3.6
			C341.5,268.2,340.7,268.2,340.7,268.2z"/>
		<path class="st98" d="M340.7,267.7c0,0-2.3-3.2-4.3-1.6c-2,1.6-2.6-2.7-2.6-2.7s1.1-0.8,3.4,0.4s5,3.2,4.7,3.6
			C341.5,267.7,340.7,267.7,340.7,267.7z"/>
		<path class="st96" d="M382.9,268.2c0,0,11.5,5.3,9,7.4C389.3,277.7,382.9,268.2,382.9,268.2z"/>
		<path class="st96" d="M336.4,304.7c0,0,7.3,0.8,9,1.9c1.2,0.9,2.7,1.4,4.2,1.5C350.5,308.1,339.7,302,336.4,304.7z"/>
		<path class="st96" d="M345.2,300.4c0,0-2.8,1.9,0.4,2.7C348.8,303.9,345.2,300.4,345.2,300.4z"/>
		<path class="st96" d="M329.6,326.3c0,0,4.1,5.1,5.6,3.7C336.6,328.6,329.6,326.3,329.6,326.3z"/>
		<path class="st96" d="M326.9,336.4c0.3,0,1.3-0.2,3.3,1.2s2.2-1.1,1.4-2.1C330.9,334.5,326.9,336.4,326.9,336.4z"/>
		<path class="st96" d="M322.2,221.7c0.7,0.2,4.8,1.3,5.6,3.7C328.7,227.9,322.2,221.7,322.2,221.7z"/>
		<path class="st96" d="M156.3,223.7l-0.3-0.1c0,0-11.9-2.7-19.3-0.7l-0.3-1.7l19.8,0.2L156.3,223.7z"/>
		<path class="st100" d="M145.7,218.4c0,0,29.9,0.2,40.3,20.7c10.4,20.6,12.8,59.8,12.8,59.8s1.7,5.6-0.8,5.8s-3.6-5.1-3.6-5.1
			s0.9-3.9,0.2-5.6c-0.8-1.7-10.3-49.4-10.3-49.4s-1.1-15-28.3-21.5c0,0-31.9-7.2-23.7,10.7c0,0,0.5,2.5-1.2,2s-3.7-5.1-2.3-11
			S145.7,218.4,145.7,218.4z"/>
		<path class="st96" d="M188.5,197l7,3c0,0,3.4,3.4,3.3,6.5s1.7,0.8,1.7,0.8s1.2,0.5,1.2,1.7s3.4,2.5,1.2,4.2
			c-2.2,1.7-10.3,15.6-15.6,15.4c-3.1-3.6-6.5-7-10.1-10.1C171.9,213.8,166.9,189.8,188.5,197z"/>
		<path class="st96" d="M383.7,222.8l-7.2,12.9l-5,2.6c-0.1-1.4-0.2-2.3-0.2-2.3s-3.3-7.6,5.1-13.4c7.4-5.1,3.5-9.2,2.4-10.1
			l0.2-0.2l1.7-0.2L383.7,222.8z"/>
		<path class="st96" d="M432,217.1c-1.1,2.5-11,9.4-11,9.4c0,0,0,0,0,0.1l-0.5-0.5l9.3-10.7l1.7,1.1L432,217.1z"/>
		<path class="st96" d="M405.9,271.9c-1.4,0.2-2.7,0.2-4.1,0.1c-2.6-2.6-5.5-5-8.6-7.1c-1.5-1-3.1-2-4.8-3
			c-6.2-3.4-13.8-6.1-21.6-4.8c-0.2,0-0.4,0.1-0.5,0.1c0,0,0.2-0.2,0.5-0.4c0.3-0.3,0.8-0.7,1.3-1.3l5.8-3.1l26.9,9.5
			c0,0-0.5,0.2-1.4,0.6l6,1.9C405.5,264.4,406.2,266.1,405.9,271.9z"/>
		<path class="st98" d="M397.2,209.6c0,0,20.9,2,30.4,0.9c0,0,4.7,3.6,4.1,5.9c-0.6,2.3-11,9.7-11,9.7s-0.8,18.2-5,22.6
			s-8,15.6-6.1,19.3c1.9,3.7-7.3,3.1-7.3,3.1s-17.4-18.2-35.5-14.8c0,0,6.5-5.3,6.1-9.2c-0.5-3.9-1.1-11.1-1.1-11.1
			s-3.3-7.6,5.1-13.4c8.4-5.8,2.2-10.3,2.2-10.3s-0.3-1.4,3.3-1.9c1.7-0.2,3.5-0.5,5.1-0.9c0,0,3.4-3.1,5-2.5
			C394,207.7,397.2,209.6,397.2,209.6z"/>
		<path class="st96" d="M421.1,223.8c0,0,2.5,4.9-0.2,7.5c-1.1,1.1-2,2.3-2.9,3.5c-5,6.8-9.2,14.1-12.6,21.8
			c-5.8,13.4-15.7,36.2-17.2,37.4c-2.1,1.7-2.3,5.2-0.2,5.3c2.1,0.1,3.3-2.8,3.3-2.8s2.1-6,3.4-8.4c1.3-2.4,15.1-34,15.1-34
			s5.1-13.6,10.9-16.7c0,0,5-8.3,4.1-11.9C424.1,221.9,421.1,223.8,421.1,223.8z"/>
		<path class="st100" d="M421.1,223.4c0,0,2.5,4.9-0.2,7.5c-1.1,1.1-2,2.3-2.9,3.5c-5,6.8-9.2,14.1-12.6,21.8
			c-5.8,13.4-15.7,36.2-17.2,37.4c-2.1,1.7-2.3,5.2-0.2,5.3c2.1,0.1,3.3-2.8,3.3-2.8s2.1-6,3.4-8.4c1.3-2.4,15.1-34,15.1-34
			s5.1-13.6,10.9-16.7c0,0,5-8.3,4.1-11.9C424.1,221.4,421.1,223.4,421.1,223.4z"/>
		<path class="st101" d="M442.3,239.8c0.5,2.8,0.5,5.8-0.7,8.3c0,0-6.6,0.3-13.2-9l-4-9.7c0,0-4.4-7.6-7.1-7.2
			c-2.6,0.4-4.7,13.6-11,12.4c-6.3-1.2-3-17.1,5.4-18.8l3.2-0.8c2.4-0.6,4.9-0.1,6.8,1.4c1.5,1.2,3.6,2.8,6.2,4.7
			c2.1,1.5,4,3,5.7,4.3C438.1,229,441.2,234.1,442.3,239.8z"/>
		<path class="st96" d="M373.3,239.1c0,0,3.2,3.9,8.3,4.7c5.1,0.8,8.1-0.8,12.4,0.9C398.3,246.4,373.3,239.1,373.3,239.1z"/>
		<path class="st96" d="M416.3,231.8c0,0-9.7,8.3-9.3,10.5S416.3,231.8,416.3,231.8z"/>
		<g class="st108">
			<path d="M389.7,185.9c-0.7,0.5-1.6,0.6-2.3,0.2c-0.9-0.7-1.2-1.9-1.1-3c-0.1,0.4-0.2,0.7-0.3,1.1c-0.2,1.3,0,2.8,1,3.5
				c1,0.8,2.9,0,2.8-1.3C389.8,186.2,389.8,186.1,389.7,185.9z"/>
			<path d="M386.9,180.6c0.2-0.6,0.3-1.2,0.3-1.8c0.1-1.3-0.5-2.8-1.7-3.1c-1.2-0.4-2.5,0.5-3.8,0.3c-0.9-0.2-1.7-1-1.8-1.9
				c-0.1,0.1-0.1,0.2-0.1,0.2c-0.5,1.2,0,2.6,1.2,3.1c0.1,0.1,0.3,0.1,0.4,0.1c1.3,0.2,2.6-0.7,3.8-0.3c1.2,0.4,1.8,1.8,1.7,3.1
				C386.9,180.4,386.9,180.5,386.9,180.6z"/>
			<path d="M381.3,171.1c0.4-0.4,0.5-0.9,0.4-1.4c-0.5-1.4-2.9-0.8-3.8-1.9c-0.1-0.2-0.2-0.3-0.3-0.5c-0.4,0.7-0.5,1.5,0,2.1
				C378.4,170.4,380.7,169.8,381.3,171.1z"/>
			<path d="M419.3,193.6c-0.5,0.1-1.1,0.3-1.3,0.8c-0.1,0.2-0.1,0.5-0.2,0.7c-0.2,0.5-0.7,0.8-1.2,1c-2.3,1.1-4.7,2.1-7.1,3
				c-0.7,0.3-1.4,0.5-2.1,0.2c-0.5-0.2-0.9-0.7-1.4-0.9c-1.3-0.6-2.7,0.2-4-0.5c-1.1-0.7-1.3-1.6-1.3-2.8c0-1.8-0.2-5.9-3.3-4.7
				c-1.2,0.4-1.9,2-3.1,1.9c-1.2-0.1-1.6-1.8-1.8-3c-0.3-2.5-1.3-4.9-2.2-7.2c-0.2-0.4-0.4-1-0.9-1c-0.7-0.1-0.9,1-0.6,1.6
				c0.1,0,0.2-0.1,0.3-0.1c0.5,0,0.7,0.6,0.9,1c0.9,2.3,1.9,4.7,2.2,7.2c0.2,1.3,0.5,2.9,1.8,3c1.3,0.1,2-1.4,3.1-1.9
				c3.1-1.2,3.3,2.9,3.3,4.7c0,1.2,0.1,2.1,1.3,2.8c1.3,0.8,2.7-0.1,4,0.5c0.5,0.2,0.8,0.7,1.4,0.9c0.7,0.3,1.4,0,2.1-0.2
				c2.4-0.9,4.8-1.9,7.1-3c0.5-0.2,1.1-0.5,1.3-1c0.1-0.2,0.1-0.5,0.2-0.7c0.2-0.5,0.8-0.7,1.3-0.8c1.8-0.5,3.7-1.6,4-3.4
				c0-0.2,0-0.5,0-0.7C422.4,192.4,420.8,193.2,419.3,193.6z"/>
			<path d="M427.2,176.9c-0.3,0.6-0.5,1.2-0.5,1.9c0-0.1,0.1-0.2,0.2-0.3c0.4-0.8,1.2-1.3,1.5-2.1c0.1-0.3,0.1-0.6,0-1
				C428.1,175.9,427.6,176.4,427.2,176.9z"/>
			<path d="M423.4,188.1c0,0.2,0,0.5,0,0.7c0.7-1.5,2.4-2.6,2.9-4.2c0.1-0.4,0.2-0.9,0.2-1.3C425.8,185,423.7,186.2,423.4,188.1z"/>
		</g>
		<path class="st96" d="M355.3,339c-1.7,1.2-3.4,2.4-5,3.8c-2,1.9-7.1,3.4-7.1,3.4L355.3,339z"/>
		<path class="st96" d="M330.4,358.7c0,0-9.6,8.6-11.1,8.4C317.7,367,330.4,358.7,330.4,358.7z"/>
		<path class="st96" d="M350.3,348.2c-0.3,0.4-0.6,0.8-0.8,1.2c-2.3,3.3-10.2,2.5-12.9,0.6C338.9,349.2,346.3,346.9,350.3,348.2z"/>
		<g class="st108">
			<path d="M311.4,156.3c0.1-0.3,0.2-0.6,0.3-1C311.5,155.6,311.5,155.9,311.4,156.3z"/>
			<path d="M281.8,166.6c0.1-0.2,0.1-0.4,0.2-0.6c0.7-1.5-0.2-2.6-1.2-3.6c-1-0.9-1.6-2.1-1.8-3.4c-0.1-0.4-0.1-0.7-0.1-1.1
				c-0.1,0.1-0.2,0.2-0.2,0.3c-0.4,0.7-0.3,1.6-0.1,2.4c0.2,1.3,0.8,2.5,1.8,3.4C281.2,164.8,281.8,165.6,281.8,166.6z"/>
			<path d="M308.2,180.4c-0.8-0.2-1.4,0.5-1.8,1.2s-0.8,1.5-1.6,1.6c-1,0.1-1.6-0.9-2-1.8s-0.8-1.8-0.8-2.8c0-0.1,0-0.2,0-0.3
				c-0.3,0.6-0.4,1.3-0.5,2c0,1,0.4,1.9,0.8,2.8c0.4,0.9,1.1,1.9,2,1.8c0.8-0.1,1.2-0.9,1.6-1.6c0.4-0.7,1.1-1.5,1.8-1.2
				c0.3,0.1,0.7,0.4,1,0.2c0.2-0.1,0.3-0.3,0.3-0.5c0.1-0.4,0.1-0.7,0.1-1.1C308.8,180.8,308.5,180.5,308.2,180.4z"/>
			<path d="M313,172.6c-1,0.8-2.2,1.4-2.9,2.5c-0.2,0.5-0.4,1-0.4,1.6c0.6-1.1,1.8-1.7,2.8-2.5c1.6-1.3,2.6-3,2.9-5
				C314.9,170.6,314.1,171.7,313,172.6z"/>
			<path d="M302.4,176.8c0.2-0.5,0.3-1,0.4-1.4c0.3-1.5-0.2-3-0.7-4.4c-0.3-1-1-2.3-2.1-2.2c-0.2,0.1-0.4,0.1-0.6,0.1
				c-0.6-0.1-0.7-0.8-0.8-1.4c-0.4-2.8-2.5-5-5.3-5.5c-0.3-0.1-0.6,0-0.9,0.1c-0.4,0.2-0.6,0.6-1,0.9c-1.2,0.8-2.7-0.8-4.1-0.6
				c-1.2,0.1-2,1.4-2.5,2.5c-0.5,1.1-1.1,2.4-2.3,2.7c-0.2,0.1-0.4,0-0.6-0.1c-0.1-0.1-0.2-0.2-0.2-0.3c0,0.2-0.1,0.5-0.2,0.7
				c-0.2,0.4-0.4,1-0.1,1.3c0.2,0.1,0.4,0.1,0.6,0.1c1.2-0.3,1.8-1.5,2.3-2.7c0.5-1.1,1.3-2.4,2.5-2.5c1.4-0.1,3,1.5,4.1,0.6
				c0.4-0.3,0.6-0.7,1-0.9c0.3-0.1,0.6-0.1,0.9-0.1c2.8,0.5,4.9,2.7,5.3,5.5c0.1,0.6,0.2,1.3,0.8,1.4c0.2,0,0.4,0,0.6-0.1
				c1.1-0.1,1.8,1.1,2.1,2.2C302.2,173.9,302.6,175.4,302.4,176.8z"/>
		</g>
		<path class="st96" d="M294.9,268.1c0,0,10.5-2.6,12.1-1.2C308.7,268.3,294.9,268.1,294.9,268.1z"/>
		<path class="st96" d="M264.8,278.1c0,0,4.4,2.5,4.9,4.7C270.1,284.9,264.8,278.1,264.8,278.1z"/>
		<g class="st108">
			<path d="M190.1,138.7c0,0.6,0.1,1.2,0.2,1.7c0-0.2,0-0.4,0-0.5c0-0.8,0.3-1.6,0.2-2.4c0-0.3-0.1-0.7-0.2-1
				C190.3,137.2,190.1,137.9,190.1,138.7z"/>
			<path d="M146.9,138c0.2,0.5,0.5,1.1,0.7,1.6c0-0.1,0-0.3,0-0.4c-0.1-0.8-0.6-1.5-0.9-2.3C146.7,137.3,146.8,137.6,146.9,138z"/>
			<path d="M193.6,145.1c-0.1-0.1-0.1-0.3-0.3-0.4c-0.1,0.4-0.4,0.7-0.8,0.8c-0.6,0.2-1.3,0.3-1.9,0.3c-1.5,2.5-5.9,1.3-7.6,3.7
				c-0.8,1.1-0.7,2.6-1,4c-0.5,2.2-2.2,4.2-1.9,6.4c0.1,0.8,0.5,1.7,0,2.3c-0.5,0.6-1.3,0.6-2,0.3c-1.7-0.7-2.7-2.5-3.9-3.9
				c-1.2-1.4-3.4-2.4-4.9-1.2c-1.2,1-1,2.9-0.8,4.4s-0.3,3.6-1.9,3.8c-0.6,0.1-1.3-0.1-1.9,0c-1.9,0.5-1.8,3.8-3.7,4.4
				c-0.7,0.2-1.4,0-2.1-0.2c-2.5-0.6-5.3,0.7-7.6,0c-1.3-0.4-1.8-1.8-2.2-3.2c0.3,1.8,0.8,3.9,2.4,4.4c2.3,0.7,5.1-0.5,7.6,0
				c0.7,0.2,1.4,0.4,2.1,0.2c1.9-0.6,1.7-3.9,3.7-4.4c0.6-0.1,1.3,0.1,1.9,0c1.5-0.3,2-2.3,1.9-3.8s-0.3-3.4,0.9-4.4
				c1.4-1.2,3.6-0.2,4.9,1.2c1.2,1.4,2.2,3.2,3.9,3.9c0.7,0.3,1.6,0.3,2-0.3c0.4-0.6,0.1-1.5,0-2.3c-0.3-2.2,1.4-4.2,1.9-6.4
				c0.3-1.3,0.2-2.9,1-4c1.7-2.3,6.2-1.2,7.6-3.7c0.7,0.1,1.3,0,1.9-0.3C193.4,146.5,193.8,145.7,193.6,145.1z"/>
			<path d="M148.6,163.6c-0.3-1.2-0.6-2.4-1.4-3.4c-0.6-0.8-1.5-1.4-1.9-2.2c0,0.1,0,0.2,0,0.3c0.1,1.3,1.3,2.1,2.1,3.1
				s1.1,2.2,1.4,3.3C148.7,164.3,148.7,163.9,148.6,163.6z"/>
			<path d="M147,152.1c-0.1-1.6-1.2-3.2-1.6-4.8C145.6,148.9,146.6,150.5,147,152.1z"/>
		</g>
		<path class="st96" d="M228.8,297.6c0,0,13.1-0.4,9.9,1c-3.1,1.4-11.9,1.3-11.9,1.3L228.8,297.6z"/>
		<path class="st96" d="M282.5,325.5c0,0,6.1-0.9,7.6,0.1S282.5,325.5,282.5,325.5z"/>
		<polygon class="st100" points="211.6,297.1 227.3,297.1 222.2,305.3 212.1,310.4 		"/>
		<g>
			<path class="st23" d="M278.9,212.4l-0.8-2.2c0,0-15.6,2.7-19.2,6.5c0,0-7-5.7-11.2-5.5l-4.2,0.2l11.4,12.8l16.3,0.5L278.9,212.4z
				"/>
			<path class="st109" d="M279.8,210.5l11.9,21.2l-21.4,7.7c0,0-2,0.8-3.4-0.4l-12.8-7.7l-10.6-19.7l12,8c0,0,1.7-2.6,4.3-0.9
				L279.8,210.5z"/>
		</g>
		<path class="st103" d="M310.2,225.8c0,0-5.9,1.8-8.6,1.8s-13.2-0.1-13.2-0.1s-27.5-9.2-19.2,3.4c8.2,12.6,21.3,5.5,21.3,5.5
			l2.3,0.5c1.3,0.3,26.1,0.1,26.9-0.9C320.5,235.1,310.2,225.8,310.2,225.8z"/>
		<path class="st96" d="M327.2,236.8c-3.7,0.3-11.1,0.4-11.1,0.4s-5.5-10.9-10.2-10.5c0,0,4.3-4.9,6.1-4.3c0.3,0.1,0.5-0.1,0.6-0.5
			c4.6,1.4,13.3,4.8,14.2,10.8C327,234.3,327.2,235.6,327.2,236.8z"/>
		<path class="st98" d="M327.7,236.8c-3.7,0.3-11.1,0.4-11.1,0.4s-5.5-10.9-10.2-10.5c0,0,4.3-4.9,6.1-4.3c0.3,0.1,0.5-0.1,0.6-0.5
			c4.6,1.4,13.3,4.8,14.2,10.8C327.5,234.3,327.6,235.6,327.7,236.8z"/>
		<path class="st102" d="M327.7,236.8c-3.7,0.3-11.1,0.4-11.1,0.4s-5.5-10.9-10.2-10.5c0,0,4.3-4.9,6.1-4.3c0.3,0.1,0.5-0.1,0.6-0.5
			c4.6,1.4,13.3,4.8,14.2,10.8C327.5,234.3,327.6,235.6,327.7,236.8z"/>
		<path class="st96" d="M318.8,233.3l-2.9,1.1c-0.1,0-0.2,0-0.3,0l0,0c-0.1-0.1-0.1-0.3,0.1-0.4l2.6-1.2
			C318.5,232.8,318.7,233,318.8,233.3z"/>
		<path class="st101" d="M264.8,232.8c-4.4,7.6-20.9,6.1-20.9,6.1s-5.8-1.2-9.3,0.8s-20.4,4.2-20.4,4.2s-6.4-1.4-7.9-3.4
			c-1.4-1.8-14.3-9.4-17.6-11.4l-0.7-0.4l0,0c0,0-0.1,0-0.1-0.1l0,0l13.8-17.4l2.3,2.4l11.1,11.9c0,0,10.9,0.5,14,2.3
			c3.1,1.9,12.9-0.6,12.9-0.6s4.8,0,5.1-1.1C247.6,225,269.2,225.1,264.8,232.8z"/>
		<path class="st96" d="M204,213.5L204,213.5c-2.2,1.8-10.1,15.1-15.3,15.5c-0.1,0-0.2,0-0.3,0c0,0-0.1-0.1-0.4-0.4l0,0
			c0,0,0-0.1-0.1-0.1l13.8-17.4L204,213.5z"/>
		<path class="st105" d="M189,197l7,3c0,0,3.4,3.4,3.3,6.5c-0.2,3.1,1.7,0.8,1.7,0.8s1.2,0.5,1.2,1.7s3.4,2.5,1.2,4.2
			c-2.2,1.7-10.3,15.6-15.6,15.4c-3.1-3.6-6.5-7-10.1-10.1C172.3,213.8,167.3,189.8,189,197z"/>
		<g>
			<polygon class="st109" points="335.4,242.1 346.4,265.2 369.3,274.7 389.3,264.6 365.7,255.2 357.6,236.4 			"/>
			<path class="st23" d="M367,253.1c0,0,4.7-0.2,7.8,1.7s11.8,8.1,12.8,8.1c1,0-18.6,9.8-18.6,9.8l-20.9-9.1l-10.3-19.8l18.5-4.6
				c0,0,8.6,4.7,9.6,8.5C367,251.6,367,253.1,367,253.1z"/>
		</g>
		<path class="st101" d="M356.9,231.4l-1.1-0.2c0,0-4.8,0.3-9.4,0.8c-4.7,0.5-11.3,1.9-6.5,7.6c4.8,5.6,5.3-2.4,5.3-2.4
			s11.8-1.8,15.3-3.7C364,231.6,356.9,231.4,356.9,231.4z"/>
	</g>
</g>
<g id="Layer_3">
</g>
<g id="Layer_4">
</g>
<g id="Layer_5">
</g>
<g id="Layer_6">
</g>
<g id="Layer_7">
</g>
</svg>
