<?xml version="1.0" encoding="utf-8"?>
<!-- Generator: Adobe Illustrator 24.1.1, SVG Export Plug-In . SVG Version: 6.00 Build 0)  -->
<svg version="1.1" xmlns="http://www.w3.org/2000/svg" xmlns:xlink="http://www.w3.org/1999/xlink" x="0px" y="0px"
	 viewBox="0 0 512.2 400" style="enable-background:new 0 0 512.2 400;" xml:space="preserve">
<style type="text/css">
	.st0{clip-path:url(#SVGID_2_);}
	.st1{clip-path:url(#SVGID_6_);}
	.st2{clip-path:url(#SVGID_10_);}
	.st3{fill:#EBEBF3;}
	.st4{clip-path:url(#SVGID_14_);}
	.st5{fill:#DBDCE9;}
	.st6{clip-path:url(#SVGID_18_);}
	.st7{clip-path:url(#SVGID_22_);}
	.st8{clip-path:url(#SVGID_26_);}
	.st9{clip-path:url(#SVGID_30_);}
	.st10{clip-path:url(#SVGID_34_);}
	.st11{clip-path:url(#SVGID_38_);}
	.st12{clip-path:url(#SVGID_42_);}
	.st13{clip-path:url(#SVGID_46_);}
	.st14{clip-path:url(#SVGID_50_);}
	.st15{clip-path:url(#SVGID_54_);}
	.st16{clip-path:url(#SVGID_58_);}
	.st17{clip-path:url(#SVGID_62_);}
	.st18{clip-path:url(#SVGID_66_);}
	.st19{clip-path:url(#SVGID_70_);}
	.st20{clip-path:url(#SVGID_74_);}
	.st21{clip-path:url(#SVGID_78_);}
	.st22{clip-path:url(#SVGID_82_);}
	.st23{fill:#FFFFFF;}
	.st24{fill:#F9B79D;}
	.st25{fill:#E3E4F0;}
	.st26{clip-path:url(#SVGID_86_);}
	.st27{clip-path:url(#SVGID_90_);}
	.st28{clip-path:url(#SVGID_94_);}
	.st29{clip-path:url(#SVGID_98_);}
	.st30{fill:#D3D6E6;}
	.st31{clip-path:url(#SVGID_102_);}
	.st32{clip-path:url(#SVGID_106_);}
	.st33{clip-path:url(#SVGID_110_);}
	.st34{clip-path:url(#SVGID_114_);}
	.st35{clip-path:url(#SVGID_118_);}
	.st36{clip-path:url(#SVGID_122_);}
	.st37{clip-path:url(#SVGID_126_);}
	.st38{fill:#325797;}
	.st39{fill:#CFCED1;}
	.st40{fill:#CE9888;}
	.st41{fill:#2C4F86;}
	.st42{clip-path:url(#SVGID_130_);}
	.st43{clip-path:url(#SVGID_134_);}
	.st44{fill:#C1C1CA;}
	.st45{clip-path:url(#SVGID_138_);}
	.st46{clip-path:url(#SVGID_142_);}
	.st47{clip-path:url(#SVGID_146_);}
	.st48{clip-path:url(#SVGID_150_);}
	.st49{clip-path:url(#SVGID_154_);}
	.st50{clip-path:url(#SVGID_158_);}
	.st51{clip-path:url(#SVGID_162_);}
	.st52{clip-path:url(#SVGID_166_);}
	.st53{fill:#AE827A;}
	.st54{fill:#6B341F;}
	.st55{clip-path:url(#SVGID_170_);}
	.st56{clip-path:url(#SVGID_174_);}
	.st57{clip-path:url(#SVGID_178_);}
	.st58{clip-path:url(#SVGID_182_);}
	.st59{clip-path:url(#SVGID_186_);}
	.st60{clip-path:url(#SVGID_190_);}
	.st61{clip-path:url(#SVGID_194_);}
	.st62{clip-path:url(#SVGID_198_);}
	.st63{clip-path:url(#SVGID_202_);}
	.st64{clip-path:url(#SVGID_206_);}
	.st65{clip-path:url(#SVGID_210_);}
	.st66{fill:#EB5E37;}
	.st67{fill:#4B2D4F;}
	.st68{fill:#BDBCC7;}
	.st69{fill:#C65437;}
	.st70{fill:#243068;}
	.st71{fill:#202D5E;}
	.st72{fill:#422948;}
	.st73{clip-path:url(#SVGID_214_);}
	.st74{clip-path:url(#SVGID_218_);}
	.st75{clip-path:url(#SVGID_222_);}
	.st76{fill:#C3C2CB;}
	.st77{fill:#B8B8C7;}
	.st78{clip-path:url(#SVGID_226_);}
	.st79{fill:#2E5695;}
	.st80{fill:#2C4F87;}
	.st81{clip-path:url(#SVGID_230_);}
	.st82{fill:#C7CADF;}
	.st83{clip-path:url(#SVGID_234_);}
	.st84{fill:#E7AC9C;}
	.st85{fill:#E05F41;}
	.st86{fill:#B2B3C3;}
	.st87{fill:#C4938A;}
	.st88{fill:#C05641;}
	.st89{fill:#22336B;}
	.st90{fill:#1F3162;}
	.st91{fill:#393F4B;}
	.st92{fill:#F6F4F4;}
	.st93{fill:#CAC9CB;}
	.st94{fill:#FAB150;}
	.st95{opacity:0.1;fill:#F6D2D1;}
	.st96{opacity:0.1;enable-background:new    ;}
	.st97{fill:url(#SVGID_237_);}
	.st98{fill:#324E90;}
	.st99{fill:#BCD1E6;}
	.st100{fill:#B9616E;}
	.st101{fill:#F6D2D1;}
	.st102{fill:#3F424D;}
	.st103{fill:#F7BEA5;}
	.st104{fill:#72351C;}
	.st105{fill:#E7552C;}
	.st106{fill:#512D4D;}
	.st107{fill:#FFD762;}
	.st108{opacity:0.1;}
	.st109{fill:#61C2EF;}
	.st110{opacity:0.3;clip-path:url(#SVGID_239_);fill:#324E91;enable-background:new    ;}
	.st111{opacity:0.1;fill:#324E91;enable-background:new    ;}
	.st112{opacity:0.3;fill:#324E91;enable-background:new    ;}
	.st113{fill:#5B539E;}
	.st114{fill:url(#SVGID_240_);}
	.st115{fill:#324E91;}
	.st116{fill:#5781C1;}
	.st117{fill:#F9B547;}
	.st118{opacity:0.1;fill:#FFFFFF;enable-background:new    ;}
	.st119{opacity:0.1;fill:#324E90;}
	.st120{opacity:0.2;fill:#324E90;enable-background:new    ;}
	.st121{opacity:0.7;}
	.st122{opacity:0.6;fill:#324E90;enable-background:new    ;}
	.st123{opacity:0.25;enable-background:new    ;}
	.st124{fill:url(#SVGID_241_);}
	.st125{fill:url(#SVGID_242_);}
	.st126{fill:url(#SVGID_243_);}
	.st127{fill:url(#SVGID_244_);}
	.st128{fill:url(#SVGID_245_);}
	.st129{fill:url(#SVGID_246_);}
	.st130{fill:url(#SVGID_247_);}
	.st131{opacity:0.1;fill:url(#SVGID_248_);enable-background:new    ;}
	.st132{opacity:0.1;fill:url(#SVGID_249_);enable-background:new    ;}
	.st133{opacity:0.1;fill:url(#SVGID_250_);enable-background:new    ;}
	.st134{fill:url(#SVGID_251_);}
	.st135{fill:url(#SVGID_252_);}
	.st136{fill:url(#SVGID_253_);}
	.st137{fill:url(#SVGID_254_);}
	.st138{fill:#262D62;}
	.st139{clip-path:url(#SVGID_256_);fill:url(#SVGID_257_);}
	.st140{clip-path:url(#SVGID_256_);fill:#3F424D;}
	.st141{clip-path:url(#SVGID_256_);}
	.st142{fill:url(#SVGID_258_);}
	.st143{opacity:5.000000e-02;enable-background:new    ;}
	.st144{opacity:0.1;fill:#E7552C;}
	.st145{opacity:0.13;clip-path:url(#SVGID_260_);fill:#FFFFFF;}
	.st146{opacity:0.13;fill:#FFFFFF;}
	.st147{opacity:0.98;fill:#FFFFFF;}
	.st148{clip-path:url(#SVGID_262_);}
	.st149{fill:#315798;}
	.st150{fill:#5381C1;}
	.st151{fill:#AFCAE0;}
	.st152{clip-path:url(#SVGID_266_);}
	.st153{fill:#2A4778;}
	.st154{fill:#B2626E;}
	.st155{fill:#95726B;}
	.st156{fill:#9B5864;}
	.st157{fill:#595BA7;}
	.st158{fill:#FABFA6;}
	.st159{fill:#6867AE;}
	.st160{fill:#F3C8C7;}
</style>
<g id="Layer_1">
</g>
<g id="Layer_2">
</g>
<g id="Layer_3">
</g>
<g id="Layer_4">
</g>
<g id="Layer_5">
	<g>
		<path class="st96" d="M291.3,39c-35.5,13.7-74.1,14.4-109.9,1.4c-50.7-18.3-117-23-141.5,60.9C-1.9,244.7,83.8,295.9,83.8,295.9
			s59.8,13.4,93,37.6c47.1,34.4,104.7,45.9,159,29.8c34.7-10.3,64.5-27.3,73-55c23.8-77.5,8.7-124.1,51.7-144.5s19.1-96.1-11.5-97.8
			S346.1,81.9,323.8,46.9C315.9,34.5,303.7,34.2,291.3,39z"/>
		<g>
			<path class="st101" d="M236.2,317.5c0,0-1.5,9.8-4.1,11.3s13.4,5.1,13.4,5.1l2.6-15.4L236.2,317.5z"/>
			<path class="st102" d="M255.2,205.8l5.7,6.7l-2.6,23.2l-2.1,45.8c0,0,4.1,39.6,0,40.7c-4.1,1-22.6,0.5-22.1-2.1s1-4.6,2.1-8.2
				s-1-16.5-1-16.5l2.6-14.4l-9.3-62.3L255.2,205.8z"/>
			<path class="st102" d="M236.7,327.3c0,0-5.7-1-6.2,0s-10.3,11.8-11.8,11.8s-12.9,10.3-1,10.8s31.4-8.7,31.4-8.7
				s-2.9-13.1-2.7-12.5C246.5,329.3,236.7,329.9,236.7,327.3z"/>
			<path class="st101" d="M230.5,303.6c0,0,14.4,16,14.9,17.5s8.2,0,8.2,0l3.1-10.3l-2.6-3.6l-14.4-11.8L230.5,303.6z"/>
			<path class="st102" d="M251.1,315.4l-7.5,7c0,0,9.5,14.6,9.5,16.1s0.5,14.4,5.7,12.4c5.1-2.1,5.7-22.6,5.7-22.6
				s-0.5-21.1-3.6-22.6s-9.9-1.1-9.9-1.1S255.2,314.9,251.1,315.4z"/>
			<path class="st102" d="M208.4,160c0,0-2.6,8.2-3.1,10.3s-3.6,7.7-3.6,16.5s1,19,0,20.1s-17.5,58.7-10.3,64.8s30.9,26.8,32.4,29.3
				s2.1,8.7,5.1,7.7s14.9-11.3,15.4-13.4s-6.7-5.7-6.7-5.7s-14.4-21.1-18-20.6s-3.1-2.6-2.6-4.1s1.5-2.6,0-2.6s-0.5-4.1,0-6.2
				s12.4-29.8,12.4-29.8l31.4-13.9c0,0-1.5-37.6-12.9-47.9l-2.6-6.2C245.4,158.5,216.6,156.4,208.4,160z"/>
			<path class="st101" d="M221.3,78.7c0,0,2.6,18-3.6,19s-11.3,0.5-11.3,1s15.4,16.5,15.4,16.5l14.4-1l12.9-13.9
				c0,0-11.8-2.1-11.8-9.3c0-7.2-0.5-12.4-0.5-12.4H221.3z"/>
			<path class="st96" d="M221.3,78.7c0,0,2.6,18-3.6,19s-11.3,0.5-11.3,1s15.4,16.5,15.4,16.5l14.4-1l12.9-13.9
				c0,0-11.8-2.1-11.8-9.3c0-7.2-0.5-12.4-0.5-12.4H221.3z"/>
			<circle class="st101" cx="229.2" cy="70.2" r="16"/>
			<path class="st102" d="M215.1,96.2c0,0-20.1,2.6-21.6,9.3s10.3,48.4,11.8,52s1,6.2,1,6.2c4.7-3.5,10.7-4.8,16.5-3.6
				c9.8,2.1,23.7,1,23.7,1s4.6-19,5.7-21.1s5.1-13.4,5.1-16.5s6.2-16,6.2-16s-3.1-9.3-14.4-8.7c0,0-4.9-2.2-6.3-0.6
				c-1.4,1.6-9.1,8.8-18.9,5.7S215.1,96.2,215.1,96.2z"/>
			<path class="st102" d="M199.1,105h-5.7l-3.1,40.7c0,0,11.3,3.1,12.9,1S199.1,105,199.1,105z"/>
			<path class="st102" d="M191.9,141.5l-1.5,4.1c0,0-1,13.4,5.1,12.9s9.8-8.2,9.8-8.2s-3.6-9.8-7.7-8.7S191.9,141.5,191.9,141.5z"/>
			<path class="st102" d="M253.7,105l9.8,2.6c0,0,7.2,26.2,7.7,26.8s1,3.6,1,3.6s0,0.5,1,2.1s2.6,0.5,1.5,2.6s-2.6,1-1.5,3.1
				s0.5,7.7,0.5,7.7s-2.6-9.8-11.8-7.2l-6.2-27.8L253.7,105z"/>
			<path class="st106" d="M211.1,57.1c-3.2,5.7-4,12.5-4.4,19c-0.2,2.8-0.3,5.7,0.5,8.4c0.9,2.8,2.8,5.7,1.8,8.5c-1,2.7-4.2,3.8-6,6
				c-1.5,1.9-1.9,4.5-1.8,6.9c0.1,2.4,0.7,4.8,0.9,7.2c0.4,5.3-1.3,10.6-4.6,14.8c7.8-0.3,16-3.7,19.3-10.8c1-2.1,1.5-4.4,2.3-6.5
				c1-2.4,2.5-4.6,3.4-7.1c1.4-3.7,1.5-7.7,1.6-11.7c0-2.4,0.1-4.8-0.8-7c-1.8-4.9-7.4-8.1-8-13.2c-0.1-0.5,0-1.1,0.2-1.6
				c0.3-0.4,0.6-0.7,0.9-1c3.5-3.1,2.9-9.6,7.1-11.8c1.9-0.9,4.1-0.6,6.1,0c2.2,0.7,4.5,1.7,5.9,3.5c2.9,3.7,1.8,9,0.9,13.6
				c-1.3,6.7-1.8,13.5-1.4,20.3c0,1.1,0.2,2.2,0.5,3.2c0.5,1.7,1.7,3.1,2.5,4.7c1.8,3.2,2.3,6.9,1.6,10.5c-0.6,3.1-2.2,6.4-0.8,9.3
				c0.6,1.1,1.5,2.1,2.5,2.8c4.6,3.6,10.3,5.8,13.7,10.5c0.6-3.8-0.5-7.7-1.4-11.5s-1.3-7.9,0.4-11.4c0.7-1.5,1.9-2.9,2.5-4.5
				c1.4-3.7-0.3-7.7-1.3-11.5c-0.7-3-1.2-6-1.6-9.1l-1-8.2c-0.9-6.8-1.8-13.8-4.8-20c-5.6-11.7-18.4-16-29.8-9.5
				C215.2,51.6,212.8,54.1,211.1,57.1z"/>
			<path class="st101" d="M197.1,144.1c0,0-3.1,9.3,0.5,9.3s10.3-5.7,10.8-10.3s9.8-22.1,3.1-20.6s-9.8,14.4-9.8,14.4L197.1,144.1z"
				/>
			<polygon class="st117" points="249,105 232.1,160 255.2,165.2 272.2,111.7 			"/>
			<path class="st101" d="M270.7,144.6l3.2,5.4c0,0,1.4,10.1-5.8,10.1s-17.5-9.8-17.5-9.8s-5.1-2.1-8.2-1.5s-20.1,0-12.9-8.7
				s19.6,0,19.6,0l12.9,6.2l6.7-3.6L270.7,144.6z"/>
			<path class="st102" d="M266.3,137.6l-5.1,8.2c0,0,11.8,1.5,12.9,4.1s-4.6-13.4-4.6-13.4L266.3,137.6z"/>
		</g>
		<polygon class="st117" points="264.6,199.2 301.8,217.3 300.6,231.3 267.9,215.3 		"/>
		<path class="st99" d="M267.9,202.8v12.4l31,15.2C298.9,230.5,302,211.7,267.9,202.8z"/>
		<rect x="152.5" y="238.4" class="st102" width="7.1" height="101.1"/>
		<rect x="306.6" y="238.4" class="st102" width="7.1" height="101.1"/>
		<path class="st99" d="M149.8,230.2h163c6.3,0,11.4,5.1,11.4,11.4v1.5l0,0H138.4l0,0v-1.5C138.4,235.3,143.5,230.2,149.8,230.2z"/>
		<path class="st96" d="M149.3,230.2h163c6.3,0,11.4,5.1,11.4,11.4v1.5l0,0H137.9l0,0v-1.5C137.9,235.3,143,230.2,149.3,230.2z"/>
		<path class="st99" d="M149.8,227.9h163c6.3,0,11.4,5.1,11.4,11.4v1.5l0,0H138.4l0,0v-1.5C138.4,233,143.5,227.9,149.8,227.9z"/>
		<rect x="157.2" y="315.5" class="st102" width="152.9" height="7.1"/>
		<rect x="93.7" y="290.8" class="st102" width="6.2" height="56.1"/>
		<rect x="142.5" y="290.8" class="st102" width="6.2" height="56.1"/>
		<path class="st99" d="M153.6,281.6c0,3.7-12.7,6.8-28.4,6.8s-27.8-3-27.8-6.8c0-3.8,12.1-6.8,27.8-6.8S153.6,277.8,153.6,281.6z"
			/>
		<path class="st102" d="M88.8,281.6h64.8l0,0v5.7c0,3-2.4,5.4-5.4,5.4l0,0h-50c-5.2,0-9.3-4.2-9.3-9.3V281.6L88.8,281.6z"/>
		<path class="st102" d="M77.8,216.7l1.3-0.3c2-0.4,3.9,0.8,4.3,2.7l16.2,71.7l0,0l-2,0.5c-3.5,0.8-7.1-1.4-7.9-5L75,221
			C74.6,219,75.8,217.1,77.8,216.7C77.8,216.7,77.8,216.7,77.8,216.7z"/>
		<rect x="363.7" y="291.8" class="st102" width="6.2" height="56.1"/>
		<rect x="315" y="291.8" class="st102" width="6.2" height="56.1"/>
		<path class="st99" d="M310.1,282.6c0,3.7,12.7,6.8,28.4,6.8s27.8-3,27.8-6.8c0-3.8-12.1-6.8-27.8-6.8S310.1,278.8,310.1,282.6z"/>
		<path class="st102" d="M365.5,293.7h-50c-3,0-5.4-2.4-5.4-5.4v-5.7l0,0h64.8l0,0v1.8C374.8,289.5,370.7,293.7,365.5,293.7z"/>
		<path class="st102" d="M366,292.2l-2-0.5l0,0l16.2-71.7c0.4-2,2.4-3.2,4.3-2.7l1.3,0.3c2,0.4,3.2,2.4,2.7,4.3l-14.7,65.3
			C373.1,290.8,369.6,293,366,292.2z"/>
		<path class="st96" d="M368.2,260.7l1.8-0.6c0,0-3.1-20.8-3.1-39.4c0-0.5,0-1.1,0-1.6c0-1.2,0.1-2.3,0.1-3.4
			c0.1-1.4,0.1-2.8,0.1-4.2c0.2-18-6.9-25.5-6.9-25.5s-8.3-11.8-13.3-14.1c-0.4-1.3-0.9-3.1-1.4-5.1c0.2-0.1,0.3-0.2,0.5-0.3
			c2.1-1.5,4-3.2,5.9-4.9c2.6-2.4,5-5.3,4.9-8.6c0-0.3,0-0.6,0-1c-0.5-4-4.6-7-6.3-10.7c-1.4-3.2-1-6.7-2.2-9.9s-5.5-6.2-8.7-4.5
			c-1.2,0.6-1.9,1.7-2.9,2.6c-2.5,2.1-6.4,2.3-9.8,1.3c-3.4-0.9-4.4-4.8-9.1-4.8c0.4,0.1,0.8,0.3,1.2,0.6c-0.4-0.1-0.8-0.1-1.2-0.1
			c2,0.6,3.4,2.3,3.6,4.4c0,0.1,0,0.2,0,0.4c-1.9,1-4.3,0.4-6.6,0.4c-2.3,0-4.8,1.1-4.6,2.9c0,0.2,0,0.4,0,0.6
			c0.3,1.4,2.2,2.4,2.4,3.7c0,0,0,0.1,0,0.1c-4.2,2.1-8.7,3.4-13.3,3.9c-0.2,0-0.1,0.2,0.1,0.4h-0.1c-0.8,0.1,5.1,4.8,5.7,5.1
			c2.5,1.1,5.4,1.9,8,2.8l0.2,0.1c-0.9,2-1.3,4.3-1.3,6.5c0,8,5.7,14.7,13.5,16.6c1.5,1.7,3,3.6,4.4,5.4h-0.1c0,0-8.9,11.9-8.7,29.7
			c0,2.2,0.1,4.5,0.4,6.7c-5.8-0.3-18.1-1.8-27.5-8.7c-12.7-9.3-26.8-6.5-23.9-0.9c2.9,5.6,18,10.2,20.5,10.7c0.2,0,0.8,0.2,1.5,0.4
			c-3,0.6-5.1,1.6-4.9,2.9c0.2,2.5,13.2,10.7,21,11.1c5.2,0.3,11.4,1.9,16.3,3.3c0.5,10.7-2.1,13.9-2.1,13.9s0.8,0.5,2,1.1l-0.5,1.6
			c-3.2,1.8-7.1,3.7-10.6,4.5c-4.5,0.9-8.9,2.4-13.1,4.4l-17.6,8.5c-3.2,1.5-5.4,4.5-5.8,8c-0.4,3.6,0.7,8.1,6.6,11.7
			c0.4,2.9,2.1,6.3,6.8,9.5c9.1,6,33,24.1,36.2,26.6c0.1,4.4-0.5,13.3-6,14.7c-6.8,1.7-1.3,8.3,4.2,8c1.3,0.5,2.7,0.6,4.1,0.3
			c5.9-1.4,27.3-8.8,28.8-19.9c0.1-0.5,0.1-1,0.1-1.5c0.1-1.9-0.4-3.8-1.4-5.4c0.2,0.5,0.4,1,0.6,1.6c-1.8-4-6.1-6.6-9.5-8
			c0,0,0-0.1,0-0.1c-0.5-0.2-1-0.4-1.5-0.5c0-0.3,0-0.6-0.1-0.9L312,289.3c0,0,14.6-12.1,29.7-10.2c15.1,1.9,17.5-0.9,17.5-0.9
			s7.8-7.4,8.5-15.9l0.5-0.1C368.3,262.2,368.3,261.7,368.2,260.7z"/>
		<path class="st100" d="M327.1,321.1c0,0,1.4,15.1-5.5,17c-6.9,1.8-0.5,9.2,5,7.8c5.5-1.4,25.7-8.7,27.1-19.7S340,311.5,340,311.5
			L327.1,321.1z"/>
		<path class="st143" d="M327.1,321.1c0,0,1.4,15.1-5.5,17c-6.9,1.8-0.5,9.2,5,7.8c5.5-1.4,25.7-8.7,27.1-19.7S340,311.5,340,311.5
			L327.1,321.1z"/>
		<path class="st100" d="M329.9,321.6c0,0,1.4,15.1-5.5,17c-6.9,1.8-0.5,9.2,5,7.8c5.5-1.4,25.7-8.7,27.1-19.7
			c1.4-11-13.8-14.7-13.8-14.7L329.9,321.6z"/>
		<path class="st96" d="M344.1,312.4l-12.8,9.6c0,0,0.1,0.7,0.1,1.7c4.8-1.3,15.4-4.9,15.6-10.4C346,313,345.1,312.7,344.1,312.4z"
			/>
		<rect x="330.6" y="180.5" class="st101" width="5.5" height="4.1"/>
		<path class="st115" d="M330.8,247.2c0,0-8.7,6.9-15.9,8.5c-4.3,0.9-8.4,2.4-12.3,4.3l-16.5,8.4c-3,1.5-5.1,4.5-5.5,7.9
			c-0.5,4.7,1.4,10.8,12.6,14.5l35.3,29.4l11-9.2l-37.6-28.9l28.9-17.9L330.8,247.2z"/>
		<path class="st96" d="M330.8,247.2c0,0-8.7,6.9-15.9,8.5c-4.3,0.9-8.4,2.4-12.3,4.3l-16.5,8.4c-3,1.5-5.1,4.5-5.5,7.9
			c-0.5,4.7,1.4,10.8,12.6,14.5l35.3,29.4l11-9.2l-37.6-28.9l28.9-17.9L330.8,247.2z"/>
		<path class="st101" d="M325.8,216.5c0,0-17,0.5-28.9-8.7c-11.9-9.2-25.2-6.4-22.5-0.9c2.8,5.5,17,10.1,19.3,10.6
			c2.3,0.5,35.3,9.6,35.3,9.6L325.8,216.5z"/>
		<path class="st143" d="M325.8,216.5c0,0-17,0.5-28.9-8.7c-11.9-9.2-25.2-6.4-22.5-0.9c2.8,5.5,17,10.1,19.3,10.6
			c2.3,0.5,35.3,9.6,35.3,9.6L325.8,216.5z"/>
		<path class="st115" d="M327.6,243.1l-5.5,16.5c0,0-31,19-33.5,21.6c-2,2-4.6,9.6,4.6,16.1c9.2,6.4,34.4,26.6,34.4,26.6
			s19.3-4.2,17.9-11.9L313.8,289c0,0,13.8-11.9,28-10.1c14.2,1.8,16.5-0.9,16.5-0.9s11-11,7.3-21.6
			C362,245.9,327.6,243.1,327.6,243.1z"/>
		<path class="st101" d="M320.7,168.3c0,0,15.6,17,14.7,22c-0.9,5,12.4-14.7,12.4-14.7s-4.2-10.1-3.2-21.1L320.7,168.3z"/>
		<path class="st96" d="M334.3,183.9c1.1-1.1,2.2-2.2,3.4-3.2c2.3-1.9,4.5-4.1,6.4-6.4c3.2-4.2,15.1,13.8,15.1,13.8s7.3,8.3,6.4,28
			s1.1,46.1,1.1,46.1l-2.8,0.8c-4.7,1.6-10,0.8-14.1-2c-3.7-2.5-8.3-5.2-11.8-5.4c-6.9-0.5-13.1-4.4-13.1-4.4s3-7.1-1.6-30.1
			c-4.6-22.9,7.1-39.3,7.1-39.3S331.5,186.8,334.3,183.9z"/>
		<path class="st113" d="M368.4,260.1l-2.8,0.9l-1.6,0.5c-4.7,1.6-10,0.8-14.1-2c-3.7-2.5-8.3-5.2-11.8-5.4
			c-6.9-0.5-14.7-5.5-14.7-5.5s4.6-6,0-28.9c-4.6-22.9,7.1-39.2,7.1-39.2s0.9,5,3.8,2c1.1-1.1,2.2-2.2,3.4-3.2
			c2.3-1.9,4.5-4.1,6.4-6.4c3.2-4.2,15.1,13.8,15.1,13.8s7.3,8.3,6.4,28c-0.1,2.1-0.1,4.2-0.1,6.4
			C365.5,239.5,368.4,260.1,368.4,260.1z"/>
		<path class="st96" d="M342.3,215.1l0.5,10.1c0,0-24.3,1.4-29.4-3.7c-5-5,13.8,14.8,17.9,16.1c3.9,1.1,14,2.2,19.2,2.3
			c3.1,0.1,5.9-1.6,7.3-4.4c0.6-1.3,0.8-2.8,0.6-4.3c-0.9-6,0-18.8,0-18.8L342.3,215.1z"/>
		<path class="st96" d="M347.8,184.8c0,0-10.6,1.4-9.2,17s3.2,17,3.2,17s15.6-1.4,17.4-1.8c1.8-0.5,0.9-17.4,0.9-17.4
			S359.7,184.4,347.8,184.8z"/>
		<path class="st113" d="M347.8,184.4c0,0-10.6,1.4-9.2,17s3.2,17,3.2,17s15.6-1.4,17.4-1.8c1.8-0.5,0.9-17.4,0.9-17.4
			S359.7,183.9,347.8,184.4z"/>
		<path class="st96" d="M343.9,164.4c-0.7-3.6,0.8-4.8,1.1-9.4l-23.9,13.8c0,0,2.7,3,5.8,6.8c1.4,0.4,2.8,0.5,4.3,0.5
			C337.5,176.1,340.9,169.4,343.9,164.4z"/>
		<circle class="st101" cx="330.8" cy="158.7" r="17"/>
		<path class="st96" d="M335.1,153.5c-2.6,1.7-2.6,5.4-1,8c1.7,2.6,4.6,4.3,7.3,5.9c0.8,0.5,1.7,0.9,2.6,0.8
			c0.7-0.1,1.3-0.5,1.9-0.9c1.9-1.5,3.8-3.1,5.5-4.9c2.5-2.5,4.9-5.5,4.6-9c-0.4-3.9-4.3-6.9-5.9-10.6c-1.3-3.1-0.9-6.6-2.1-9.8
			c-1.2-3.2-5.2-6.1-8.2-4.5c-1.1,0.6-1.8,1.7-2.7,2.5c-2.3,2-6,2.2-9.2,1.3c-3.2-0.9-4.1-4.7-8.5-4.8c2.2,0.8,3.7,3.1,3.3,5.1
			c-1.8,1-4.1,0.4-6.2,0.4c-2.1,0-4.7,1.2-4.3,3.1c0.3,1.6,2.6,2.7,2.2,4.3c-3.9,2.1-8.1,3.4-12.5,3.8c-0.8,0.1,4.8,4.7,5.4,5
			c2.3,1.1,5.1,1.9,7.6,2.8C321.5,154.5,328.3,155.3,335.1,153.5z"/>
		<path class="st100" d="M335.1,153.1c-2.6,1.7-2.6,5.4-1,8c1.7,2.6,4.6,4.3,7.3,5.9c0.8,0.5,1.7,0.9,2.6,0.8
			c0.7-0.1,1.3-0.5,1.9-0.9c1.9-1.5,3.8-3.1,5.5-4.9c2.5-2.5,4.9-5.5,4.6-9c-0.4-3.9-4.3-6.9-5.9-10.6c-1.3-3.1-0.9-6.6-2.1-9.8
			c-1.2-3.2-5.2-6.1-8.2-4.5c-1.1,0.6-1.8,1.7-2.7,2.5c-2.3,2-6,2.2-9.2,1.3c-3.2-0.9-4.1-4.7-8.5-4.8c2.2,0.8,3.7,3.1,3.3,5.1
			c-1.8,1-4.1,0.4-6.2,0.4c-2.1,0-4.7,1.2-4.3,3.1c0.3,1.6,2.6,2.7,2.2,4.3c-3.9,2.1-8.1,3.4-12.5,3.8c-0.8,0.1,4.8,4.7,5.4,5
			c2.3,1.1,5.1,1.9,7.6,2.8C321.5,154,328.3,154.8,335.1,153.1z"/>
		<path class="st118" d="M355.3,319.8c0.7,1.7,1,3.6,0.7,5.4c-1.4,11-21.6,18.4-27.1,19.7c-2.9,0.7-6.1-1-7.4-3
			c0.9,2.4,4.5,4.8,7.8,3.9c5.5-1.4,25.7-8.7,27.1-19.7C356.8,324,356.4,321.8,355.3,319.8z"/>
		<path class="st96" d="M209.5,332.3L209.5,332.3c-0.4-0.9-2.5-2.7-12.8-3.1c-7-0.3-9.4-4-10.1-7.6c2.3-0.3,4.1-0.7,4.7-1.3
			c0,0,0-0.2-0.1-0.5l0.1-0.1c-0.4-2.6-0.7-5.3-0.7-7.9c0-2.3,0.2-4.5,0.7-6.7c0.3-1.5,0.4-3,0.4-4.4c0.1-8.8-3-24.3-3-24.3
			l-0.4-12.9c-0.1-3.3-2-6.2-4.9-7.7c-1-0.5-2.1-0.8-3.3-0.8c0,0-16.3-2.6-30.9-4c-1-0.8-4.7-3.1-13.1-1.8l-4.8-14.1
			c0-0.2-0.1-0.3-0.1-0.5c0.2-1.8,1.4-4.5,7-4.7l1.2,1c0,0,0.2-0.4,0.6-1c6.9-0.1,44.7-0.5,46.7,0c2.1,0.5,20.9-3.7,21.5-4.2
			c7.3-7.1-21.5-3.7-21.5-3.7c-2.8,0.5-12-0.1-21.3-0.9c4.6-6.9,9-30.5,9-30.5s16.6-8.4,11.8-13.1c-4.8-4.7-19.3,10.5-19.3,10.5
			s-5.9,17.3-8.6,22.5c-1,2.1-2.4,2.5-3.6,2.3c0.5-0.4,0.9-0.7,0.9-0.7s-11.8-9.4-12.9-13.1c-0.2-0.6-0.5-1.2-0.8-1.7
			c-0.6-3.3-1.6-6.6-4-8.8c-0.4-0.4-0.9-0.8-1.3-1.2c-0.7-0.5-1.4-0.9-2-1.4l0,0c0.3-1.6,0.8-3.3,1.2-4.9c8.8-1,15.6-8.3,15.6-17.1
			c0-1.3-0.2-2.7-0.5-3.9c2.7,0.2,5.2-1.1,6.7-3.2c1.8-2.6,1.7-6.2,0.2-9c-0.6-1.1-1.4-2.1-2.4-3c-1.5-1.5-3.4-2.7-5.4-3.4
			c-1.8-0.6-3.7-1-5.2-2.2c-0.6-0.8-1.2-1.7-1.7-2.6c-0.6-0.9-1.3-1.7-2.1-2.4c-2.6-2.7-6.3-4.3-10-5c-4.5-0.9-9.2-0.6-13.9-0.3
			c-1.7,0.1-3.8,0.4-4.5,1.9c-0.6,1.1-0.2,2.5-0.3,3.7c-0.2,4-4.8,6.2-8.8,7.2s-8.8,1.8-10.7,5.3c-1.7,3.2-0.5,7,0,10.6
			c0.9,6.3-0.5,12.6-3.9,18c-1.8,2.7-4,5.1-5.4,8c-1.5,3.2-1.9,6.9-1,10.3c0.3,1,0.6,2,0.4,3.1c-0.2,0.8-0.6,1.6-1.2,2.3
			c-4.8,6-11.9,9.6-19.6,10.1c0.3,1.1,0.9,2,1.8,2.7c1.1,1.1,2.3,1.9,3.7,2.6c3.6,1.8,7.4,3.2,11.4,4.2c2.6,0.7,5.4,1.1,8.1,0.7
			c2.7-0.5,5.3-2,6.4-4.4c0.6-1.4,0.7-3,1.3-4.4c1.1-2.9,4-4.7,5.9-7.2c-0.6,6.4-0.9,12.7-0.9,19.1c0,2,0,3.8,0,5.5
			c0,7.2-0.5,12.2-5,21.2c-0.5,0.9-0.8,2-0.7,3.1c-0.2,1.2,0.2,2.4,1.2,3.2c-0.3,1.8-0.5,3.6-0.5,5.4c-0.1,6.6,2.2,15.4,13.9,17.6
			l20.9-1c0,0,29.5-5.8,37.6-1.6c1.4,0.3,2.3,1.5,2.4,2.9c0,0.4-0.1,0.9-0.2,1.3c-0.2,1.4-0.3,2.7-0.3,4.1c0,8.8,1.9,28.8,1.9,28.8
			v8.5c-1.3,2-3,5-2.8,7.2c0,0,0,0.1,0,0.1s0,0.1,0,0.2s0,0.1,0,0.2c0,0.1,0,0.1,0,0.2c0,0.1,0,0.1,0.1,0.2c0,0.1,0,0.1,0.1,0.1
			s0.1,0.1,0.1,0.2l0.1,0.1c0.1,0.1,0.1,0.2,0.2,0.3c2.7,3.1,16.1,9.1,20.4,8.9c4.6-0.3,19.8,0.5,20.4-6.3
			C209.6,332.8,209.6,332.5,209.5,332.3z"/>
		<path class="st116" d="M171.4,319.2c0,0-6.2,7.8-3.6,10.9c2.6,3.1,15.6,9.1,19.7,8.8c4.4-0.3,19.2,0.5,19.7-6.2
			c0,0,1-3.1-12.5-3.6s-9.3-14.5-9.3-14.5L171.4,319.2z"/>
		<path class="st96" d="M97.1,253.8c0,0-6.2,21.3,12.5,24.9l20.2-1c0,0,28.5-5.7,36.3-1.6c0,0,3.1,0.5,2.1,4.7s1.6,32.2,1.6,32.2
			v9.3c0,0,17.6,0,19.7-2.1c0,0-1.6-8.3,0-15.1c1.6-6.7-2.6-28-2.6-28l-0.4-12.8c-0.1-3.2-1.9-6.2-4.7-7.7c-1-0.5-2.1-0.8-3.2-0.8
			c0,0-35.3-5.7-47.7-4.7S97.1,253.8,97.1,253.8z"/>
		<path class="st115" d="M97.1,253.3c0,0-6.2,21.3,12.5,24.9l20.2-1c0,0,28.5-5.7,36.3-1.6c0,0,3.1,0.5,2.1,4.7s1.6,32.2,1.6,32.2
			v9.3c0,0,17.6,0,19.7-2.1c0,0-1.6-8.3,0-15.1c1.6-6.7-2.6-28-2.6-28l-0.4-12.8c-0.1-3.2-1.9-6.2-4.7-7.7c-1-0.5-2.1-0.8-3.2-0.8
			c0,0-35.3-5.7-47.7-4.7S97.1,253.3,97.1,253.3z"/>
		<path class="st101" d="M150.6,211.3c0,0,4.2,5.2,6.7,0c2.6-5.2,8.3-22.3,8.3-22.3s14-15.1,18.7-10.4c4.7,4.7-11.4,13-11.4,13
			s-5.7,31.7-10.9,32.2c-5.2,0.5-13,0-13,0l-2.6-5.7L150.6,211.3z"/>
		<path class="st143" d="M150.6,211.3c0,0,4.2,5.2,6.7,0c2.6-5.2,8.3-22.3,8.3-22.3s14-15.1,18.7-10.4c4.7,4.7-11.4,13-11.4,13
			s-5.7,31.7-10.9,32.2c-5.2,0.5-13,0-13,0l-2.6-5.7L150.6,211.3z"/>
		<path class="st105" d="M131.9,185.3c0,0,9.3,10.9,10.4,14.5c1,3.6,12.5,13,12.5,13s-8.3,6.2-6.7,9.3c1.6,3.1-10.9-10.4-10.9-10.4
			l-14.5-21.3L131.9,185.3z"/>
		<path class="st96" d="M131.9,185.3c0,0,9.3,10.9,10.4,14.5c1,3.6,12.5,13,12.5,13s-8.3,6.2-6.7,9.3c1.6,3.1-10.9-10.4-10.9-10.4
			l-14.5-21.3L131.9,185.3z"/>
		<path class="st101" d="M138.1,172.8c0,0-4.7,15.1-4.7,20.8s-19.7-1.6-19.2-4.7s11.4-14.5,11.9-19.2
			C126.7,165.1,138.1,172.8,138.1,172.8z"/>
		<path class="st96" d="M122.6,183.2c0,0-18.2-4.7-20.8,21.8s2.1,29.6-5.7,45.7s52.9,2.1,52.9,2.1s-3.1-3.6-13-2.1l-4.7-14
			c0,0-1.6-6.2,7.3-6.2c8.8,0,4.7-18.2,4.7-18.2s-4.7-15.6-7.3-17.1C133.5,193.6,128.8,184.3,122.6,183.2z"/>
		<path class="st105" d="M122.6,182.2c0,0-18.2-4.7-20.8,21.8s2.1,29.6-5.7,45.7s52.9,2.1,52.9,2.1s-3.1-3.6-13-2.1l-4.7-14
			c0,0-1.6-6.2,7.3-6.2c8.8,0,4.7-18.2,4.7-18.2s-4.7-15.6-7.3-17.1C133.5,192.6,128.8,183.2,122.6,182.2z"/>
		<path class="st96" d="M111.7,206.6l27.5,24.9c0,0,5.2-10.4,6.7-10.4c1.6,0-18.7-30.6-18.7-30.6s-5.2-6.2-8.3-3.1
			S106.5,188.4,111.7,206.6z"/>
		<circle class="st101" cx="133.5" cy="165.1" r="17.1"/>
		<path class="st96" d="M148.5,160.8c2.9,1.1,6.5-0.2,8.2-2.8c1.7-2.6,1.7-6.2,0.2-8.9c-1.4-2.8-4.1-4.8-7.1-5.8
			c-1.8-0.6-3.8-1-5.1-2.3c-0.9-0.8-1.4-1.9-2-2.9c-2.4-3.8-6.7-6-11.1-6.9c-4.4-0.9-8.9-0.6-13.4-0.3c-1.7,0.1-3.6,0.4-4.4,1.9
			c-0.6,1.1-0.2,2.5-0.3,3.7c-0.2,4-4.7,6.2-8.5,7.1c-3.9,1-8.4,1.9-10.3,5.4c-1.7,3.2-0.5,7,0,10.5c0.9,6.2-0.4,12.5-3.8,17.8
			c-1.7,2.7-3.9,5-5.2,7.9c-1.5,3.2-1.8,6.8-1,10.2c0.3,1,0.6,2,0.4,3c-0.2,0.8-0.6,1.6-1.2,2.3c-4.6,5.9-11.5,9.5-18.9,10.1
			c0.6,2.2,2.7,3.6,4.8,4.7c3.5,1.8,7.2,3.2,11,4.2c2.6,0.7,5.2,1.1,7.8,0.7c2.6-0.5,5.1-2,6.2-4.4c0.6-1.4,0.7-3,1.3-4.4
			c1.2-3.2,4.5-5.2,6.3-8.1c1.7-2.8,2.4-3.2,2.8-6.4c0.4-3.3,1.4-6.8,4.1-8.7c2.8-2,6.7-1.6,9.9-0.1s5,0.9,7.6,3.2
			c4.6,4,9.7,7.3,15.2,9.8c-0.5-4.5-1.4-9.6-5-12.3c-1-0.8-2.4-1.4-2.9-2.5c-0.9-1.9,0.6-4.2-0.1-6.2c-0.7-2-3.3-2.7-4.4-4.5
			c-1-1.5-0.7-3.6,0.2-5.1c0.9-1.6,2.4-2.7,3.8-3.8c1.3-1,2.6-1.9,3.9-2.8c1.2-0.8,2.2-1.7,3.2-2.8c0.5-0.7,0.9-2.3,1.6-2.8
			C144,157.1,146.8,160.1,148.5,160.8z"/>
		<path class="st107" d="M147.9,160.2c2.9,1.1,6.5-0.2,8.2-2.8s1.7-6.2,0.2-8.9c-1.4-2.8-4.1-4.8-7.1-5.8c-1.8-0.6-3.8-1-5.1-2.3
			c-0.9-0.8-1.4-1.9-2-2.9c-2.4-3.8-6.7-6-11.1-6.9c-4.4-0.9-8.9-0.6-13.4-0.3c-1.7,0.1-3.6,0.4-4.4,1.9c-0.6,1.1-0.2,2.5-0.3,3.7
			c-0.2,4-4.7,6.2-8.5,7.1c-3.9,1-8.4,1.9-10.3,5.4c-1.7,3.2-0.5,7,0,10.5c0.9,6.2-0.4,12.5-3.8,17.8c-1.7,2.7-3.9,5-5.2,7.9
			c-1.5,3.2-1.8,6.8-1,10.2c0.3,1,0.6,2,0.4,3c-0.2,0.8-0.6,1.6-1.2,2.3c-4.6,5.9-11.5,9.5-18.9,10.1c0.6,2.2,2.7,3.6,4.8,4.7
			c3.5,1.8,7.2,3.2,11,4.2c2.6,0.7,5.2,1.1,7.8,0.7s5.1-2,6.2-4.4c0.6-1.4,0.7-3,1.3-4.4c1.2-3.2,4.5-5.2,6.3-8.1
			c1.7-2.8,2.4-3.2,2.8-6.4c0.4-3.3,1.4-6.8,4.1-8.7c2.8-2,6.7-1.6,9.9-0.1c3.1,1.5,5,0.9,7.6,3.2c4.6,4,9.7,7.3,15.2,9.8
			c-0.5-4.5-1.4-9.6-5-12.3c-1-0.8-2.4-1.4-2.9-2.5c-0.9-1.9,0.6-4.2-0.1-6.2c-0.7-2-3.3-2.7-4.4-4.5c-1-1.5-0.7-3.6,0.2-5.1
			c0.9-1.6,2.4-2.7,3.8-3.8c1.3-1,2.6-1.9,3.9-2.8c1.2-0.8,2.2-1.7,3.2-2.8c0.5-0.7,0.9-2.3,1.6-2.8
			C143.5,156.5,146.3,159.6,147.9,160.2z"/>
		<g class="st108">
			<path class="st23" d="M184.8,318.6c0-1.4,0.2-2.8,0.6-4.1l-0.3,0.1C184.8,315.9,184.7,317.3,184.8,318.6z"/>
			<path class="st23" d="M187.4,337.9c-4.2,0.2-17.1-5.7-19.7-8.8c-0.3-0.4-0.6-0.9-0.6-1.5c-0.2,0.9,0.1,1.8,0.6,2.5
				c2.6,3.1,15.6,9.1,19.7,8.8c4.4-0.3,19.2,0.5,19.7-6.2c0-0.2,0-0.4-0.1-0.6C205.9,338.4,191.7,337.6,187.4,337.9z"/>
		</g>
		<polygon class="st117" points="163.2,228.2 175.4,227.2 207.9,227.2 208.1,228.2 202.9,231.3 158.1,231.3 		"/>
		<path class="st101" d="M140.7,219.6c0,0,37.9,4.2,44.1,3.1c0,0,27.8-3.4,20.8,3.6c-0.5,0.5-18.7,4.7-20.8,4.2
			c-2.1-0.5-46.2,0-46.2,0l-0.5-5.2L140.7,219.6z"/>
		<path class="st105" d="M111.1,205.5l27.5,24.9c0,0,5.2-10.4,6.7-10.4c1.6,0-18.7-30.6-18.7-30.6s-5.2-6.2-8.3-3.1
			S106,187.4,111.1,205.5z"/>
		<polygon class="st117" points="278,199.2 267.9,215.3 300.6,231.3 310.1,217.3 		"/>
		<path class="st101" d="M342.3,214.2l0.5,10.1c0,0-24.3,1.4-29.4-3.7c-5-5-23.3-3.9-22.9,0c0.2,2.5,12.4,10.6,19.7,11
			c7.3,0.5,17,3.8,21.1,5c3.9,1.1,14,2.2,19.2,2.3c3.1,0.1,5.9-1.6,7.3-4.4c0.6-1.3,0.8-2.8,0.6-4.3c-0.9-6,0-18.8,0-18.8
			L342.3,214.2z"/>
	</g>
</g>
<g id="Layer_6">
</g>
<g id="Layer_7">
</g>
</svg>
