<?xml version="1.0" encoding="utf-8"?>
<!-- Generator: Adobe Illustrator 24.1.1, SVG Export Plug-In . SVG Version: 6.00 Build 0)  -->
<svg version="1.1" xmlns="http://www.w3.org/2000/svg" xmlns:xlink="http://www.w3.org/1999/xlink" x="0px" y="0px"
	 viewBox="0 0 458.9 400" style="enable-background:new 0 0 458.9 400;" xml:space="preserve">
<style type="text/css">
	.st0{clip-path:url(#SVGID_2_);}
	.st1{clip-path:url(#SVGID_6_);}
	.st2{clip-path:url(#SVGID_10_);}
	.st3{fill:#EBEBF3;}
	.st4{clip-path:url(#SVGID_14_);}
	.st5{fill:#DBDCE9;}
	.st6{clip-path:url(#SVGID_18_);}
	.st7{clip-path:url(#SVGID_22_);}
	.st8{clip-path:url(#SVGID_26_);}
	.st9{clip-path:url(#SVGID_30_);}
	.st10{clip-path:url(#SVGID_34_);}
	.st11{clip-path:url(#SVGID_38_);}
	.st12{clip-path:url(#SVGID_42_);}
	.st13{clip-path:url(#SVGID_46_);}
	.st14{clip-path:url(#SVGID_50_);}
	.st15{clip-path:url(#SVGID_54_);}
	.st16{clip-path:url(#SVGID_58_);}
	.st17{clip-path:url(#SVGID_62_);}
	.st18{clip-path:url(#SVGID_66_);}
	.st19{clip-path:url(#SVGID_70_);}
	.st20{clip-path:url(#SVGID_74_);}
	.st21{clip-path:url(#SVGID_78_);}
	.st22{clip-path:url(#SVGID_82_);}
	.st23{fill:#FFFFFF;}
	.st24{fill:#F9B79D;}
	.st25{fill:#E3E4F0;}
	.st26{clip-path:url(#SVGID_86_);}
	.st27{clip-path:url(#SVGID_90_);}
	.st28{clip-path:url(#SVGID_94_);}
	.st29{clip-path:url(#SVGID_98_);}
	.st30{fill:#D3D6E6;}
	.st31{clip-path:url(#SVGID_102_);}
	.st32{clip-path:url(#SVGID_106_);}
	.st33{clip-path:url(#SVGID_110_);}
	.st34{clip-path:url(#SVGID_114_);}
	.st35{clip-path:url(#SVGID_118_);}
	.st36{clip-path:url(#SVGID_122_);}
	.st37{clip-path:url(#SVGID_126_);}
	.st38{fill:#325797;}
	.st39{fill:#CFCED1;}
	.st40{fill:#CE9888;}
	.st41{fill:#2C4F86;}
	.st42{clip-path:url(#SVGID_130_);}
	.st43{clip-path:url(#SVGID_134_);}
	.st44{fill:#C1C1CA;}
	.st45{clip-path:url(#SVGID_138_);}
	.st46{clip-path:url(#SVGID_142_);}
	.st47{clip-path:url(#SVGID_146_);}
	.st48{clip-path:url(#SVGID_150_);}
	.st49{clip-path:url(#SVGID_154_);}
	.st50{clip-path:url(#SVGID_158_);}
	.st51{clip-path:url(#SVGID_162_);}
	.st52{clip-path:url(#SVGID_166_);}
	.st53{fill:#AE827A;}
	.st54{fill:#6B341F;}
	.st55{clip-path:url(#SVGID_170_);}
	.st56{clip-path:url(#SVGID_174_);}
	.st57{clip-path:url(#SVGID_178_);}
	.st58{clip-path:url(#SVGID_182_);}
	.st59{clip-path:url(#SVGID_186_);}
	.st60{clip-path:url(#SVGID_190_);}
	.st61{clip-path:url(#SVGID_194_);}
	.st62{clip-path:url(#SVGID_198_);}
	.st63{clip-path:url(#SVGID_202_);}
	.st64{clip-path:url(#SVGID_206_);}
	.st65{clip-path:url(#SVGID_210_);}
	.st66{fill:#EB5E37;}
	.st67{fill:#4B2D4F;}
	.st68{fill:#BDBCC7;}
	.st69{fill:#C65437;}
	.st70{fill:#243068;}
	.st71{fill:#202D5E;}
	.st72{fill:#422948;}
	.st73{clip-path:url(#SVGID_214_);}
	.st74{clip-path:url(#SVGID_218_);}
	.st75{clip-path:url(#SVGID_222_);}
	.st76{fill:#C3C2CB;}
	.st77{fill:#B8B8C7;}
	.st78{clip-path:url(#SVGID_226_);}
	.st79{fill:#2E5695;}
	.st80{fill:#2C4F87;}
	.st81{clip-path:url(#SVGID_230_);}
	.st82{fill:#C7CADF;}
	.st83{clip-path:url(#SVGID_234_);}
	.st84{fill:#E7AC9C;}
	.st85{fill:#E05F41;}
	.st86{fill:#B2B3C3;}
	.st87{fill:#C4938A;}
	.st88{fill:#C05641;}
	.st89{fill:#22336B;}
	.st90{fill:#1F3162;}
	.st91{fill:#393F4B;}
	.st92{fill:#F6F4F4;}
	.st93{fill:#CAC9CB;}
	.st94{fill:#FAB150;}
	.st95{opacity:0.1;fill:#F6D2D1;}
	.st96{opacity:0.1;enable-background:new    ;}
	.st97{fill:url(#SVGID_237_);}
	.st98{fill:#324E90;}
	.st99{fill:#BCD1E6;}
	.st100{fill:#B9616E;}
	.st101{fill:#F6D2D1;}
	.st102{fill:#3F424D;}
	.st103{fill:#F7BEA5;}
	.st104{fill:#72351C;}
	.st105{fill:#E7552C;}
	.st106{fill:#512D4D;}
	.st107{fill:#FFD762;}
	.st108{opacity:0.1;}
	.st109{fill:#61C2EF;}
	.st110{opacity:0.3;clip-path:url(#SVGID_239_);fill:#324E91;enable-background:new    ;}
	.st111{opacity:0.1;fill:#324E91;enable-background:new    ;}
	.st112{opacity:0.3;fill:#324E91;enable-background:new    ;}
	.st113{fill:#5B539E;}
	.st114{fill:url(#SVGID_240_);}
	.st115{fill:#324E91;}
	.st116{fill:#5781C1;}
	.st117{fill:#F9B547;}
	.st118{opacity:0.1;fill:#FFFFFF;enable-background:new    ;}
	.st119{opacity:0.1;fill:#324E90;}
	.st120{opacity:0.2;fill:#324E90;enable-background:new    ;}
	.st121{opacity:0.7;}
	.st122{opacity:0.6;fill:#324E90;enable-background:new    ;}
	.st123{opacity:0.25;enable-background:new    ;}
	.st124{fill:url(#SVGID_241_);}
	.st125{fill:url(#SVGID_242_);}
	.st126{fill:url(#SVGID_243_);}
	.st127{fill:url(#SVGID_244_);}
	.st128{fill:url(#SVGID_245_);}
	.st129{fill:url(#SVGID_246_);}
	.st130{fill:url(#SVGID_247_);}
	.st131{opacity:0.1;fill:url(#SVGID_248_);enable-background:new    ;}
	.st132{opacity:0.1;fill:url(#SVGID_249_);enable-background:new    ;}
	.st133{opacity:0.1;fill:url(#SVGID_250_);enable-background:new    ;}
	.st134{fill:url(#SVGID_251_);}
	.st135{fill:url(#SVGID_252_);}
	.st136{fill:url(#SVGID_253_);}
	.st137{fill:url(#SVGID_254_);}
	.st138{fill:#262D62;}
	.st139{clip-path:url(#SVGID_256_);fill:url(#SVGID_257_);}
	.st140{clip-path:url(#SVGID_256_);fill:#3F424D;}
	.st141{clip-path:url(#SVGID_256_);}
	.st142{fill:url(#SVGID_258_);}
	.st143{opacity:5.000000e-02;enable-background:new    ;}
	.st144{opacity:0.1;fill:#E7552C;}
	.st145{opacity:0.13;clip-path:url(#SVGID_260_);fill:#FFFFFF;}
	.st146{opacity:0.13;fill:#FFFFFF;}
	.st147{opacity:0.98;fill:#FFFFFF;}
	.st148{clip-path:url(#SVGID_262_);}
	.st149{fill:#315798;}
	.st150{fill:#5381C1;}
	.st151{fill:#AFCAE0;}
	.st152{clip-path:url(#SVGID_266_);}
	.st153{fill:#2A4778;}
	.st154{fill:#B2626E;}
	.st155{fill:#95726B;}
	.st156{fill:#9B5864;}
	.st157{fill:#595BA7;}
	.st158{fill:#FABFA6;}
	.st159{fill:#6867AE;}
	.st160{fill:#F3C8C7;}
</style>
<g id="Layer_1">
</g>
<g id="Layer_2">
</g>
<g id="Layer_3">
</g>
<g id="Layer_4">
</g>
<g id="Layer_5">
</g>
<g id="Layer_6">
	<g>
		<path class="st144" d="M352.7,37.2c-68.6,45.4-47.6,63.2-127.9,77S96.3,149.6,53,209.9s-58.9,145,93.7,162.3
			c152.6,17.3,164-52.7,197.6-64.1s94.2-43.2,90.6-111.9S435.2-17.4,352.7,37.2z"/>
		<g>
			<defs>
				<path id="SVGID_259_" d="M353.3,37c-68.6,45.4-47.6,63.2-127.9,77S96.9,149.4,53.6,209.7s-58.9,145,93.7,162.3
					s164-52.7,197.6-64.1s94.2-43.2,90.6-111.9S435.8-17.6,353.3,37z"/>
			</defs>
			<clipPath id="SVGID_2_">
				<use xlink:href="#SVGID_259_"  style="overflow:visible;"/>
			</clipPath>
			<path style="opacity:0.13;clip-path:url(#SVGID_2_);fill:#FFFFFF;" d="M392.7,237.1l-39,18.4l34.5-25.8
				c-5.6-8.8-11.9-17-18.8-24.8l-169,42L353,188.8c-7-6.2-14.4-11.8-22.2-16.9L73.3,213.3C45.9,247.5,31,290,31,333.8h387.7
				C418.7,299.8,409.7,266.5,392.7,237.1z"/>
		</g>
		<path class="st146" d="M309.8,159.9c-26.4-12.9-55.5-19.6-84.9-19.5c-59.9,0-113.4,27.2-149,69.8
			C136.8,196.8,242.8,173.7,309.8,159.9z"/>
		<path class="st147" d="M296,126.3c0-2.4-3.4-4.3-7.5-4.3c-0.1,0-0.2,0-0.2,0c-1.3-3.8-7.2-6.8-14.3-6.8c-6.1,0-11.3,2.1-13.5,5.1
			c-1.6-0.4-3.3-0.6-5-0.6c-6.4,0-11.6,2.9-11.6,6.6c0,3.3,4.3,6,9.8,6.5c4,0.7,10.4,1.2,17.5,1.2c12.1,0,20.9-2.3,21.1-4
			C294.5,129.2,296,127.9,296,126.3z"/>
		<path class="st147" d="M397.6,95.5c0-4.2-5.9-7.5-13.2-7.5c-0.1,0-0.3,0-0.4,0c-2.2-6.8-12.6-11.9-25.1-11.9
			c-10.6,0-19.8,3.7-23.6,9c-2.8-0.8-5.8-1.1-8.7-1.1c-11.2,0-20.3,5.2-20.3,11.5c0,5.8,7.5,10.6,17.3,11.4
			c7.1,1.3,18.2,2.1,30.6,2.1c21.2,0,36.6-4,37-7.1C395,100.7,397.6,98.3,397.6,95.5z"/>
		<path class="st102" d="M248.7,185c-8.1-13.6-24-14.2-24-14.2s-15.5-2-25.5,18.7c-9.3,19.3-22.1,38-2.1,42.5l3.6-11.3l2.2,12.1
			c2.9,0.2,5.7,0.3,8.6,0.1c21.4-0.7,41.9,0.2,41.2-7.5C251.9,215.2,256.4,198.1,248.7,185z"/>
		<path class="st102" d="M196,304.1c-0.2,1.5-0.6,3-1,4.4c-0.5,1.4-1.3,2.7-1.7,4.2c-1.5,4.6,0.6,9.7,3.8,13.2
			c2.8,3,6.5,5.2,10.5,6.2c2.9,0.7,6,0.8,9,0.9c8.4,0.3,17,0.5,24.9-2.2c2.5-0.9,4.9-2,7.2-3.3c0.7-0.3,1.4-0.9,1.9-1.5
			c0.6-0.9,0.7-2,0.7-3c0-3.5-0.7-7.1-0.6-10.6c0.1-2,0.5-3.9,0.3-5.9c-0.5-4.6-3.8-8.3-8.3-9.3c-2.2-0.5-4.6-0.2-6.9,0
			c-5.9,0.6-11.9,0.8-17.9,0.8c-6.1,0-12.2-1-18.2-1.1c-1.8,0-1.8,0.5-2.3,2.3C196.8,300.9,196.3,302.5,196,304.1z"/>
		<path class="st101" d="M213.3,216.5c-0.3,1.5-0.6,3.1-1.5,4.4c-1.1,1.5-2.8,2.3-3.9,3.7c-1.7,2.1-1.8,5-1.8,7.7
			c0,2.5,0,5.2,1.4,7.2c0.9,1.3,2.3,2.3,3.6,3.2c5.2,3.5,10.9,7.1,17.1,7.2c2.6,0,5.4-0.6,7.1-2.6c0.7-0.9,1.3-2,1.7-3.1
			c1.6-4,2.6-8.2,2.9-12.4c0.1-2,0.1-4.1-0.5-6c-0.8-2.1-2.3-3.9-3.3-5.9c-1.2-2.4-1.6-5.1-1.3-7.8c0.1-0.2,0-0.4,0-0.6
			c-0.2-0.2-0.4-0.3-0.7-0.3l-12.5-0.9c-1.2-0.1-2.3-0.2-3.5-0.4c-0.7-0.1-2.4-1.1-3.1-0.8C213.9,209.7,213.6,215.2,213.3,216.5z"/>
		<path class="st96" d="M213.3,216.5c-0.3,1.5-0.6,3.1-1.5,4.4c-1.1,1.5-2.8,2.3-3.9,3.7c-1.7,2.1-1.8,5-1.8,7.7
			c0,2.5,0,5.2,1.4,7.2c0.9,1.3,2.3,2.3,3.6,3.2c5.2,3.5,10.9,7.1,17.1,7.2c2.6,0,5.4-0.6,7.1-2.6c0.7-0.9,1.3-2,1.7-3.1
			c1.6-4,2.6-8.2,2.9-12.4c0.1-2,0.1-4.1-0.5-6c-0.8-2.1-2.3-3.9-3.3-5.9c-1.2-2.4-1.6-5.1-1.3-7.8c0.1-0.2,0-0.4,0-0.6
			c-0.2-0.2-0.4-0.3-0.7-0.3l-12.5-0.9c-1.2-0.1-2.3-0.2-3.5-0.4c-0.7-0.1-2.4-1.1-3.1-0.8C213.9,209.7,213.6,215.2,213.3,216.5z"/>
		<circle class="st101" cx="225.2" cy="199.9" r="18.3"/>
		<path class="st105" d="M215.9,240.9c1,1,2,2,3.2,2.6c1.3,0.5,2.6,0.8,4,0.8c3.3,0.1,6.9-0.5,9.2-2.9c3-3.1,2.9-8,5.2-11.6
			c0.2-0.3,0.4-0.6,0.7-0.8c0.4-0.2,0.8-0.3,1.3-0.3c2.9,0,5.5,1.9,7.8,3.7c1,0.8,2.1,1.7,2.7,2.8c0.5,0.9,0.8,1.8,0.9,2.8
			c1.1,5.6,1.5,11.3,1.9,17c0.2,3.1,0.4,6.3,0.4,9.4c0,10.4-2.5,20.5-4.9,30.6c-0.3,1.3-0.7,2.7-1.9,3.4c-0.5,0.2-1.1,0.4-1.7,0.4
			c-6.9,0.8-13.7,1.6-20.6,1.7c-2.7,0-5.4,0-8.1-0.2c-0.5,0-0.9-0.1-1.4-0.2c-0.6-0.3-1.1-0.7-1.5-1.3c-3.7-4.7-4-11.2-3.9-17.2
			c0.1-14.7,0.6-29.4,1.6-44c0.1-1.2,0.1-2.7-0.8-3.6C211.6,236.4,213.8,238.7,215.9,240.9z"/>
		<path class="st116" d="M212,219.8c-0.6,1.1-5.2,3.9-6.1,4.8c-4.9,5.2-13.9,5-18.4,10.5c-1.6,2-2.4,4.4-3,6.8
			c-0.9,3.4-1.3,7.2,0.1,10.5c1.4,3.1,4.3,5.3,6.2,8.1c2.2,3.1,3.1,6.8,4.1,10.4c0.7,2.7,1.4,5.4,1.1,8.2c-0.3,3.1-1.8,6-2.7,9
			c-0.9,3-1.1,6.6,1,9c1.5,1.7,3.9,2.4,6.2,2.8c2.9,0.4,5.9,0.7,8.8,0.8c2.6,0.1,5.5,0.1,7.5-1.5c1.6-1.3,2.3-3.5,2.4-5.5
			c0.1-2.1-0.3-4.1-0.6-6.1c-0.3-2.1-0.4-4.3-0.5-6.4c-0.4-9.6-0.5-19.2-0.2-28.7c0.1-2,0.1-4-0.3-6c-0.6-2.6-1.9-4.9-3.1-7.2
			c-2.3-4.7-3.4-9.2-3-14.4C212,219.7,214.2,215.8,212,219.8z"/>
		<path class="st116" d="M237.7,220.1c0.9,1,4.1,1.3,5.3,1.9c1.1,0.5,2.3,0.9,3.5,1.2c4.4,1.3,8.5,3.2,12.3,5.7
			c0.8,0.5,1.5,1.1,2.1,1.8c0.7,0.9,0.9,2.1,1.1,3.2c0.6,2.9,1.2,5.8,1,8.8c-0.1,3.1-1.1,6.2-2,9.2l-3.5,11.2
			c-2.6,8.4-5.3,16.8-6,25.6c-0.4,4.8-0.2,9.7,0.5,14.5c0.1,0.5,0.1,1-0.2,1.4c-0.2,0.2-0.5,0.4-0.9,0.4c-1.7,0.3-3.3-0.6-4.9-1.4
			c-4.7-2.3-9.7-4-14.9-4.9c2-2.9,3.6-6.1,4.6-9.5c0.6-2.2,1.1-4.3,1.4-6.5l1.6-9.4c0.7-3.4,1.1-6.9,1.4-10.4c0.1-1.3,0-2.6-0.2-3.9
			c-0.4-1.2-0.9-2.4-1.5-3.5c-2.7-5.6-4-12-2.9-18.1c0.5-2.7,1.4-5.4,1-8c-0.4-2.6,0-4.6-0.6-7.2
			C233.4,211.6,235.9,218.3,237.7,220.1z"/>
		<path class="st116" d="M187.5,244c-1.2,2.5-3.3,4.7-4,7.4c-0.3,1.3-0.4,2.6-0.3,3.9c0,2,0,4,0.6,5.9c0.4,1.2,1,2.3,1.5,3.5
			c0.6,1.7,0.9,3.4,0.8,5.2c-0.1,2.5-1,4.8-1,7.3c-0.1,3.9,1.7,7.5,3.4,10.9c1.7-4.1,6.3-6.1,10.5-4.4c0.4,0.2,0.8,0.4,1.2,0.6
			c0.5-0.4,0.5-1.1,0.5-1.7c0.1-4.5,0.3-9,0.4-13.4c0.2-6.9,0.4-13.9-1.2-20.7c-0.7-3-1.8-6.1-3.9-8.4c-1.1-1.2-4.7-4.5-6.5-3.1
			c-0.8,0.6-0.6,2.3-0.7,3.2C188.5,241.4,188.1,242.7,187.5,244z"/>
		<path class="st116" d="M263.5,236.6c0.6,1.8,0.6,3.7,0.6,5.6c0,3.9,0,7.7-0.2,11.6c-0.1,2-0.2,4-0.8,5.9c-0.4,1.2-1,2.4-1.4,3.7
			c-1.2,3.7-0.6,7.8-0.5,11.7c0.1,1.3,0,2.5-0.3,3.8c-0.6,2.4-2.4,4.4-3.6,6.6c-1.2,2.1-1.8,4.4-3.2,6.4c-1.4,1.9-3.8,3.5-6.1,2.9
			c-1.7-0.5-3-2-3.9-3.6c-1.9-3.5-2.5-7.5-1.8-11.4c0.9-4.8,3.7-9,4.7-13.7c1.4-6.5-0.7-13.2-0.7-19.8c0-1,0.1-2.1,0.4-3.1
			c0.5-1.5,1.7-2.7,2.7-3.9c1.3-1.5,2.5-3.1,3.6-4.8c0.7-1.1,1.8-4,3.1-4.2C259.3,229.6,262.7,234.3,263.5,236.6z"/>
		<path class="st102" d="M172.1,301.3c-1.6-0.4-3.3-0.6-5-0.5c-6.9,0.4-12.2,6.3-11.8,13.2c0,0.5,0.1,1.1,0.2,1.6
			c0.4,1.9,1.1,3.7,2,5.4c1.3,2.7,2.9,5.4,5.4,7.1c1.4,1,3.1,1.6,4.8,2.3l13,4.9c1.9,0.7,3.8,1.4,5.8,2.1c9.7,3.4,19.8,5.4,30,6
			c3.1,0.2,6.3,0.2,9.3-0.5c0.7-0.2,1.5-0.4,1.9-1c0.2-0.4,0.4-0.9,0.4-1.4l0.8-5.6c0.1-0.8,0.2-1.6-0.1-2.4c-0.4-0.9-1.3-1.5-2.2-2
			c-8.5-4.9-18.5-7.6-25.7-14.3c-1.7-1.6-3.1-4.1-5.2-5.2c-2.3-1.2-5.1-1.9-7.5-3C183,305.4,177.8,302.6,172.1,301.3z"/>
		<path class="st96" d="M185.1,308.8c4.6,1.4,24,11.4,27.3,14.9c-0.4,0.2-15.6-8.3-16-8.4c-4.1-1.2-8.3-2.5-12.2-4.3
			c-0.8-0.4-5.1-2.1-4.9-3.1C179.5,306.8,184.3,308.5,185.1,308.8z"/>
		<path class="st101" d="M242.4,346.2c0.3,0,0.5-0.1,0.7-0.2c0.2-0.2,0.3-0.5,0.2-0.8c0-2.5,0-5.1,0-7.6c-2.2-1-4.6-1.4-7.1-1.7
			l-11.2-1.5c0.3,0-1.8,4.8-1.4,5.5c0.5,1.1,4.7,2.1,5.9,2.7C233.5,344.3,237.8,346.4,242.4,346.2z"/>
		<path class="st101" d="M207.1,337.5c-2.1,0.3-4.5,0.6-5.9,2.3c-1.7,2.1-1,5.2-0.2,7.8c0.1,0.5,0.4,1,0.7,1.4
			c0.6,0.6,1.4,0.6,2.2,0.7c1.9,0.1,4,0.2,5.7-0.7c0.8-0.5,1.5-1.1,2.2-1.6c1.2-0.8,2.6-1.5,4.1-1.9c2.7-0.8,5.4-1.4,8.1-1.7
			c1.1,0,2.2-0.2,3.2-0.6c1-0.4,2-1.1,2.3-2.2c0.4-1.4-0.4-2.8-1.2-4c-1-1.5-2-3.1-3.4-4.2c-2.1-1.6-3.1-0.4-5.2,0.7
			C215.8,335.5,211.5,336.8,207.1,337.5z"/>
		<path class="st102" d="M201.6,339.4l-13.5-4c-1.6-0.5-3.3-1-5-1c-1.7,0-3.5,0.6-4.6,1.9c-1,1.2-1.3,2.9-1.6,4.5l-0.6,3.4
			c-0.3,1.7-0.6,3.5-0.3,5.2c0.3,1.7,1.1,3.5,2.7,4.3c1.9,1,4.1,0.5,6.2,0.1c4.2-0.9,8.5-1.3,12.8-1.4c1.6,0,3.3,0,4.7-0.8
			c1.7-0.9,2.7-2.8,2.9-4.7C205.6,344.1,204.6,340.3,201.6,339.4z"/>
		<path class="st102" d="M247.7,336c1.7-0.3,3.3-1.3,5-1.9c2.4-0.8,4.9-0.8,7.4-0.8c0.9,0,1.9,0,2.7,0.5c1.1,0.7,1.4,2.2,1.6,3.5
			l1.1,7.9c0.2,1.5,0.4,3,0.1,4.5c-0.3,1.5-1.3,2.9-2.8,3.2c-1.8,0.5-3.5-0.7-5.1-1.4c-4.2-1.8-9-1.4-13.3-2.8
			c-0.8-0.3-1.7-0.6-2-1.4c-0.1-0.4-0.2-0.9-0.2-1.4c0.1-2.5-0.5-6,0.3-8.4C243.1,335.3,245.7,336,247.7,336z"/>
		<path class="st102" d="M276.2,298.1c2.7-0.7,5.5-0.9,8.2-0.6c2.2,0.2,4.5,0.9,6.1,2.4c2,1.9,2.6,4.7,2.6,7.4
			c0.1,5.4-1.7,10.6-5,14.8c-0.8,1.1-1.8,2-2.9,2.8c-1.2,0.7-2.4,1.3-3.7,1.8l-29.1,11.5c-7.7,3-15.3,6-23.3,8
			c-0.9,0.4-2,0.1-2.4-0.8c0,0,0,0,0,0c-2.5-3.6-4.7-7.6-6.4-11.7c-0.3-0.3-0.2-0.8,0.1-1.1c0.1-0.1,0.2-0.1,0.2-0.1l20.6-11.8
			c1.5-0.8,3-1.7,4.2-2.9c0.9-0.9,1.6-1.9,2.2-3c0.4-0.9,0.5-3,1-3.7c0.5-0.6,2.4-0.7,3.2-0.9c1.2-0.4,2.4-0.8,3.5-1.3
			c4.6-2.1,8.7-5.1,13.1-7.5C270.8,299.9,273.4,298.8,276.2,298.1z"/>
		<path class="st96" d="M264.5,306.9c-3.5,2.7-8.1,5.1-11.6,7.8c-1.2,0.9-21.1,12.1-21.4,13.6c3.3,0.6,24.1-14,27.1-15.5
			c3-1.5,5.6-3.5,8.2-5.5c0.7-0.5,3.5-2.1,1.6-2.7C267.3,304.4,265.3,306.4,264.5,306.9z"/>
		<polygon class="st102" points="245.1,183.7 229.4,175.4 207.6,178.8 203.1,198.7 214.3,198.2 217.5,190.9 217.5,198.1 
			222.6,197.9 225.6,186.3 227.5,198.7 245.9,198.3 		"/>
		<rect x="207.7" y="224.4" class="st109" width="33.9" height="40.9"/>
		<path class="st101" d="M191.6,295.5c0.8,1.2,1.7,2.3,2.9,2.9c1.6,0.7,3.5,0.7,5-0.1c1.5-0.8,2.8-2.1,3.6-3.7
			c1.7-3,2.1-6.6,1.9-10.1s-1-6.9-1.3-10.3c-0.2-2.5-0.3-5-0.3-7.6c-0.1-0.5,0.1-1.1,0.3-1.5c0.4-0.5,1.1-0.7,1.7-0.8
			c3.5-1,5.7-4.3,7.4-7.5c1.1-2.1,2.1-4.5,1.8-6.9c-0.2-2.4-1.9-4.8-4.3-5.1c-2-0.2-3.8,1.1-5.2,2.4c-3.6,3.5-5.9,8.1-6.5,13.1
			c-0.3,2.4-0.2,4.9-0.9,7.3c-1.4,5-5.8,8.1-8,12.7C187.4,285.4,188.7,291.1,191.6,295.5z"/>
		<path class="st101" d="M256.8,276.2c-1,2.4-2.9,4.2-5.4,5.1c-1.5,0.6-3.1,0.7-4.7,0.3c-1.5-0.4-2.8-1.6-3.4-3
			c-0.2-0.7-0.4-1.5-0.4-2.3c-0.2-3.4-0.1-6.9,1.1-10.1c0.5-1.2,1.1-2.4,1.5-3.7c0.4-1.5,0.6-3,0.6-4.5l0.4-9.3c0.1-0.7,0-1.4-0.1-2
			c-0.4-1.3-1.7-2.2-2.8-3c-2.8-1.9-5.5-4.2-6.9-7.3c-0.5-0.9-0.6-2-0.5-3c0.4-1.8,2.2-3,4.1-3.4c4.9-1.1,9.8,2,10.9,7
			c0,0.1,0.1,0.3,0.1,0.4c0.2,1,0.2,2.1,0.3,3.2c0.2,2.2,0.9,4.4,1.4,6.6c1.1,5.4,0.5,11.1,1.6,16.5
			C255.5,268.3,258.9,271.2,256.8,276.2z"/>
	</g>
</g>
<g id="Layer_7">
</g>
</svg>
